<svg width="113" height="24" viewBox="0 0 113 24" fill="none" xmlns="http://www.w3.org/2000/svg">
<path d="M12 9.024C11.4114 9.024 10.836 9.19854 10.3466 9.52555C9.85722 9.85255 9.47578 10.3173 9.25054 10.8611C9.02529 11.4049 8.96635 12.0033 9.08118 12.5806C9.19601 13.1579 9.47945 13.6881 9.89565 14.1043C10.3119 14.5205 10.8421 14.804 11.4194 14.9188C11.9967 15.0336 12.5951 14.9747 13.1389 14.7495C13.6827 14.5242 14.1474 14.1428 14.4745 13.6534C14.8015 13.164 14.976 12.5886 14.976 12C14.976 11.6092 14.899 11.2222 14.7495 10.8611C14.5999 10.5001 14.3807 10.172 14.1044 9.89565C13.828 9.6193 13.4999 9.40009 13.1389 9.25053C12.7778 9.10098 12.3908 9.024 12 9.024ZM23.916 6.084C23.9097 5.15731 23.739 4.23909 23.412 3.372C23.1711 2.73751 22.7985 2.16131 22.3186 1.68142C21.8387 1.20153 21.2625 0.828861 20.628 0.588C19.7609 0.260957 18.8427 0.0903131 17.916 0.0839999C16.368 -7.91418e-08 15.912 0 12 0C8.088 0 7.632 -7.91418e-08 6.084 0.0839999C5.15731 0.0903131 4.23909 0.260957 3.372 0.588C2.73751 0.828861 2.16131 1.20153 1.68142 1.68142C1.20153 2.16131 0.828861 2.73751 0.588 3.372C0.260957 4.23909 0.0903131 5.15731 0.0839999 6.084C-7.60979e-08 7.632 0 8.088 0 12C0 15.912 -7.60979e-08 16.368 0.0839999 17.916C0.0969167 18.846 0.267329 19.767 0.588 20.64C0.827794 21.2716 1.20015 21.8444 1.68 22.32C2.15783 22.8028 2.73527 23.1754 3.372 23.412C4.23909 23.739 5.15731 23.9097 6.084 23.916C7.632 24 8.088 24 12 24C15.912 24 16.368 24 17.916 23.916C18.8427 23.9097 19.7609 23.739 20.628 23.412C21.2647 23.1754 21.8422 22.8028 22.32 22.32C22.7998 21.8444 23.1722 21.2716 23.412 20.64C23.7387 19.7687 23.9093 18.8466 23.916 17.916C24 16.368 24 15.912 24 12C24 8.088 24 7.632 23.916 6.084ZM20.868 15.684C20.8295 16.4245 20.6714 17.1539 20.4 17.844C20.167 18.4196 19.8207 18.9425 19.3816 19.3816C18.9425 19.8207 18.4196 20.167 17.844 20.4C17.1474 20.6563 16.4139 20.7981 15.672 20.82C14.724 20.82 14.472 20.82 12 20.82C9.528 20.82 9.276 20.82 8.328 20.82C7.58608 20.7981 6.85259 20.6563 6.156 20.4C5.56092 20.1789 5.02353 19.8261 4.584 19.368C4.1492 18.9375 3.81341 18.4174 3.6 17.844C3.34267 17.1481 3.20473 16.4138 3.192 15.672C3.192 14.724 3.192 14.472 3.192 12C3.192 9.528 3.192 9.276 3.192 8.328C3.20473 7.58619 3.34267 6.85186 3.6 6.156C3.82114 5.56092 4.17393 5.02353 4.632 4.584C5.0644 4.15155 5.58392 3.81611 6.156 3.6C6.85259 3.34369 7.58608 3.20185 8.328 3.18C9.276 3.18 9.528 3.18 12 3.18C14.472 3.18 14.724 3.18 15.672 3.18C16.4139 3.20185 17.1474 3.34369 17.844 3.6C18.4391 3.82114 18.9765 4.17393 19.416 4.632C19.8508 5.0625 20.1866 5.58256 20.4 6.156C20.6563 6.85259 20.7981 7.58608 20.82 8.328C20.82 9.276 20.82 9.528 20.82 12C20.82 14.472 20.904 14.724 20.868 15.672V15.684ZM18.948 6.756C18.8051 6.36838 18.5799 6.01637 18.2877 5.72426C17.9956 5.43214 17.6436 5.20688 17.256 5.064C16.7238 4.87951 16.1632 4.79015 15.6 4.8C14.664 4.8 14.4 4.8 12 4.8C9.6 4.8 9.336 4.8 8.4 4.8C7.83392 4.80553 7.27328 4.91116 6.744 5.112C6.36231 5.24839 6.01403 5.46445 5.7223 5.74584C5.43057 6.02723 5.20207 6.36749 5.052 6.744C4.87773 7.27844 4.79259 7.83791 4.8 8.4C4.8 9.336 4.8 9.6 4.8 12C4.8 14.4 4.8 14.664 4.8 15.6C4.8119 16.1654 4.91732 16.725 5.112 17.256C5.25488 17.6436 5.48014 17.9956 5.77226 18.2877C6.06437 18.5799 6.41638 18.8051 6.804 18.948C7.316 19.1363 7.85478 19.2416 8.4 19.26C9.336 19.26 9.6 19.26 12 19.26C14.4 19.26 14.664 19.26 15.6 19.26C16.1661 19.2545 16.7267 19.1488 17.256 18.948C17.6436 18.8051 17.9956 18.5799 18.2877 18.2877C18.5799 17.9956 18.8051 17.6436 18.948 17.256C19.1488 16.7267 19.2545 16.1661 19.26 15.6C19.26 14.664 19.26 14.4 19.26 12C19.26 9.6 19.26 9.336 19.26 8.4C19.2603 7.83336 19.1545 7.27167 18.948 6.744V6.756ZM12 16.584C11.3986 16.584 10.8031 16.4653 10.2476 16.2348C9.69211 16.0043 9.18756 15.6665 8.76286 15.2407C8.33815 14.8148 8.00163 14.3094 7.77257 13.7533C7.54352 13.1972 7.42642 12.6014 7.428 12C7.428 11.0929 7.69715 10.2061 8.20138 9.45202C8.70561 8.69793 9.42225 8.1104 10.2606 7.7638C11.0989 7.4172 12.0212 7.32713 12.9107 7.50498C13.8003 7.68283 14.617 8.1206 15.2576 8.76289C15.8982 9.40517 16.3339 10.2231 16.5094 11.1131C16.6849 12.0031 16.5924 12.9251 16.2436 13.7626C15.8948 14.6 15.3054 15.315 14.55 15.8173C13.7946 16.3195 12.9071 16.5864 12 16.584ZM16.8 8.316C16.5347 8.28792 16.2892 8.16266 16.1108 7.96436C15.9324 7.76606 15.8337 7.50875 15.8337 7.242C15.8337 6.97525 15.9324 6.71794 16.1108 6.51964C16.2892 6.32134 16.5347 6.19608 16.8 6.168C17.0653 6.19608 17.3108 6.32134 17.4892 6.51964C17.6676 6.71794 17.7663 6.97525 17.7663 7.242C17.7663 7.50875 17.6676 7.76606 17.4892 7.96436C17.3108 8.16266 17.0653 8.28792 16.8 8.316Z" fill="white"/>
<path fill-rule="evenodd" clip-rule="evenodd" d="M34.0775 0.231097C33.2089 0.321574 32.5127 0.574842 31.8989 1.00772C31.3451 1.39833 30.8425 1.93413 30.518 2.57038C30.1134 3.36371 30.006 3.95422 30.0061 4.99207V18.2267C30.0061 18.7022 29.9849 19.2366 30.0217 19.698C30.1581 21.4071 31.1943 22.6431 32.3481 23.2587C33.1142 23.6674 33.7881 23.7793 34.7831 23.7792H46.5894C47.5153 23.7792 48.6507 23.8341 49.5407 23.7581C51.2452 23.6125 52.4729 22.5938 53.0932 21.4139C53.5023 20.6356 53.6016 20.013 53.6016 18.9882V5.75355C53.6014 4.32913 53.6886 3.39678 52.8108 2.11396C52.4448 1.57906 51.8773 1.04763 51.2532 0.727094C50.478 0.329086 49.8507 0.210019 48.8245 0.210131H35.5458C35.0804 0.210131 34.5249 0.184569 34.0778 0.231097H34.0775Z" fill="white"/>
<path fill-rule="evenodd" clip-rule="evenodd" d="M39.9951 13.2723C33.7871 20.0518 37.736 15.734 33.7871 20.0518C34.6025 20.0535 34.5518 20.0591 35.1662 20.0753C36.1697 18.9429 35.1662 20.0753 40.648 14.1397C45.0699 20.0541 40.648 14.1397 45.0699 20.0541L49.8378 20.0479C43.6779 11.7592 43.7539 11.8646 43.3191 11.2803C48.7403 5.31492 43.3191 11.2803 49.0976 4.92188C48.799 4.99238 48.0882 4.94304 47.7358 4.95135C46.0291 6.75855 44.3651 8.55912 42.6808 10.382C40.7688 7.83406 40.8243 7.93534 38.6569 5.00394C36.1458 4.93837 36.5347 4.94239 33.8266 4.92343C36.861 9.1298 36.749 8.90594 39.9953 13.2724L39.9951 13.2723ZM35.8408 5.97752C36.572 5.97597 37.3034 5.97441 38.0346 5.97298C41.2844 10.3233 44.5342 14.6738 47.784 19.0242C47.0456 19.016 46.3072 19.008 45.5687 18.9998C42.326 14.659 39.0834 10.3183 35.8406 5.97752H35.8408Z" fill="#C48312"/>
<path fill-rule="evenodd" clip-rule="evenodd" d="M63.6815 0.231097C62.8129 0.321574 62.1167 0.574842 61.5029 1.00772C60.9491 1.39833 60.4465 1.93413 60.122 2.57038C59.7174 3.36371 59.61 3.95422 59.6101 4.99207V18.2267C59.6101 18.7022 59.5889 19.2366 59.6257 19.698C59.7621 21.4071 60.7983 22.6431 61.9521 23.2587C62.7182 23.6674 63.3921 23.7793 64.3871 23.7792H76.1934C77.1193 23.7792 78.2547 23.8341 79.1447 23.7581C80.8492 23.6125 82.0769 22.5938 82.6972 21.4139C83.1063 20.6356 83.2056 20.013 83.2056 18.9882V5.75355C83.2055 4.32913 83.2926 3.39678 82.4148 2.11396C82.0488 1.57906 81.4813 1.04763 80.8572 0.727094C80.082 0.329086 79.4547 0.210019 78.4285 0.210131H65.1498C64.6844 0.210131 64.1289 0.184569 63.6818 0.231097H63.6815Z" fill="white"/>
<path d="M76.1112 8.03502C76.0086 7.97921 75.9087 7.91803 75.8119 7.8517C75.5303 7.65587 75.2721 7.42512 75.0429 7.16442C74.4695 6.47414 74.2553 5.77386 74.1764 5.28356H74.1796C74.1137 4.87659 74.141 4.61328 74.1451 4.61328H71.5332V15.2385C71.5332 15.3811 71.5332 15.5221 71.5275 15.6614C71.5275 15.6788 71.526 15.6948 71.525 15.7134C71.525 15.7211 71.525 15.7291 71.5234 15.7371C71.5234 15.7391 71.5234 15.7411 71.5234 15.7431C71.4959 16.1243 71.3797 16.4926 71.1852 16.8155C70.9906 17.1384 70.7236 17.4061 70.4076 17.595C70.0783 17.7921 69.7058 17.8955 69.3269 17.8949C68.11 17.8949 67.1238 16.851 67.1238 15.5618C67.1238 14.2726 68.11 13.2286 69.3269 13.2286C69.5573 13.2284 69.7862 13.2665 70.0052 13.3416L70.0084 10.5438C69.3435 10.4535 68.668 10.5091 68.0246 10.7071C67.3812 10.9051 66.7837 11.2413 66.27 11.6944C65.8198 12.1059 65.4413 12.5969 65.1516 13.1453C65.0413 13.3453 64.6254 14.1489 64.575 15.4531C64.5433 16.1934 64.7546 16.9603 64.8554 17.2773V17.284C64.9187 17.4706 65.1643 18.1076 65.5644 18.6446C65.8871 19.0753 66.2683 19.4536 66.6958 19.7675V19.7608L66.7021 19.7675C67.9665 20.6714 69.3684 20.6121 69.3684 20.6121C69.6111 20.6017 70.4241 20.6121 71.3473 20.1518C72.3712 19.6415 72.9542 18.8812 72.9542 18.8812C73.3266 18.4269 73.6227 17.9092 73.8298 17.3503C74.0662 16.6967 74.1451 15.9128 74.1451 15.5995V9.96254C74.1768 9.98254 74.5988 10.2762 74.5988 10.2762C74.5988 10.2762 75.2067 10.6862 76.1553 10.9531C76.8358 11.1431 77.7527 11.1831 77.7527 11.1831V8.45532C77.4314 8.49199 76.7791 8.38533 76.1112 8.03502Z" fill="#C48312"/>
<path fill-rule="evenodd" clip-rule="evenodd" d="M93.2855 0.231097C92.4169 0.321574 91.7207 0.574842 91.1069 1.00772C90.5531 1.39833 90.0505 1.93413 89.726 2.57038C89.3214 3.36371 89.214 3.95422 89.2141 4.99207V18.2267C89.2141 18.7022 89.1929 19.2366 89.2297 19.698C89.3661 21.4071 90.4023 22.6431 91.5561 23.2587C92.3222 23.6674 92.9961 23.7793 93.9911 23.7792H105.797C106.723 23.7792 107.859 23.8341 108.749 23.7581C110.453 23.6125 111.681 22.5938 112.301 21.4139C112.71 20.6356 112.81 20.013 112.81 18.9882V5.75355C112.809 4.32913 112.897 3.39678 112.019 2.11396C111.653 1.57906 111.085 1.04763 110.461 0.727094C109.686 0.329086 109.059 0.210019 108.033 0.210131H94.7538C94.2884 0.210131 93.7329 0.184569 93.2858 0.231097H93.2855Z" fill="white"/>
<path d="M103.367 11.6461C102.069 10.9509 100.826 10.3118 99.5547 9.64453V13.6363C100.892 12.908 102.302 12.241 103.373 11.6461H103.367Z" fill="white"/>
<path d="M103.367 11.6461C102.069 10.9509 99.5547 9.64453 99.5547 9.64453L102.907 11.9017C102.907 11.9017 102.296 12.241 103.367 11.6461Z" fill="white"/>
<path d="M99.7936 16.7761C97.0965 16.7264 96.1753 16.6816 95.609 16.5648C95.2259 16.4871 94.893 16.3147 94.6489 16.0646C94.4603 15.8754 94.3102 15.5866 94.1938 15.186C94.094 14.8522 94.0551 14.5745 93.9997 13.8962C93.9148 12.3653 93.8946 11.1137 93.9997 9.71519C94.0864 8.9429 94.1284 8.02609 94.7044 7.49122C94.9763 7.2409 95.2927 7.07981 95.6479 7.01321C96.2028 6.90766 98.5671 6.82422 101.015 6.82422C103.457 6.82422 105.826 6.90766 106.382 7.01321C106.825 7.09665 107.242 7.34672 107.486 7.66916C108.011 8.49726 108.021 9.52699 108.074 10.3324C108.096 10.7162 108.096 12.8954 108.074 13.2792C107.991 14.5522 107.924 15.0025 107.736 15.4695C107.619 15.7643 107.519 15.9199 107.347 16.0923C107.077 16.3576 106.732 16.5341 106.359 16.5982C104.025 16.774 102.043 16.8122 99.7936 16.7761ZM103.368 11.6612C102.069 10.966 100.826 10.3214 99.555 9.65412V13.6462C100.892 12.9178 102.302 12.2506 103.373 11.6557L103.368 11.6612Z" fill="#C48312"/>
</svg>
