<svg width="173" height="24" viewBox="0 0 173 24" fill="none" xmlns="http://www.w3.org/2000/svg">
<path fill-rule="evenodd" clip-rule="evenodd" d="M4.07754 0.0279719C3.20893 0.118449 2.51265 0.371717 1.89889 0.804594C1.34508 1.1952 0.842467 1.731 0.518017 2.36725C0.113409 3.16058 0.00597028 3.75109 0.00608255 4.78894V18.0236C0.00608255 18.4991 -0.0151358 19.0335 0.0216876 19.4949C0.158091 21.204 1.19431 22.44 2.34807 23.0555C3.11418 23.4643 3.78811 23.5762 4.78313 23.5761H16.5894C17.5153 23.5761 18.6507 23.631 19.5407 23.555C21.2452 23.4094 22.4729 22.3907 23.0932 21.2108C23.5023 20.4325 23.6016 19.8099 23.6016 18.7851V5.55043C23.6014 4.12601 23.6886 3.19366 22.8108 1.91083C22.4448 1.37593 21.8773 0.844507 21.2532 0.523969C20.478 0.125961 19.8507 0.00689425 18.8245 0.00700636H5.54576C5.08041 0.00700636 4.52492 -0.0185559 4.07776 0.0279719H4.07754Z" fill="white"/>
<path fill-rule="evenodd" clip-rule="evenodd" d="M18.0355 11.7837H14.3474V8.83429C14.3474 8.02025 15.0083 8.09693 15.8227 8.09693H17.2979V4.41016H14.3474C13.1736 4.41016 12.0479 4.87627 11.2179 5.70595C10.388 6.53564 9.92168 7.66093 9.92168 8.83429V11.7837H6.97119V15.4705H9.92168V23.5814H14.3474V15.4705H16.5603L18.0355 11.7837Z" fill="#C48312"/>
<path d="M41.604 9.024C41.0154 9.024 40.44 9.19854 39.9506 9.52555C39.4612 9.85255 39.0798 10.3173 38.8545 10.8611C38.6293 11.4049 38.5704 12.0033 38.6852 12.5806C38.8 13.1579 39.0835 13.6881 39.4997 14.1043C39.9159 14.5205 40.4461 14.804 41.0234 14.9188C41.6007 15.0336 42.1991 14.9747 42.7429 14.7495C43.2867 14.5242 43.7515 14.1428 44.0785 13.6534C44.4055 13.164 44.58 12.5886 44.58 12C44.58 11.6092 44.503 11.2222 44.3535 10.8611C44.2039 10.5001 43.9847 10.172 43.7084 9.89565C43.432 9.6193 43.1039 9.40009 42.7429 9.25053C42.3818 9.10098 41.9948 9.024 41.604 9.024ZM53.52 6.084C53.5137 5.15731 53.343 4.23909 53.016 3.372C52.7751 2.73751 52.4025 2.16131 51.9226 1.68142C51.4427 1.20153 50.8665 0.828861 50.232 0.588C49.3649 0.260957 48.4467 0.0903131 47.52 0.0839999C45.972 -7.91418e-08 45.516 0 41.604 0C37.692 0 37.236 -7.91418e-08 35.688 0.0839999C34.7613 0.0903131 33.8431 0.260957 32.976 0.588C32.3415 0.828861 31.7653 1.20153 31.2854 1.68142C30.8055 2.16131 30.4329 2.73751 30.192 3.372C29.865 4.23909 29.6943 5.15731 29.688 6.084C29.604 7.632 29.604 8.088 29.604 12C29.604 15.912 29.604 16.368 29.688 17.916C29.7009 18.846 29.8713 19.767 30.192 20.64C30.4318 21.2716 30.8042 21.8444 31.284 22.32C31.7618 22.8028 32.3393 23.1754 32.976 23.412C33.8431 23.739 34.7613 23.9097 35.688 23.916C37.236 24 37.692 24 41.604 24C45.516 24 45.972 24 47.52 23.916C48.4467 23.9097 49.3649 23.739 50.232 23.412C50.8687 23.1754 51.4462 22.8028 51.924 22.32C52.4039 21.8444 52.7762 21.2716 53.016 20.64C53.3427 19.7687 53.5133 18.8466 53.52 17.916C53.604 16.368 53.604 15.912 53.604 12C53.604 8.088 53.604 7.632 53.52 6.084ZM50.472 15.684C50.4335 16.4245 50.2755 17.1539 50.004 17.844C49.771 18.4196 49.4247 18.9425 48.9856 19.3816C48.5465 19.8207 48.0236 20.167 47.448 20.4C46.7514 20.6563 46.0179 20.7981 45.276 20.82C44.328 20.82 44.076 20.82 41.604 20.82C39.132 20.82 38.88 20.82 37.932 20.82C37.1901 20.7981 36.4566 20.6563 35.76 20.4C35.1649 20.1789 34.6275 19.8261 34.188 19.368C33.7532 18.9375 33.4174 18.4174 33.204 17.844C32.9467 17.1481 32.8087 16.4138 32.796 15.672C32.796 14.724 32.796 14.472 32.796 12C32.796 9.528 32.796 9.276 32.796 8.328C32.8087 7.58619 32.9467 6.85186 33.204 6.156C33.4251 5.56092 33.7779 5.02353 34.236 4.584C34.6684 4.15155 35.1879 3.81611 35.76 3.6C36.4566 3.34369 37.1901 3.20185 37.932 3.18C38.88 3.18 39.132 3.18 41.604 3.18C44.076 3.18 44.328 3.18 45.276 3.18C46.0179 3.20185 46.7514 3.34369 47.448 3.6C48.0431 3.82114 48.5805 4.17393 49.02 4.632C49.4548 5.0625 49.7906 5.58256 50.004 6.156C50.2603 6.85259 50.4022 7.58608 50.424 8.328C50.424 9.276 50.424 9.528 50.424 12C50.424 14.472 50.508 14.724 50.472 15.672V15.684ZM48.552 6.756C48.4091 6.36838 48.1839 6.01637 47.8917 5.72426C47.5996 5.43214 47.2476 5.20688 46.86 5.064C46.3278 4.87951 45.7672 4.79015 45.204 4.8C44.268 4.8 44.004 4.8 41.604 4.8C39.204 4.8 38.94 4.8 38.004 4.8C37.4379 4.80553 36.8773 4.91116 36.348 5.112C35.9663 5.24839 35.618 5.46445 35.3263 5.74584C35.0346 6.02723 34.8061 6.36749 34.656 6.744C34.4817 7.27844 34.3966 7.83791 34.404 8.4C34.404 9.336 34.404 9.6 34.404 12C34.404 14.4 34.404 14.664 34.404 15.6C34.4159 16.1654 34.5213 16.725 34.716 17.256C34.8589 17.6436 35.0841 17.9956 35.3763 18.2877C35.6684 18.5799 36.0204 18.8051 36.408 18.948C36.92 19.1363 37.4588 19.2416 38.004 19.26C38.94 19.26 39.204 19.26 41.604 19.26C44.004 19.26 44.268 19.26 45.204 19.26C45.7701 19.2545 46.3307 19.1488 46.86 18.948C47.2476 18.8051 47.5996 18.5799 47.8917 18.2877C48.1839 17.9956 48.4091 17.6436 48.552 17.256C48.7528 16.7267 48.8585 16.1661 48.864 15.6C48.864 14.664 48.864 14.4 48.864 12C48.864 9.6 48.864 9.336 48.864 8.4C48.8644 7.83336 48.7585 7.27167 48.552 6.744V6.756ZM41.604 16.584C41.0026 16.584 40.4071 16.4653 39.8516 16.2348C39.2961 16.0043 38.7916 15.6665 38.3669 15.2407C37.9422 14.8148 37.6056 14.3094 37.3766 13.7533C37.1475 13.1972 37.0304 12.6014 37.032 12C37.032 11.0929 37.3012 10.2061 37.8054 9.45202C38.3096 8.69793 39.0263 8.1104 39.8646 7.7638C40.7029 7.4172 41.6252 7.32713 42.5147 7.50498C43.4043 7.68283 44.221 8.1206 44.8616 8.76289C45.5022 9.40517 45.9379 10.2231 46.1134 11.1131C46.2889 12.0031 46.1964 12.9251 45.8476 13.7626C45.4988 14.6 44.9094 15.315 44.154 15.8173C43.3986 16.3195 42.5111 16.5864 41.604 16.584ZM46.404 8.316C46.1387 8.28792 45.8932 8.16266 45.7148 7.96436C45.5364 7.76606 45.4377 7.50875 45.4377 7.242C45.4377 6.97525 45.5364 6.71794 45.7148 6.51964C45.8932 6.32134 46.1387 6.19608 46.404 6.168C46.6693 6.19608 46.9148 6.32134 47.0932 6.51964C47.2716 6.71794 47.3703 6.97525 47.3703 7.242C47.3703 7.50875 47.2716 7.76606 47.0932 7.96436C46.9148 8.16266 46.6693 8.28792 46.404 8.316Z" fill="white"/>
<path fill-rule="evenodd" clip-rule="evenodd" d="M63.6815 0.0279719C62.8129 0.118449 62.1167 0.371717 61.5029 0.804594C60.9491 1.1952 60.4465 1.731 60.122 2.36725C59.7174 3.16058 59.61 3.75109 59.6101 4.78894V18.0236C59.6101 18.4991 59.5889 19.0335 59.6257 19.4949C59.7621 21.204 60.7983 22.44 61.9521 23.0555C62.7182 23.4643 63.3921 23.5762 64.3871 23.5761H76.1934C77.1193 23.5761 78.2547 23.631 79.1447 23.555C80.8492 23.4094 82.0769 22.3907 82.6972 21.2108C83.1063 20.4325 83.2056 19.8099 83.2056 18.7851V5.55043C83.2055 4.12601 83.2926 3.19366 82.4148 1.91083C82.0488 1.37593 81.4813 0.844507 80.8572 0.523969C80.082 0.125961 79.4547 0.00689425 78.4285 0.00700636H65.1498C64.6844 0.00700636 64.1289 -0.0185559 63.6818 0.0279719H63.6815Z" fill="white"/>
<path fill-rule="evenodd" clip-rule="evenodd" d="M69.5991 13.0692C63.3911 19.8487 67.34 15.5309 63.3911 19.8487C64.2065 19.8504 64.1558 19.856 64.7702 19.8722C65.7737 18.7398 64.7702 19.8722 70.252 13.9365C74.6739 19.851 70.252 13.9365 74.6739 19.851L79.4418 19.8448C73.2819 11.5561 73.3579 11.6615 72.9231 11.0772C78.3443 5.11179 72.9231 11.0772 78.7016 4.71875C78.403 4.78926 77.6922 4.73991 77.3398 4.74823C75.6331 6.55542 73.9691 8.356 72.2848 10.1789C70.3728 7.63094 70.4284 7.73222 68.2609 4.80081C65.7498 4.73524 66.1387 4.73927 63.4306 4.72031C66.465 8.92667 66.353 8.70282 69.5993 13.0693L69.5991 13.0692ZM65.4448 5.7744C66.176 5.77284 66.9074 5.77128 67.6386 5.76985C70.8884 10.1202 74.1382 14.4707 77.388 18.8211C76.6496 18.8129 75.9112 18.8048 75.1727 18.7967C71.93 14.4559 68.6874 10.1152 65.4446 5.7744H65.4448Z" fill="#C48312"/>
<path fill-rule="evenodd" clip-rule="evenodd" d="M93.2855 0.0279719C92.4169 0.118449 91.7207 0.371717 91.1069 0.804594C90.5531 1.1952 90.0505 1.731 89.726 2.36725C89.3214 3.16058 89.214 3.75109 89.2141 4.78894V18.0236C89.2141 18.4991 89.1929 19.0335 89.2297 19.4949C89.3661 21.204 90.4023 22.44 91.5561 23.0555C92.3222 23.4643 92.9961 23.5762 93.9911 23.5761H105.797C106.723 23.5761 107.859 23.631 108.749 23.555C110.453 23.4094 111.681 22.3907 112.301 21.2108C112.71 20.4325 112.81 19.8099 112.81 18.7851V5.55043C112.809 4.12601 112.897 3.19366 112.019 1.91083C111.653 1.37593 111.085 0.844507 110.461 0.523969C109.686 0.125961 109.059 0.00689425 108.033 0.00700636H94.7538C94.2884 0.00700636 93.7329 -0.0185559 93.2858 0.0279719H93.2855Z" fill="white"/>
<path d="M105.715 7.8319C105.613 7.77609 105.513 7.7149 105.416 7.64858C105.134 7.45274 104.876 7.22199 104.647 6.9613C104.074 6.27102 103.859 5.57074 103.78 5.08044H103.784C103.718 4.67347 103.745 4.41016 103.749 4.41016H101.137V15.0354C101.137 15.178 101.137 15.319 101.132 15.4583C101.132 15.4757 101.13 15.4917 101.129 15.5103C101.129 15.518 101.129 15.526 101.127 15.534C101.127 15.536 101.127 15.538 101.127 15.54C101.1 15.9212 100.984 16.2895 100.789 16.6124C100.595 16.9353 100.328 17.203 100.012 17.3918C99.6823 17.5889 99.3098 17.6923 98.9309 17.6918C97.714 17.6918 96.7278 16.6479 96.7278 15.3587C96.7278 14.0694 97.714 13.0255 98.9309 13.0255C99.1613 13.0253 99.3902 13.0634 99.6092 13.1385L99.6124 10.3407C98.9475 10.2504 98.272 10.3059 97.6286 10.504C96.9852 10.702 96.3877 11.0382 95.874 11.4913C95.4238 11.9028 95.0453 12.3938 94.7556 12.9422C94.6453 13.1422 94.2294 13.9458 94.179 15.25C94.1473 15.9903 94.3586 16.7572 94.4594 17.0742V17.0809C94.5227 17.2675 94.7683 17.9045 95.1684 18.4414C95.4911 18.8722 95.8723 19.2505 96.2998 19.5643V19.5577L96.3061 19.5643C97.5705 20.4683 98.9724 20.4089 98.9724 20.4089C99.2151 20.3986 100.028 20.4089 100.951 19.9486C101.975 19.4384 102.558 18.6781 102.558 18.6781C102.931 18.2238 103.227 17.7061 103.434 17.1472C103.67 16.4936 103.749 15.7096 103.749 15.3963V9.75942C103.781 9.77942 104.203 10.0731 104.203 10.0731C104.203 10.0731 104.811 10.483 105.759 10.75C106.44 10.94 107.357 10.98 107.357 10.98V8.2522C107.035 8.28886 106.383 8.1822 105.715 7.8319Z" fill="#C48312"/>
<path fill-rule="evenodd" clip-rule="evenodd" d="M122.889 0.0279719C122.02 0.118449 121.324 0.371717 120.71 0.804594C120.157 1.1952 119.654 1.731 119.33 2.36725C118.925 3.16058 118.817 3.75109 118.818 4.78894V18.0236C118.818 18.4991 118.796 19.0335 118.833 19.4949C118.97 21.204 120.006 22.44 121.16 23.0555C121.926 23.4643 122.6 23.5762 123.595 23.5761H135.401C136.327 23.5761 137.462 23.631 138.352 23.555C140.057 23.4094 141.284 22.3907 141.905 21.2108C142.314 20.4325 142.413 19.8099 142.413 18.7851V5.55043C142.413 4.12601 142.5 3.19366 141.622 1.91083C141.256 1.37593 140.689 0.844507 140.065 0.523969C139.289 0.125961 138.662 0.00689425 137.636 0.00700636H124.357C123.892 0.00700636 123.336 -0.0185559 122.889 0.0279719H122.889Z" fill="white"/>
<path d="M132.971 11.443C131.672 10.7478 130.429 10.1087 129.158 9.44141V13.4332C130.496 12.7048 131.905 12.0378 132.977 11.443H132.971Z" fill="white"/>
<path d="M132.971 11.443C131.672 10.7478 129.158 9.44141 129.158 9.44141L132.51 11.6985C132.511 11.6985 131.9 12.0378 132.971 11.443Z" fill="white"/>
<path d="M129.397 16.573C126.7 16.5233 125.779 16.4785 125.213 16.3616C124.829 16.284 124.497 16.1116 124.252 15.8615C124.064 15.6723 123.914 15.3835 123.797 14.9829C123.698 14.6491 123.659 14.3714 123.603 13.6931C123.518 12.1622 123.498 10.9106 123.603 9.51207C123.69 8.73977 123.732 7.82297 124.308 7.2881C124.58 7.03778 124.896 6.87668 125.251 6.81009C125.806 6.70454 128.171 6.62109 130.618 6.62109C133.06 6.62109 135.43 6.70454 135.985 6.81009C136.429 6.89353 136.845 7.14359 137.089 7.46604C137.615 8.29414 137.624 9.32386 137.678 10.1293C137.7 10.5131 137.7 12.6923 137.678 13.0761C137.594 14.349 137.528 14.7994 137.339 15.2664C137.222 15.5612 137.123 15.7167 136.95 15.8892C136.68 16.1545 136.336 16.331 135.963 16.3951C133.629 16.5709 131.647 16.6091 129.397 16.573ZM132.971 11.4581C131.673 10.7629 130.429 10.1183 129.159 9.451V13.443C130.496 12.7147 131.906 12.0474 132.977 11.4525L132.971 11.4581Z" fill="#C48312"/>
<g clip-path="url(#clip0_1041_2296)">
<path fill-rule="evenodd" clip-rule="evenodd" d="M152.567 0.0245453C151.684 0.116574 150.976 0.374185 150.352 0.814485C149.789 1.21179 149.278 1.75678 148.948 2.40394C148.537 3.21088 148.427 3.81151 148.428 4.86716V18.3288C148.428 18.8124 148.406 19.356 148.443 19.8253C148.582 21.5637 149.636 22.8209 150.809 23.447C151.588 23.8628 152.273 23.9766 153.285 23.9765H165.289C166.231 23.9765 167.385 24.0324 168.29 23.955C170.023 23.8069 171.271 22.7708 171.902 21.5706C172.318 20.779 172.419 20.1457 172.419 19.1033V5.64171C172.419 4.19286 172.507 3.24452 171.615 1.9397C171.243 1.39562 170.666 0.855083 170.031 0.529049C169.243 0.124214 168.605 0.00310623 167.562 0.00322027H154.06C153.587 0.00322027 153.022 -0.0227804 152.568 0.0245453H152.567Z" fill="white"/>
<path fill-rule="evenodd" clip-rule="evenodd" d="M158.053 6.83701C157.324 6.92425 157.051 6.90098 156.183 7.04182C155.778 7.10773 154.828 7.24287 154.567 7.50527C154.167 7.90805 154.204 8.60915 154.698 8.89699C154.966 9.05299 155.268 8.9954 155.559 8.92641C157.016 8.58065 158.819 8.43046 160.321 8.58954C162.197 8.78831 163.6 9.12974 165.256 9.86186C165.779 10.0932 166.249 10.4668 166.745 9.94876C167.133 9.54313 167.129 8.89813 166.597 8.59935C166.196 8.37435 165.622 8.13578 165.157 7.95583C164.179 7.57711 163.054 7.23511 161.917 7.05334C160.833 6.88023 159.19 6.70096 158.053 6.83701Z" fill="#C48312"/>
<path fill-rule="evenodd" clip-rule="evenodd" d="M158.074 10.4241C157.415 10.4987 157.161 10.4887 156.448 10.628C156.199 10.6767 155.945 10.7292 155.707 10.7899C155.391 10.8703 155.258 10.8699 155.083 11.0803C154.779 11.4466 154.727 12.061 155.096 12.3752C155.296 12.5447 155.55 12.5698 155.818 12.5008C156.081 12.4328 156.303 12.3754 156.569 12.3222C158.644 11.9064 161.12 12.0372 162.993 12.7165C163.455 12.8842 163.863 13.0417 164.288 13.2352C164.774 13.4564 165.111 13.8049 165.514 13.274C166.366 12.1514 165.303 11.8372 164.306 11.4263C162.536 10.6976 160.023 10.2034 158.073 10.4241H158.074Z" fill="#C48312"/>
<path fill-rule="evenodd" clip-rule="evenodd" d="M158.54 13.7821C157.435 13.876 156.928 13.8993 155.827 14.23C155.592 14.3006 155.517 14.3896 155.423 14.6033C155.342 14.7861 155.279 15.0474 155.315 15.2932C155.346 15.5078 155.489 15.6632 155.647 15.7384C155.901 15.8587 156.076 15.7788 156.294 15.717C158.468 15.1019 160.935 15.2371 162.988 16.1785C163.241 16.2947 163.837 16.6515 164.135 16.6142C164.591 16.5571 164.728 16.0748 164.605 15.5769C164.487 15.1051 164.164 15.035 163.764 14.8384C162.472 14.2037 160.309 13.6317 158.54 13.7821Z" fill="#C48312"/>
</g>
<defs>
<clipPath id="clip0_1041_2296">
<rect width="24" height="24" fill="white" transform="translate(148.416)"/>
</clipPath>
</defs>
</svg>
