<svg width="21" height="21" viewBox="0 0 21 21" fill="none" xmlns="http://www.w3.org/2000/svg">
<path d="M2.39 15.3211V17.4986C2.39 18.1141 2.64917 18.6983 3.10026 19.1243C3.55037 19.5494 4.15506 19.7836 4.78 19.7836H18.955C19.3293 19.7836 19.6936 19.6434 19.9665 19.3857C20.2404 19.127 20.4 18.7699 20.4 18.3911V2.32609C20.4 1.94726 20.2404 1.59015 19.9665 1.33149C19.6936 1.07376 19.3293 0.933594 18.955 0.933594H4.78C4.15506 0.933594 3.55037 1.16779 3.10026 1.5929C2.64917 2.01893 2.39 2.60305 2.39 3.21859V5.39609H1H0.5V5.89609V7.68109V8.18109H1H2.39V8.96609H1H0.5V9.46609V11.2511V11.7511H1H2.39V12.5361H1H0.5V13.0361V14.8211V15.3211H1H2.39ZM11.395 4.6102C12.7034 4.6102 13.7296 5.61836 13.73 6.78701C13.728 7.35472 13.4886 7.90482 13.0539 8.31551C12.6182 8.72714 12.022 8.96394 11.3942 8.96609C10.0871 8.96568 9.06 7.95572 9.06 6.7877C9.06 5.61886 10.0872 4.6102 11.395 4.6102ZM6.225 15.2136V15.0442C6.225 14.2696 6.73475 13.3979 7.68864 12.6962C8.63061 12.0032 9.94418 11.528 11.395 11.528C12.8458 11.528 14.1594 12.0032 15.1014 12.6962C16.0553 13.3979 16.565 14.2696 16.565 15.0442V15.2136H6.225Z" fill="#F4AA3D" stroke="black"/>
</svg>
