<svg width="179" height="183" viewBox="0 0 179 183" fill="none" xmlns="http://www.w3.org/2000/svg">
<rect x="1.5" y="14.0234" width="176" height="166.606" rx="31.5" fill="#F4AA3D" stroke="black" stroke-width="3"/>
<path d="M3 68.0371H1.5V69.5371V149.13C1.5 166.527 15.603 180.63 33 180.63H146C163.397 180.63 177.5 166.527 177.5 149.13V69.5371V68.0371H176H3Z" fill="#FBFBFB" stroke="black" stroke-width="3"/>
<path d="M45.3485 134.08C37.5618 134.08 33.6685 129.28 33.6685 119.68C33.6685 110.08 37.5618 105.28 45.3485 105.28C53.1618 105.28 57.0685 110.08 57.0685 119.68C57.0685 129.28 53.1618 134.08 45.3485 134.08ZM45.3485 131.8C46.9218 131.8 48.0552 130.76 48.7485 128.68C49.4418 126.573 49.7885 123.573 49.7885 119.68C49.7885 115.813 49.4418 112.826 48.7485 110.72C48.0552 108.613 46.9218 107.56 45.3485 107.56C43.7752 107.56 42.6418 108.613 41.9485 110.72C41.2818 112.826 40.9485 115.813 40.9485 119.68C40.9485 123.573 41.2818 126.573 41.9485 128.68C42.6418 130.76 43.7752 131.8 45.3485 131.8ZM69.4497 134.08C67.3964 134.08 65.6097 133.826 64.0897 133.32C62.5697 132.813 61.1564 132.013 59.8497 130.92L61.0497 129.08C62.0097 129.933 63.1164 130.6 64.3697 131.08C65.6497 131.56 66.8897 131.8 68.0897 131.8C69.8497 131.8 71.2631 131.226 72.3297 130.08C73.3964 128.933 73.9297 127.213 73.9297 124.92C73.9297 122.893 73.5697 121.253 72.8497 120C72.1297 118.72 70.8231 118.08 68.9297 118.08C66.5831 118.08 64.6764 119.2 63.2097 121.44L61.1297 121.04L63.1297 105.68H79.8497L79.5697 110H65.1297L64.0097 118.16C65.8497 116.613 68.2097 115.84 71.0897 115.84C74.7164 115.84 77.3031 116.693 78.8497 118.4C80.4231 120.08 81.2097 122.24 81.2097 124.88C81.2097 127.733 80.1831 129.986 78.1297 131.64C76.0764 133.266 73.1831 134.08 69.4497 134.08ZM89.471 120.92C88.4043 120.92 87.5377 120.586 86.871 119.92C86.231 119.226 85.911 118.373 85.911 117.36C85.911 116.346 86.231 115.506 86.871 114.84C87.5377 114.146 88.4043 113.8 89.471 113.8C90.5377 113.8 91.391 114.146 92.031 114.84C92.6977 115.506 93.031 116.346 93.031 117.36C93.031 118.373 92.6977 119.226 92.031 119.92C91.391 120.586 90.5377 120.92 89.471 120.92ZM89.471 134.08C88.4043 134.08 87.5377 133.746 86.871 133.08C86.231 132.386 85.911 131.533 85.911 130.52C85.911 129.506 86.231 128.666 86.871 128C87.5377 127.306 88.4043 126.96 89.471 126.96C90.5377 126.96 91.391 127.306 92.031 128C92.6977 128.666 93.031 129.506 93.031 130.52C93.031 131.533 92.6977 132.386 92.031 133.08C91.391 133.746 90.5377 134.08 89.471 134.08ZM107.848 134.08C100.062 134.08 96.1685 129.28 96.1685 119.68C96.1685 110.08 100.062 105.28 107.848 105.28C115.662 105.28 119.568 110.08 119.568 119.68C119.568 129.28 115.662 134.08 107.848 134.08ZM107.848 131.8C109.422 131.8 110.555 130.76 111.248 128.68C111.942 126.573 112.288 123.573 112.288 119.68C112.288 115.813 111.942 112.826 111.248 110.72C110.555 108.613 109.422 107.56 107.848 107.56C106.275 107.56 105.142 108.613 104.448 110.72C103.782 112.826 103.448 115.813 103.448 119.68C103.448 123.573 103.782 126.573 104.448 128.68C105.142 130.76 106.275 131.8 107.848 131.8ZM133.63 134.08C125.843 134.08 121.95 129.28 121.95 119.68C121.95 110.08 125.843 105.28 133.63 105.28C141.443 105.28 145.35 110.08 145.35 119.68C145.35 129.28 141.443 134.08 133.63 134.08ZM133.63 131.8C135.203 131.8 136.336 130.76 137.03 128.68C137.723 126.573 138.07 123.573 138.07 119.68C138.07 115.813 137.723 112.826 137.03 110.72C136.336 108.613 135.203 107.56 133.63 107.56C132.056 107.56 130.923 108.613 130.23 110.72C129.563 112.826 129.23 115.813 129.23 119.68C129.23 123.573 129.563 126.573 130.23 128.68C130.923 130.76 132.056 131.8 133.63 131.8Z" fill="#15575B"/>
<rect x="41.4238" y="3.06641" width="20.2217" height="30.3982" rx="10.1109" fill="white" stroke="black" stroke-width="3"/>
<rect x="115.789" y="1.5" width="20.2217" height="30.3982" rx="10.1109" fill="white" stroke="black" stroke-width="3"/>
</svg>
