<svg width="179" height="183" viewBox="0 0 179 183" fill="none" xmlns="http://www.w3.org/2000/svg">
<rect x="1.5" y="-1.5" width="176" height="166.606" rx="31.5" transform="matrix(-1 0 0 1 179 15.5234)" fill="#15575B" stroke="black" stroke-width="3"/>
<path d="M176 68.0371H177.5V69.5371V149.13C177.5 166.527 163.397 180.63 146 180.63H33C15.603 180.63 1.5 166.527 1.5 149.13V69.5371V68.0371H3H176Z" fill="#FBFBFB" stroke="black" stroke-width="3"/>
<path d="M37.2285 132.52C39.9218 131.986 41.6418 131.706 42.3885 131.68V109.08L37.1485 111.32V108.44L49.5485 103.52V131.72C51.2018 131.88 52.9085 132.133 54.6685 132.48V133.68H37.2285V132.52ZM69.2097 134.08C66.8897 134.08 65.1297 133.8 63.9297 133.24C62.7297 132.68 61.6897 131.92 60.8097 130.96L62.0097 129.12C62.7564 129.973 63.6231 130.64 64.6097 131.12C65.6231 131.573 66.8497 131.8 68.2897 131.8C69.9964 131.8 71.5431 131.04 72.9297 129.52C74.3164 128 75.1297 125.386 75.3697 121.68C74.9964 122.506 74.3031 123.2 73.2897 123.76C72.2764 124.293 71.1697 124.56 69.9697 124.56C66.5297 124.56 63.9697 123.693 62.2897 121.96C60.6364 120.226 59.8097 117.946 59.8097 115.12C59.8097 113.2 60.2497 111.506 61.1297 110.04C62.0097 108.546 63.2897 107.386 64.9697 106.56C66.6764 105.706 68.7164 105.28 71.0897 105.28C78.6897 105.28 82.4897 109.533 82.4897 118.04C82.4897 123.426 81.3431 127.453 79.0497 130.12C76.7564 132.76 73.4764 134.08 69.2097 134.08ZM71.0097 122.16C72.1831 122.16 73.1297 121.48 73.8497 120.12C74.5964 118.733 74.9697 117.013 74.9697 114.96C74.9697 112.986 74.6097 111.266 73.8897 109.8C73.1697 108.306 72.1964 107.56 70.9697 107.56C69.6897 107.56 68.6897 108.24 67.9697 109.6C67.2764 110.96 66.9297 112.68 66.9297 114.76C66.9297 116.866 67.2897 118.626 68.0097 120.04C68.7297 121.453 69.7297 122.16 71.0097 122.16ZM89.471 120.92C88.4043 120.92 87.5377 120.586 86.871 119.92C86.231 119.226 85.911 118.373 85.911 117.36C85.911 116.346 86.231 115.506 86.871 114.84C87.5377 114.146 88.4043 113.8 89.471 113.8C90.5377 113.8 91.391 114.146 92.031 114.84C92.6977 115.506 93.031 116.346 93.031 117.36C93.031 118.373 92.6977 119.226 92.031 119.92C91.391 120.586 90.5377 120.92 89.471 120.92ZM89.471 134.08C88.4043 134.08 87.5377 133.746 86.871 133.08C86.231 132.386 85.911 131.533 85.911 130.52C85.911 129.506 86.231 128.666 86.871 128C87.5377 127.306 88.4043 126.96 89.471 126.96C90.5377 126.96 91.391 127.306 92.031 128C92.6977 128.666 93.031 129.506 93.031 130.52C93.031 131.533 92.6977 132.386 92.031 133.08C91.391 133.746 90.5377 134.08 89.471 134.08ZM107.848 134.08C100.062 134.08 96.1685 129.28 96.1685 119.68C96.1685 110.08 100.062 105.28 107.848 105.28C115.662 105.28 119.568 110.08 119.568 119.68C119.568 129.28 115.662 134.08 107.848 134.08ZM107.848 131.8C109.422 131.8 110.555 130.76 111.248 128.68C111.942 126.573 112.288 123.573 112.288 119.68C112.288 115.813 111.942 112.826 111.248 110.72C110.555 108.613 109.422 107.56 107.848 107.56C106.275 107.56 105.142 108.613 104.448 110.72C103.782 112.826 103.448 115.813 103.448 119.68C103.448 123.573 103.782 126.573 104.448 128.68C105.142 130.76 106.275 131.8 107.848 131.8ZM133.63 134.08C125.843 134.08 121.95 129.28 121.95 119.68C121.95 110.08 125.843 105.28 133.63 105.28C141.443 105.28 145.35 110.08 145.35 119.68C145.35 129.28 141.443 134.08 133.63 134.08ZM133.63 131.8C135.203 131.8 136.336 130.76 137.03 128.68C137.723 126.573 138.07 123.573 138.07 119.68C138.07 115.813 137.723 112.826 137.03 110.72C136.336 108.613 135.203 107.56 133.63 107.56C132.056 107.56 130.923 108.613 130.23 110.72C129.563 112.826 129.23 115.813 129.23 119.68C129.23 123.573 129.563 126.573 130.23 128.68C130.923 130.76 132.056 131.8 133.63 131.8Z" fill="#F4AA3D"/>
<rect x="1.5" y="-1.5" width="20.2217" height="30.3982" rx="10.1109" transform="matrix(-1 0 0 1 139.076 4.56641)" fill="white" stroke="black" stroke-width="3"/>
<rect x="1.5" y="-1.5" width="20.2217" height="30.3982" rx="10.1109" transform="matrix(-1 0 0 1 64.7109 3)" fill="white" stroke="black" stroke-width="3"/>
</svg>
