<svg width="24" height="24" viewBox="0 0 24 24" fill="none" xmlns="http://www.w3.org/2000/svg">
<path fill-rule="evenodd" clip-rule="evenodd" d="M4.07754 0.0279719C3.20893 0.118449 2.51265 0.371717 1.89889 0.804594C1.34508 1.1952 0.842467 1.731 0.518017 2.36725C0.113409 3.16058 0.00597028 3.75109 0.00608255 4.78894V18.0236C0.00608255 18.4991 -0.0151358 19.0335 0.0216876 19.4949C0.158091 21.204 1.19431 22.44 2.34807 23.0555C3.11418 23.4643 3.78811 23.5762 4.78313 23.5761H16.5894C17.5153 23.5761 18.6507 23.631 19.5407 23.555C21.2452 23.4094 22.4729 22.3907 23.0932 21.2108C23.5023 20.4325 23.6016 19.8099 23.6016 18.7851V5.55043C23.6014 4.12601 23.6886 3.19366 22.8108 1.91083C22.4448 1.37593 21.8773 0.844507 21.2532 0.523969C20.478 0.125961 19.8507 0.00689425 18.8245 0.00700636H5.54576C5.08041 0.00700636 4.52492 -0.0185559 4.07776 0.0279719H4.07754Z" fill="white"/>
<path fill-rule="evenodd" clip-rule="evenodd" d="M18.0355 11.7818H14.3474V8.83233C14.3474 8.01829 15.0083 8.09498 15.8227 8.09498H17.2979V4.4082H14.3474C13.1736 4.4082 12.0479 4.87432 11.2179 5.704C10.388 6.53369 9.92168 7.65898 9.92168 8.83233V11.7818H6.97119V15.4685H9.92168V23.5794H14.3474V15.4685H16.5603L18.0355 11.7818Z" fill="#C48312"/>
</svg>
