<svg width="7" height="7" viewBox="0 0 7 7" fill="none" xmlns="http://www.w3.org/2000/svg">
<path fill-rule="evenodd" clip-rule="evenodd" d="M5.62499 3.68706C5.83121 3.47758 5.94578 3.19476 5.94348 2.90081C5.94119 2.60687 5.82221 2.32587 5.61274 2.11964C5.50901 2.01753 5.38619 1.93685 5.25129 1.8822C5.11638 1.82755 4.97204 1.80001 4.82649 1.80115C4.53254 1.80344 4.25155 1.92242 4.04532 2.13189C3.98932 2.18789 3.91815 2.25663 3.83182 2.3381L3.59178 2.56414L3.35174 2.3381C3.26521 2.25643 3.19394 2.1877 3.13794 2.13189C2.93009 1.92404 2.64818 1.80727 2.35424 1.80727C2.06029 1.80727 1.77838 1.92404 1.57053 2.13189C1.14236 2.56035 1.1374 3.25306 1.55478 3.68356L3.59178 5.72056L5.62499 3.68706ZM1.3229 1.88456C1.45833 1.7491 1.61911 1.64165 1.79607 1.56833C1.97303 1.49502 2.16269 1.45729 2.35424 1.45729C2.54578 1.45729 2.73545 1.49502 2.9124 1.56833C3.08936 1.64165 3.25015 1.7491 3.38557 1.88456C3.43865 1.93784 3.50739 2.00414 3.59178 2.08348C3.67578 2.00414 3.74451 1.93774 3.79799 1.88427C4.06939 1.60869 4.43914 1.45222 4.82591 1.44926C5.21268 1.44631 5.58478 1.59712 5.86036 1.86852C6.13594 2.13992 6.29241 2.50967 6.29537 2.89644C6.29832 3.28321 6.14751 3.65532 5.87611 3.93089L3.79799 6.00931C3.74329 6.06399 3.66912 6.09471 3.59178 6.09471C3.51444 6.09471 3.44026 6.06399 3.38557 6.00931L1.30686 3.9306C1.04029 3.65568 0.892551 3.28693 0.895553 2.904C0.898554 2.52107 1.05205 2.15469 1.3229 1.88398V1.88456Z" fill="#15575B"/>
</svg>
