<svg width="36" height="36" viewBox="0 0 36 36" fill="none" xmlns="http://www.w3.org/2000/svg">
<path d="M24.7415 5.38477C21.8394 5.38477 19.3595 7.45338 17.997 8.87954C16.6346 7.45338 14.1603 5.38477 11.2595 5.38477C6.25966 5.38477 2.76904 8.86984 2.76904 13.8586C2.76904 19.3555 7.10427 22.9085 11.2983 26.3451C13.2783 27.9692 15.3275 29.6474 16.899 31.5083C17.1635 31.8198 17.5512 31.9998 17.9583 31.9998H18.0386C18.447 31.9998 18.8334 31.8185 19.0964 31.5083C20.6707 29.6474 22.7186 27.9678 24.7 26.3451C28.8926 22.9098 33.2306 19.3569 33.2306 13.8586C33.2306 8.86984 29.74 5.38477 24.7415 5.38477Z" fill="#15575B"/>
</svg>
