<svg width="179" height="183" viewBox="0 0 179 183" fill="none" xmlns="http://www.w3.org/2000/svg">
<rect x="1.5" y="14.0234" width="176" height="166.606" rx="31.5" fill="#F4AA3D" stroke="black" stroke-width="3"/>
<path d="M3 68.0371H1.5V69.5371V149.13C1.5 166.527 15.603 180.63 33 180.63H146C163.397 180.63 177.5 166.527 177.5 149.13V69.5371V68.0371H176H3Z" fill="#FBFBFB" stroke="black" stroke-width="3"/>
<path d="M45.3485 116.08C37.5618 116.08 33.6685 111.28 33.6685 101.68C33.6685 92.0797 37.5618 87.2797 45.3485 87.2797C53.1618 87.2797 57.0685 92.0797 57.0685 101.68C57.0685 111.28 53.1618 116.08 45.3485 116.08ZM45.3485 113.8C46.9218 113.8 48.0552 112.76 48.7485 110.68C49.4418 108.573 49.7885 105.573 49.7885 101.68C49.7885 97.813 49.4418 94.8264 48.7485 92.7197C48.0552 90.613 46.9218 89.5597 45.3485 89.5597C43.7752 89.5597 42.6418 90.613 41.9485 92.7197C41.2818 94.8264 40.9485 97.813 40.9485 101.68C40.9485 105.573 41.2818 108.573 41.9485 110.68C42.6418 112.76 43.7752 113.8 45.3485 113.8ZM69.4497 116.08C67.3964 116.08 65.6097 115.826 64.0897 115.32C62.5697 114.813 61.1564 114.013 59.8497 112.92L61.0497 111.08C62.0097 111.933 63.1164 112.6 64.3697 113.08C65.6497 113.56 66.8897 113.8 68.0897 113.8C69.8497 113.8 71.2631 113.226 72.3297 112.08C73.3964 110.933 73.9297 109.213 73.9297 106.92C73.9297 104.893 73.5697 103.253 72.8497 102C72.1297 100.72 70.8231 100.08 68.9297 100.08C66.5831 100.08 64.6764 101.2 63.2097 103.44L61.1297 103.04L63.1297 87.6797H79.8497L79.5697 91.9997H65.1297L64.0097 100.16C65.8497 98.613 68.2097 97.8397 71.0897 97.8397C74.7164 97.8397 77.3031 98.693 78.8497 100.4C80.4231 102.08 81.2097 104.24 81.2097 106.88C81.2097 109.733 80.1831 111.986 78.1297 113.64C76.0764 115.266 73.1831 116.08 69.4497 116.08ZM89.471 102.92C88.4043 102.92 87.5377 102.586 86.871 101.92C86.231 101.226 85.911 100.373 85.911 99.3597C85.911 98.3464 86.231 97.5064 86.871 96.8397C87.5377 96.1464 88.4043 95.7997 89.471 95.7997C90.5377 95.7997 91.391 96.1464 92.031 96.8397C92.6977 97.5064 93.031 98.3464 93.031 99.3597C93.031 100.373 92.6977 101.226 92.031 101.92C91.391 102.586 90.5377 102.92 89.471 102.92ZM89.471 116.08C88.4043 116.08 87.5377 115.746 86.871 115.08C86.231 114.386 85.911 113.533 85.911 112.52C85.911 111.506 86.231 110.666 86.871 110C87.5377 109.306 88.4043 108.96 89.471 108.96C90.5377 108.96 91.391 109.306 92.031 110C92.6977 110.666 93.031 111.506 93.031 112.52C93.031 113.533 92.6977 114.386 92.031 115.08C91.391 115.746 90.5377 116.08 89.471 116.08ZM107.848 116.08C100.062 116.08 96.1685 111.28 96.1685 101.68C96.1685 92.0797 100.062 87.2797 107.848 87.2797C115.662 87.2797 119.568 92.0797 119.568 101.68C119.568 111.28 115.662 116.08 107.848 116.08ZM107.848 113.8C109.422 113.8 110.555 112.76 111.248 110.68C111.942 108.573 112.288 105.573 112.288 101.68C112.288 97.813 111.942 94.8264 111.248 92.7197C110.555 90.613 109.422 89.5597 107.848 89.5597C106.275 89.5597 105.142 90.613 104.448 92.7197C103.782 94.8264 103.448 97.813 103.448 101.68C103.448 105.573 103.782 108.573 104.448 110.68C105.142 112.76 106.275 113.8 107.848 113.8ZM133.63 116.08C125.843 116.08 121.95 111.28 121.95 101.68C121.95 92.0797 125.843 87.2797 133.63 87.2797C141.443 87.2797 145.35 92.0797 145.35 101.68C145.35 111.28 141.443 116.08 133.63 116.08ZM133.63 113.8C135.203 113.8 136.336 112.76 137.03 110.68C137.723 108.573 138.07 105.573 138.07 101.68C138.07 97.813 137.723 94.8264 137.03 92.7197C136.336 90.613 135.203 89.5597 133.63 89.5597C132.056 89.5597 130.923 90.613 130.23 92.7197C129.563 94.8264 129.23 97.813 129.23 101.68C129.23 105.573 129.563 108.573 130.23 110.68C130.923 112.76 132.056 113.8 133.63 113.8ZM60.5431 136C60.1231 135.92 59.6931 135.8 59.2531 135.64C58.8131 135.46 58.5031 135.34 58.3231 135.28V134.68H68.1631V135.31C67.8431 135.45 67.4131 135.6 66.8731 135.76C66.3331 135.9 65.9331 135.99 65.6731 136.03L68.7331 149.8L73.6531 135.46H75.8131L81.2731 152.11L85.1131 135.76C84.2931 135.64 83.5931 135.49 83.0131 135.31V134.68H89.1931V135.19C88.9531 135.33 88.6531 135.46 88.2931 135.58C87.9331 135.68 87.6231 135.75 87.3631 135.79L82.4131 155.74H77.8231L73.5331 142.9L69.1831 155.74H65.3131L60.5431 136ZM90.4416 155.02C91.3616 154.74 92.1616 154.53 92.8416 154.39V135.97C92.5416 135.91 91.7416 135.69 90.4416 135.31V134.68H100.612V135.37C100.252 135.47 99.4416 135.68 98.1816 136V154.42C98.5216 154.48 99.1116 154.63 99.9516 154.87C100.052 154.91 100.272 154.98 100.612 155.08V155.68H90.4416V155.02ZM101.949 155.11C103.129 154.65 103.929 154.39 104.349 154.33V135.97C103.709 135.85 102.909 135.63 101.949 135.31V134.68H112.149C114.829 134.68 116.749 135.09 117.909 135.91C119.069 136.71 119.649 137.93 119.649 139.57C119.649 140.71 119.329 141.72 118.689 142.6C118.049 143.46 117.099 144.09 115.839 144.49V144.67C117.439 145.05 118.619 145.73 119.379 146.71C120.139 147.67 120.519 148.71 120.519 149.83C120.519 151.79 119.939 153.26 118.779 154.24C117.639 155.2 115.739 155.68 113.079 155.68H101.949V155.11ZM111.279 143.86C112.259 143.86 112.999 143.51 113.499 142.81C114.019 142.09 114.279 141.11 114.279 139.87C114.279 138.65 114.049 137.76 113.589 137.2C113.149 136.62 112.419 136.33 111.399 136.33H109.689V143.86H111.279ZM112.329 154.06C114.229 154.06 115.179 152.58 115.179 149.62C115.179 148.26 114.899 147.23 114.339 146.53C113.779 145.81 112.979 145.45 111.939 145.45H109.689V154.06H112.329Z" fill="#15575B"/>
<rect x="41.4238" y="3.06641" width="20.2217" height="30.3982" rx="10.1109" fill="white" stroke="black" stroke-width="3"/>
<rect x="115.789" y="1.5" width="20.2217" height="30.3982" rx="10.1109" fill="white" stroke="black" stroke-width="3"/>
</svg>
