<svg width="183" height="183" viewBox="0 0 183 183" fill="none" xmlns="http://www.w3.org/2000/svg">
<path d="M60.7492 30.4004H121.447V151.796H60.7492V30.4004Z" fill="#278B91"/>
<path d="M151.796 60.7492V121.447L30.4004 121.447L30.4004 60.7492L151.796 60.7492Z" fill="#278B91"/>
<path d="M121.5 91.0461C121.5 107.807 107.913 121.395 91.1516 121.395C74.3904 121.395 60.8027 107.807 60.8027 91.0461C60.8027 74.2849 74.3904 60.6973 91.1516 60.6973C107.913 60.6973 121.5 74.2849 121.5 91.0461Z" fill="#EFC828"/>
<path d="M121.5 91.0461C121.5 107.807 107.913 121.395 91.1516 121.395C91.1913 104.652 104.757 91.0859 121.5 91.0461Z" fill="#FFE887"/>
<path d="M91.1516 60.6973C91.1516 77.4585 77.5639 91.0461 60.8027 91.0461C60.8424 74.3026 74.4081 60.737 91.1516 60.6973Z" fill="#FFE887"/>
<path d="M91.1516 60.6973C91.1516 77.4581 104.739 91.0455 121.499 91.0461C121.46 74.303 107.895 60.7376 91.1516 60.6973Z" fill="#FFE887"/>
<path d="M91.1516 121.395C74.3904 121.395 60.8027 107.807 60.8027 91.0461C77.5462 91.0859 91.1118 104.652 91.1516 121.395Z" fill="#FFE887"/>
<path d="M60.7484 30.4546C60.7484 13.6358 74.3365 0.00146309 91.0984 0.000817672C91.0587 16.8018 77.4927 30.4141 60.7484 30.4546Z" fill="#FFE887"/>
<path d="M91.0984 60.6985C91.0984 43.995 77.5579 30.454 60.8545 30.4534C60.8941 47.1393 74.4127 60.6583 91.0984 60.6985Z" fill="#FFE887"/>
<path fill-rule="evenodd" clip-rule="evenodd" d="M91.0984 0.000817672L91.0984 60.6985C107.86 60.6985 121.447 47.1106 121.447 30.3494C121.447 13.5882 107.86 0.000816939 91.0984 0.000817672ZM91.0984 0.000817672C107.86 0.000816939 121.447 13.5882 121.447 30.3494C104.704 30.3096 91.1382 16.7442 91.0984 0.000817672ZM121.447 30.3494C104.704 30.3891 91.1382 43.9551 91.0984 60.6985C107.86 60.6985 121.447 47.1106 121.447 30.3494Z" fill="#EFC828"/>
<path fill-rule="evenodd" clip-rule="evenodd" d="M91.0972 0.105142L91.0972 60.8027C74.336 60.8027 60.7484 47.2158 60.7484 30.4546C60.7484 13.6934 74.336 0.105143 91.0972 0.105142ZM91.0972 0.105142C74.336 0.105143 60.7484 13.6934 60.7484 30.4546C77.4918 30.4148 91.0575 16.8486 91.0972 0.105142ZM60.7484 30.4546C77.4918 30.4943 91.0575 44.0593 91.0972 60.8027C74.336 60.8027 60.7484 47.2158 60.7484 30.4546Z" fill="#EFC828"/>
<path d="M121.394 151.743C121.394 168.561 107.806 182.196 91.0442 182.196C91.0839 165.395 104.65 151.783 121.394 151.743Z" fill="#FFE887"/>
<path d="M91.0441 121.499C91.0441 138.202 104.585 151.743 121.288 151.744C121.249 135.058 107.73 121.539 91.0441 121.499Z" fill="#FFE887"/>
<path fill-rule="evenodd" clip-rule="evenodd" d="M91.0442 182.196L91.0441 121.499C74.2829 121.499 60.6953 135.087 60.6953 151.848C60.6953 168.609 74.2829 182.196 91.0442 182.196ZM91.0442 182.196C74.2829 182.196 60.6953 168.609 60.6953 151.848C77.4387 151.888 91.0044 165.453 91.0442 182.196ZM60.6953 151.848C77.4387 151.808 91.0044 138.242 91.0441 121.499C74.2829 121.499 60.6953 135.087 60.6953 151.848Z" fill="#EFC828"/>
<path fill-rule="evenodd" clip-rule="evenodd" d="M91.0453 182.092L91.0453 121.395C107.807 121.395 121.394 134.981 121.394 151.743C121.394 168.504 107.807 182.092 91.0453 182.092ZM91.0453 182.092C107.807 182.092 121.394 168.504 121.394 151.743C104.651 151.782 91.0851 165.349 91.0453 182.092ZM121.394 151.743C104.651 151.703 91.0851 138.138 91.0453 121.395C107.807 121.395 121.394 134.981 121.394 151.743Z" fill="#EFC828"/>
<path d="M151.849 60.7503C135.03 60.7503 121.396 74.3384 121.395 91.1004C138.196 91.0607 151.809 77.4946 151.849 60.7503Z" fill="#FFE887"/>
<path d="M182.093 91.1004C165.39 91.1004 151.849 77.5598 151.848 60.8565C168.534 60.896 182.053 74.4146 182.093 91.1004Z" fill="#FFE887"/>
<path fill-rule="evenodd" clip-rule="evenodd" d="M121.395 91.1004L182.093 91.1004C182.093 107.862 168.505 121.449 151.744 121.449C134.983 121.449 121.395 107.862 121.395 91.1004ZM121.395 91.1004C121.395 107.862 134.983 121.449 151.744 121.449C151.704 104.706 138.139 91.1401 121.395 91.1004ZM151.744 121.449C151.784 104.706 165.35 91.1401 182.093 91.1004C182.093 107.862 168.505 121.449 151.744 121.449Z" fill="#EFC828"/>
<path fill-rule="evenodd" clip-rule="evenodd" d="M121.5 91.0992L182.197 91.0992C182.197 74.338 168.61 60.7504 151.849 60.7503C135.088 60.7503 121.5 74.338 121.5 91.0992ZM121.5 91.0992C121.5 74.338 135.088 60.7503 151.849 60.7503C151.809 77.4938 138.243 91.0594 121.5 91.0992ZM151.849 60.7503C151.889 77.4938 165.454 91.0594 182.197 91.0992C182.197 74.338 168.61 60.7504 151.849 60.7503Z" fill="#EFC828"/>
<path d="M30.3481 121.449C47.1669 121.449 60.8013 107.861 60.8019 91.0989C44.0009 91.1386 30.3886 104.705 30.3481 121.449Z" fill="#FFE887"/>
<path d="M0.104231 91.0988C16.8078 91.0988 30.3487 104.639 30.3493 121.343C13.6634 121.303 0.144435 107.785 0.104231 91.0988Z" fill="#FFE887"/>
<path fill-rule="evenodd" clip-rule="evenodd" d="M60.8019 91.0989L0.104231 91.0988C0.104233 74.3376 13.6922 60.75 30.4534 60.75C47.2146 60.75 60.8019 74.3377 60.8019 91.0989ZM60.8019 91.0989C60.8019 74.3377 47.2146 60.75 30.4534 60.75C30.4931 77.4934 44.0585 91.0591 60.8019 91.0989ZM30.4534 60.75C30.4136 77.4934 16.8477 91.0591 0.104231 91.0988C0.104233 74.3376 13.6922 60.75 30.4534 60.75Z" fill="#EFC828"/>
<path fill-rule="evenodd" clip-rule="evenodd" d="M60.6976 91.1L-5.30657e-06 91.1C-8.96984e-06 107.861 13.5869 121.449 30.3481 121.449C47.1093 121.449 60.6976 107.861 60.6976 91.1ZM60.6976 91.1C60.6976 107.861 47.1093 121.449 30.3481 121.449C30.3879 104.705 43.9542 91.1398 60.6976 91.1ZM30.3481 121.449C30.3084 104.705 16.7434 91.1398 -5.30657e-06 91.1C-8.96984e-06 107.861 13.5869 121.449 30.3481 121.449Z" fill="#EFC828"/>
</svg>
