<svg width="179" height="183" viewBox="0 0 179 183" fill="none" xmlns="http://www.w3.org/2000/svg">
<rect x="1.5" y="14.0234" width="176" height="166.606" rx="31.5" fill="#F4AA3D" stroke="black" stroke-width="3"/>
<path d="M3 68.0371H1.5V69.5371V149.13C1.5 166.527 15.603 180.63 33 180.63H146C163.397 180.63 177.5 166.527 177.5 149.13V69.5371V68.0371H176H3Z" fill="#FBFBFB" stroke="black" stroke-width="3"/>
<path d="M35.3554 118.84C38.0488 118.307 39.7688 118.027 40.5154 118V95.4L35.2754 97.64V94.76L47.6754 89.84V118.04C49.3288 118.2 51.0354 118.453 52.7954 118.8V120H35.3554V118.84ZM67.3367 120.4C65.0167 120.4 63.2567 120.12 62.0567 119.56C60.8567 119 59.8167 118.24 58.9367 117.28L60.1367 115.44C60.8834 116.293 61.75 116.96 62.7367 117.44C63.75 117.893 64.9767 118.12 66.4167 118.12C68.1234 118.12 69.67 117.36 71.0567 115.84C72.4434 114.32 73.2567 111.707 73.4967 108C73.1234 108.827 72.43 109.52 71.4167 110.08C70.4034 110.613 69.2967 110.88 68.0967 110.88C64.6567 110.88 62.0967 110.013 60.4167 108.28C58.7634 106.547 57.9367 104.267 57.9367 101.44C57.9367 99.52 58.3767 97.8267 59.2567 96.36C60.1367 94.8667 61.4167 93.7067 63.0967 92.88C64.8034 92.0267 66.8434 91.6 69.2167 91.6C76.8167 91.6 80.6167 95.8533 80.6167 104.36C80.6167 109.747 79.47 113.773 77.1767 116.44C74.8834 119.08 71.6034 120.4 67.3367 120.4ZM69.1367 108.48C70.31 108.48 71.2567 107.8 71.9767 106.44C72.7234 105.053 73.0967 103.333 73.0967 101.28C73.0967 99.3067 72.7367 97.5867 72.0167 96.12C71.2967 94.6267 70.3234 93.88 69.0967 93.88C67.8167 93.88 66.8167 94.56 66.0967 95.92C65.4034 97.28 65.0567 99 65.0567 101.08C65.0567 103.187 65.4167 104.947 66.1367 106.36C66.8567 107.773 67.8567 108.48 69.1367 108.48ZM87.5979 107.24C86.5313 107.24 85.6646 106.907 84.9979 106.24C84.3579 105.547 84.0379 104.693 84.0379 103.68C84.0379 102.667 84.3579 101.827 84.9979 101.16C85.6646 100.467 86.5313 100.12 87.5979 100.12C88.6646 100.12 89.5179 100.467 90.1579 101.16C90.8246 101.827 91.1579 102.667 91.1579 103.68C91.1579 104.693 90.8246 105.547 90.1579 106.24C89.5179 106.907 88.6646 107.24 87.5979 107.24ZM87.5979 120.4C86.5313 120.4 85.6646 120.067 84.9979 119.4C84.3579 118.707 84.0379 117.853 84.0379 116.84C84.0379 115.827 84.3579 114.987 84.9979 114.32C85.6646 113.627 86.5313 113.28 87.5979 113.28C88.6646 113.28 89.5179 113.627 90.1579 114.32C90.8246 114.987 91.1579 115.827 91.1579 116.84C91.1579 117.853 90.8246 118.707 90.1579 119.4C89.5179 120.067 88.6646 120.4 87.5979 120.4ZM105.975 120.4C98.1888 120.4 94.2954 115.6 94.2954 106C94.2954 96.4 98.1888 91.6 105.975 91.6C113.789 91.6 117.695 96.4 117.695 106C117.695 115.6 113.789 120.4 105.975 120.4ZM105.975 118.12C107.549 118.12 108.682 117.08 109.375 115C110.069 112.893 110.415 109.893 110.415 106C110.415 102.133 110.069 99.1467 109.375 97.04C108.682 94.9333 107.549 93.88 105.975 93.88C104.402 93.88 103.269 94.9333 102.575 97.04C101.909 99.1467 101.575 102.133 101.575 106C101.575 109.893 101.909 112.893 102.575 115C103.269 117.08 104.402 118.12 105.975 118.12ZM131.757 120.4C123.97 120.4 120.077 115.6 120.077 106C120.077 96.4 123.97 91.6 131.757 91.6C139.57 91.6 143.477 96.4 143.477 106C143.477 115.6 139.57 120.4 131.757 120.4ZM131.757 118.12C133.33 118.12 134.463 117.08 135.157 115C135.85 112.893 136.197 109.893 136.197 106C136.197 102.133 135.85 99.1467 135.157 97.04C134.463 94.9333 133.33 93.88 131.757 93.88C130.183 93.88 129.05 94.9333 128.357 97.04C127.69 99.1467 127.357 102.133 127.357 106C127.357 109.893 127.69 112.893 128.357 115C129.05 117.08 130.183 118.12 131.757 118.12ZM58.67 140.32C58.25 140.24 57.82 140.12 57.38 139.96C56.94 139.78 56.63 139.66 56.45 139.6V139H66.29V139.63C65.97 139.77 65.54 139.92 65 140.08C64.46 140.22 64.06 140.31 63.8 140.35L66.86 154.12L71.78 139.78H73.94L79.4 156.43L83.24 140.08C82.42 139.96 81.72 139.81 81.14 139.63V139H87.32V139.51C87.08 139.65 86.78 139.78 86.42 139.9C86.06 140 85.75 140.07 85.49 140.11L80.54 160.06H75.95L71.66 147.22L67.31 160.06H63.44L58.67 140.32ZM88.5685 159.34C89.4885 159.06 90.2885 158.85 90.9685 158.71V140.29C90.6685 140.23 89.8685 140.01 88.5685 139.63V139H98.7385V139.69C98.3785 139.79 97.5685 140 96.3085 140.32V158.74C96.6485 158.8 97.2385 158.95 98.0785 159.19C98.1785 159.23 98.3985 159.3 98.7385 159.4V160H88.5685V159.34ZM100.076 159.43C101.256 158.97 102.056 158.71 102.476 158.65V140.29C101.836 140.17 101.036 139.95 100.076 139.63V139H110.276C112.956 139 114.876 139.41 116.036 140.23C117.196 141.03 117.776 142.25 117.776 143.89C117.776 145.03 117.456 146.04 116.816 146.92C116.176 147.78 115.226 148.41 113.966 148.81V148.99C115.566 149.37 116.746 150.05 117.506 151.03C118.266 151.99 118.646 153.03 118.646 154.15C118.646 156.11 118.066 157.58 116.906 158.56C115.766 159.52 113.866 160 111.206 160H100.076V159.43ZM109.406 148.18C110.386 148.18 111.126 147.83 111.626 147.13C112.146 146.41 112.406 145.43 112.406 144.19C112.406 142.97 112.176 142.08 111.716 141.52C111.276 140.94 110.546 140.65 109.526 140.65H107.816V148.18H109.406ZM110.456 158.38C112.356 158.38 113.306 156.9 113.306 153.94C113.306 152.58 113.026 151.55 112.466 150.85C111.906 150.13 111.106 149.77 110.066 149.77H107.816V158.38H110.456Z" fill="#15575B"/>
<rect x="41.4238" y="3.06641" width="20.2217" height="30.3982" rx="10.1109" fill="white" stroke="black" stroke-width="3"/>
<rect x="115.789" y="1.5" width="20.2217" height="30.3982" rx="10.1109" fill="white" stroke="black" stroke-width="3"/>
</svg>
