<svg width="179" height="183" viewBox="0 0 179 183" fill="none" xmlns="http://www.w3.org/2000/svg">
<rect x="1.5" y="14.0234" width="176" height="166.606" rx="31.5" fill="#F4AA3D" stroke="black" stroke-width="3"/>
<path d="M3 68.0371H1.5V69.5371V149.13C1.5 166.527 15.603 180.63 33 180.63H146C163.397 180.63 177.5 166.527 177.5 149.13V69.5371V68.0371H176H3Z" fill="#FBFBFB" stroke="black" stroke-width="3"/>
<path d="M34.2288 117.84C36.9221 117.307 38.6421 117.027 39.3888 117V94.4L34.1488 96.64V93.76L46.5488 88.84V117.04C48.2021 117.2 49.9088 117.453 51.6688 117.8V119H34.2288V117.84ZM68.25 119.4C60.6767 119.4 56.89 115.16 56.89 106.68C56.89 101.293 58.0367 97.2667 60.33 94.6C62.6233 91.9333 65.9033 90.6 70.17 90.6C71.7967 90.6 73.1433 90.76 74.21 91.08C75.3033 91.3733 76.1433 91.7467 76.73 92.2C77.3433 92.6267 77.9567 93.1467 78.57 93.76L77.33 95.6C76.5833 94.7467 75.7167 94.08 74.73 93.6C73.7433 93.12 72.53 92.88 71.09 92.88C70.05 92.88 69.0233 93.2 68.01 93.84C67.0233 94.48 66.1567 95.5733 65.41 97.12C64.6633 98.6667 64.1967 100.733 64.01 103.32C64.41 102.467 65.1033 101.773 66.09 101.24C67.0767 100.707 68.17 100.44 69.37 100.44C72.8367 100.44 75.3967 101.28 77.05 102.96C78.73 104.64 79.57 106.893 79.57 109.72C79.57 111.64 79.13 113.333 78.25 114.8C77.37 116.24 76.0767 117.373 74.37 118.2C72.69 119 70.65 119.4 68.25 119.4ZM68.41 117.12C69.69 117.12 70.6767 116.467 71.37 115.16C72.0633 113.827 72.41 112.133 72.41 110.08C72.41 107.973 72.05 106.24 71.33 104.88C70.61 103.493 69.61 102.8 68.33 102.8C67.1567 102.8 66.21 103.467 65.49 104.8C64.77 106.133 64.41 107.827 64.41 109.88C64.41 111.853 64.77 113.56 65.49 115C66.21 116.413 67.1833 117.12 68.41 117.12ZM86.4713 106.24C85.4046 106.24 84.5379 105.907 83.8713 105.24C83.2313 104.547 82.9113 103.693 82.9113 102.68C82.9113 101.667 83.2313 100.827 83.8713 100.16C84.5379 99.4667 85.4046 99.12 86.4713 99.12C87.5379 99.12 88.3913 99.4667 89.0313 100.16C89.6979 100.827 90.0313 101.667 90.0313 102.68C90.0313 103.693 89.6979 104.547 89.0313 105.24C88.3913 105.907 87.5379 106.24 86.4713 106.24ZM86.4713 119.4C85.4046 119.4 84.5379 119.067 83.8713 118.4C83.2313 117.707 82.9113 116.853 82.9113 115.84C82.9113 114.827 83.2313 113.987 83.8713 113.32C84.5379 112.627 85.4046 112.28 86.4713 112.28C87.5379 112.28 88.3913 112.627 89.0313 113.32C89.6979 113.987 90.0313 114.827 90.0313 115.84C90.0313 116.853 89.6979 117.707 89.0313 118.4C88.3913 119.067 87.5379 119.4 86.4713 119.4ZM104.849 119.4C97.0621 119.4 93.1688 114.6 93.1688 105C93.1688 95.4 97.0621 90.6 104.849 90.6C112.662 90.6 116.569 95.4 116.569 105C116.569 114.6 112.662 119.4 104.849 119.4ZM104.849 117.12C106.422 117.12 107.555 116.08 108.249 114C108.942 111.893 109.289 108.893 109.289 105C109.289 101.133 108.942 98.1467 108.249 96.04C107.555 93.9333 106.422 92.88 104.849 92.88C103.275 92.88 102.142 93.9333 101.449 96.04C100.782 98.1467 100.449 101.133 100.449 105C100.449 108.893 100.782 111.893 101.449 114C102.142 116.08 103.275 117.12 104.849 117.12ZM130.63 119.4C122.843 119.4 118.95 114.6 118.95 105C118.95 95.4 122.843 90.6 130.63 90.6C138.443 90.6 142.35 95.4 142.35 105C142.35 114.6 138.443 119.4 130.63 119.4ZM130.63 117.12C132.203 117.12 133.337 116.08 134.03 114C134.723 111.893 135.07 108.893 135.07 105C135.07 101.133 134.723 98.1467 134.03 96.04C133.337 93.9333 132.203 92.88 130.63 92.88C129.057 92.88 127.923 93.9333 127.23 96.04C126.563 98.1467 126.23 101.133 126.23 105C126.23 108.893 126.563 111.893 127.23 114C127.923 116.08 129.057 117.12 130.63 117.12ZM57.5433 139.32C57.1233 139.24 56.6933 139.12 56.2533 138.96C55.8133 138.78 55.5033 138.66 55.3233 138.6V138H65.1633V138.63C64.8433 138.77 64.4133 138.92 63.8733 139.08C63.3333 139.22 62.9333 139.31 62.6733 139.35L65.7333 153.12L70.6533 138.78H72.8133L78.2733 155.43L82.1133 139.08C81.2933 138.96 80.5933 138.81 80.0133 138.63V138H86.1933V138.51C85.9533 138.65 85.6533 138.78 85.2933 138.9C84.9333 139 84.6233 139.07 84.3633 139.11L79.4133 159.06H74.8233L70.5333 146.22L66.1833 159.06H62.3133L57.5433 139.32ZM87.4418 158.34C88.3618 158.06 89.1618 157.85 89.8418 157.71V139.29C89.5418 139.23 88.7418 139.01 87.4418 138.63V138H97.6118V138.69C97.2518 138.79 96.4418 139 95.1818 139.32V157.74C95.5218 157.8 96.1118 157.95 96.9518 158.19C97.0518 158.23 97.2718 158.3 97.6118 158.4V159H87.4418V158.34ZM98.9492 158.43C100.129 157.97 100.929 157.71 101.349 157.65V139.29C100.709 139.17 99.9092 138.95 98.9492 138.63V138H109.149C111.829 138 113.749 138.41 114.909 139.23C116.069 140.03 116.649 141.25 116.649 142.89C116.649 144.03 116.329 145.04 115.689 145.92C115.049 146.78 114.099 147.41 112.839 147.81V147.99C114.439 148.37 115.619 149.05 116.379 150.03C117.139 150.99 117.519 152.03 117.519 153.15C117.519 155.11 116.939 156.58 115.779 157.56C114.639 158.52 112.739 159 110.079 159H98.9492V158.43ZM108.279 147.18C109.259 147.18 109.999 146.83 110.499 146.13C111.019 145.41 111.279 144.43 111.279 143.19C111.279 141.97 111.049 141.08 110.589 140.52C110.149 139.94 109.419 139.65 108.399 139.65H106.689V147.18H108.279ZM109.329 157.38C111.229 157.38 112.179 155.9 112.179 152.94C112.179 151.58 111.899 150.55 111.339 149.85C110.779 149.13 109.979 148.77 108.939 148.77H106.689V157.38H109.329Z" fill="#15575B"/>
<rect x="41.4238" y="3.06641" width="20.2217" height="30.3982" rx="10.1109" fill="white" stroke="black" stroke-width="3"/>
<rect x="115.789" y="1.5" width="20.2217" height="30.3982" rx="10.1109" fill="white" stroke="black" stroke-width="3"/>
</svg>
