<svg width="25" height="24" viewBox="0 0 25 24" fill="none" xmlns="http://www.w3.org/2000/svg">
<g clip-path="url(#clip0_538_2955)">
<path fill-rule="evenodd" clip-rule="evenodd" d="M4.56735 0.0245453C3.68417 0.116574 2.97621 0.374185 2.35215 0.814485C1.78904 1.21179 1.27799 1.75678 0.948097 2.40394C0.536699 3.21088 0.427457 3.81151 0.427571 4.86716V18.3288C0.427571 18.8124 0.405997 19.356 0.443438 19.8253C0.582131 21.5637 1.63574 22.8209 2.80886 23.447C3.58782 23.8628 4.27307 23.9766 5.28478 23.9765H17.2892C18.2306 23.9765 19.3851 24.0324 20.29 23.955C22.0231 23.8069 23.2715 22.7708 23.9021 21.5706C24.3181 20.779 24.419 20.1457 24.419 19.1033V5.64171C24.4189 4.19286 24.5075 3.24452 23.6149 1.9397C23.2428 1.39562 22.6658 0.855083 22.0312 0.529049C21.243 0.124214 20.6052 0.00310623 19.5618 0.00322027H6.06021C5.58705 0.00322027 5.02224 -0.0227804 4.56758 0.0245453H4.56735Z" fill="white"/>
<path fill-rule="evenodd" clip-rule="evenodd" d="M10.0526 6.83603C9.32398 6.92327 9.05059 6.90001 8.18339 7.04084C7.7777 7.10676 6.82751 7.24189 6.56702 7.50429C6.16727 7.90707 6.20402 8.60818 6.69829 8.89601C6.9662 9.05201 7.26802 8.99442 7.55899 8.92543C9.01612 8.57967 10.8195 8.42948 12.3213 8.58856C14.1971 8.78733 15.6 9.12876 17.2561 9.86088C17.7793 10.0923 18.2489 10.4659 18.7449 9.94778C19.1331 9.54215 19.1292 8.89715 18.5966 8.59837C18.1956 8.37337 17.6224 8.13481 17.1573 7.95486C16.1791 7.57614 15.054 7.23414 13.9167 7.05236C12.8332 6.87925 11.1895 6.69998 10.0526 6.83603Z" fill="#C48312"/>
<path fill-rule="evenodd" clip-rule="evenodd" d="M10.0735 10.4241C9.415 10.4987 9.16101 10.4887 8.44849 10.628C8.19918 10.6767 7.94508 10.7292 7.70685 10.7899C7.39066 10.8703 7.25813 10.8699 7.08325 11.0803C6.77904 11.4466 6.72676 12.061 7.09638 12.3752C7.29568 12.5447 7.55035 12.5698 7.81758 12.5008C8.08115 12.4328 8.30272 12.3754 8.56869 12.3222C10.6439 11.9064 13.1195 12.0372 14.9928 12.7165C15.455 12.8842 15.8629 13.0417 16.2881 13.2352C16.7744 13.4564 17.1108 13.8049 17.514 13.274C18.3662 12.1514 17.3035 11.8372 16.3057 11.4263C14.5359 10.6976 12.023 10.2034 10.0734 10.4241H10.0735Z" fill="#C48312"/>
<path fill-rule="evenodd" clip-rule="evenodd" d="M10.5395 13.7821C9.4348 13.876 8.92774 13.8993 7.82665 14.23C7.59184 14.3006 7.51741 14.3896 7.42301 14.6033C7.34219 14.7861 7.27907 15.0474 7.31502 15.2932C7.34642 15.5078 7.48853 15.6632 7.6472 15.7384C7.90062 15.8587 8.07606 15.7788 8.29432 15.717C10.4683 15.1019 12.9353 15.2371 14.9878 16.1785C15.2409 16.2947 15.8374 16.6515 16.1349 16.6142C16.5905 16.5571 16.7283 16.0748 16.6047 15.5769C16.4875 15.1051 16.1638 15.035 15.7639 14.8384C14.4724 14.2037 12.3092 13.6317 10.5395 13.7821Z" fill="#C48312"/>
</g>
<defs>
<clipPath id="clip0_538_2955">
<rect width="24" height="24" fill="white" transform="translate(0.415527)"/>
</clipPath>
</defs>
</svg>
