<svg width="25" height="24" viewBox="0 0 25 24" fill="none" xmlns="http://www.w3.org/2000/svg">
<path fill-rule="evenodd" clip-rule="evenodd" d="M4.68154 0.23012C3.81293 0.320597 3.11666 0.573865 2.5029 1.00674C1.94909 1.39735 1.44647 1.93315 1.12202 2.5694C0.717413 3.36273 0.609974 3.95324 0.610086 4.99109V18.2257C0.610086 18.7012 0.588868 19.2357 0.625691 19.697C0.762095 21.4061 1.79831 22.6422 2.95208 23.2577C3.71818 23.6665 4.39212 23.7783 5.38713 23.7782H17.1934C18.1193 23.7782 19.2547 23.8332 20.1447 23.7572C21.8492 23.6115 23.0769 22.5928 23.6972 21.4129C24.1063 20.6346 24.2056 20.0121 24.2056 18.9872V5.75258C24.2055 4.32815 24.2926 3.3958 23.4148 2.11298C23.0488 1.57808 22.4813 1.04666 21.8572 0.726118C21.082 0.328109 20.4547 0.209043 19.4285 0.209155H6.14976C5.68441 0.209155 5.12892 0.183593 4.68176 0.23012H4.68154Z" fill="white"/>
<path d="M17.1112 8.03209C17.0086 7.97628 16.9087 7.9151 16.8119 7.84877C16.5303 7.65294 16.2721 7.42219 16.0429 7.16149C15.4695 6.47121 15.2553 5.77093 15.1764 5.28063H15.1796C15.1137 4.87367 15.141 4.61035 15.1451 4.61035H12.5332V15.2355C12.5332 15.3782 12.5332 15.5192 12.5275 15.6585C12.5275 15.6758 12.526 15.6918 12.525 15.7105C12.525 15.7182 12.525 15.7262 12.5234 15.7342C12.5234 15.7362 12.5234 15.7382 12.5234 15.7402C12.4959 16.1214 12.3797 16.4897 12.1852 16.8126C11.9906 17.1355 11.7236 17.4032 11.4076 17.592C11.0783 17.7891 10.7058 17.8925 10.3269 17.892C9.11003 17.892 8.12378 16.8481 8.12378 15.5589C8.12378 14.2696 9.11003 13.2257 10.3269 13.2257C10.5573 13.2255 10.7862 13.2636 11.0052 13.3387L11.0084 10.5409C10.3435 10.4505 9.66805 10.5061 9.02461 10.7042C8.38117 10.9022 7.78372 11.2384 7.26995 11.6915C6.81978 12.103 6.44131 12.594 6.15159 13.1424C6.04134 13.3424 5.62535 14.146 5.57498 15.4502C5.5433 16.1905 5.75462 16.9574 5.85536 17.2744V17.2811C5.91873 17.4677 6.16426 18.1047 6.5644 18.6416C6.88706 19.0723 7.26827 19.4507 7.69576 19.7645V19.7579L7.70209 19.7645C8.96651 20.6685 10.3684 20.6091 10.3684 20.6091C10.6111 20.5988 11.4241 20.6091 12.3473 20.1488C13.3712 19.6385 13.9542 18.8783 13.9542 18.8783C14.3266 18.424 14.6227 17.9063 14.8298 17.3474C15.0662 16.6938 15.1451 15.9098 15.1451 15.5965V9.95961C15.1768 9.97961 15.5988 10.2733 15.5988 10.2733C15.5988 10.2733 16.2067 10.6832 17.1553 10.9502C17.8358 11.1402 18.7527 11.1802 18.7527 11.1802V8.45239C18.4314 8.48906 17.7791 8.3824 17.1112 8.03209Z" fill="#C48312"/>
</svg>
