<svg width="24" height="24" viewBox="0 0 24 24" fill="none" xmlns="http://www.w3.org/2000/svg">
<path fill-rule="evenodd" clip-rule="evenodd" d="M4.07754 0.23012C3.20893 0.320597 2.51265 0.573865 1.89889 1.00674C1.34508 1.39735 0.842467 1.93315 0.518017 2.5694C0.113409 3.36273 0.00597028 3.95324 0.00608255 4.99109V18.2257C0.00608255 18.7012 -0.0151358 19.2357 0.0216876 19.697C0.158091 21.4061 1.19431 22.6422 2.34807 23.2577C3.11418 23.6665 3.78811 23.7783 4.78313 23.7782H16.5894C17.5153 23.7782 18.6507 23.8332 19.5407 23.7572C21.2452 23.6115 22.4729 22.5928 23.0932 21.4129C23.5023 20.6346 23.6016 20.0121 23.6016 18.9872V5.75258C23.6014 4.32815 23.6886 3.3958 22.8108 2.11298C22.4448 1.57808 21.8773 1.04666 21.2532 0.726118C20.478 0.328109 19.8507 0.209043 18.8245 0.209155H5.54576C5.08041 0.209155 4.52492 0.183593 4.07776 0.23012H4.07754Z" fill="white"/>
<path fill-rule="evenodd" clip-rule="evenodd" d="M9.99514 13.2723C3.78711 20.0518 7.73595 15.734 3.78711 20.0518C4.60246 20.0535 4.55179 20.0591 5.16615 20.0753C6.16966 18.9429 5.16615 20.0753 10.648 14.1397C15.0699 20.0541 10.648 14.1397 15.0699 20.0541L19.8378 20.0479C13.6779 11.7592 13.7539 11.8646 13.3191 11.2803C18.7403 5.31492 13.3191 11.2803 19.0976 4.92188C18.799 4.99238 18.0882 4.94304 17.7358 4.95135C16.0291 6.75855 14.3651 8.55912 12.6808 10.382C10.7688 7.83406 10.8243 7.93534 8.65691 5.00394C6.14581 4.93837 6.5347 4.94239 3.82663 4.92343C6.86099 9.1298 6.74903 8.90594 9.99527 13.2724L9.99514 13.2723ZM5.84077 5.97752C6.57202 5.97597 7.3034 5.97441 8.03465 5.97298C11.2844 10.3233 14.5342 14.6738 17.784 19.0242C17.0456 19.016 16.3072 19.008 15.5687 18.9998C12.326 14.659 9.08338 10.3183 5.84064 5.97752H5.84077Z" fill="#C48312"/>
</svg>
