<svg width="24" height="24" viewBox="0 0 24 24" fill="none" xmlns="http://www.w3.org/2000/svg">
<path fill-rule="evenodd" clip-rule="evenodd" d="M4.28554 0.23012C3.41694 0.320597 2.72066 0.573865 2.1069 1.00674C1.55309 1.39735 1.05048 1.93315 0.726025 2.5694C0.321417 3.36273 0.213978 3.95324 0.21409 4.99109V18.2257C0.21409 18.7012 0.192872 19.2357 0.229695 19.697C0.366099 21.4061 1.40232 22.6422 2.55608 23.2577C3.32219 23.6665 3.99612 23.7783 4.99114 23.7782H16.7974C17.7233 23.7782 18.8587 23.8332 19.7487 23.7572C21.4532 23.6115 22.681 22.5928 23.3012 21.4129C23.7103 20.6346 23.8096 20.0121 23.8096 18.9872V5.75258C23.8095 4.32815 23.8966 3.3958 23.0188 2.11298C22.6528 1.57808 22.0853 1.04666 21.4612 0.726118C20.686 0.328109 20.0587 0.209043 19.0325 0.209155H5.75376C5.28842 0.209155 4.73292 0.183593 4.28577 0.23012H4.28554Z" fill="white"/>
<path d="M14.3675 11.6441C13.069 10.949 11.8256 10.3098 10.5547 9.64258V13.6343C11.8921 12.906 13.3018 12.239 14.373 11.6441H14.3675Z" fill="white"/>
<path d="M14.3675 11.6441C13.069 10.949 10.5547 9.64258 10.5547 9.64258L13.9069 11.8997C13.9071 11.8997 13.2962 12.239 14.3675 11.6441Z" fill="white"/>
<path d="M10.7936 16.7761C8.09646 16.7264 7.17525 16.6816 6.60902 16.5648C6.22593 16.4871 5.89302 16.3147 5.64892 16.0646C5.46027 15.8754 5.31024 15.5866 5.19384 15.186C5.09399 14.8522 5.0551 14.5745 4.99966 13.8962C4.91479 12.3653 4.89456 11.1137 4.99966 9.71519C5.08637 8.9429 5.12841 8.02609 5.70436 7.49122C5.97631 7.2409 6.29267 7.07981 6.64791 7.01321C7.20284 6.90766 9.56709 6.82422 12.0146 6.82422C14.4567 6.82422 16.8262 6.90766 17.3816 7.01321C17.8254 7.09665 18.2416 7.34672 18.486 7.66916C19.0115 8.49726 19.0207 9.52699 19.074 10.3324C19.0961 10.7162 19.0961 12.8954 19.074 13.2792C18.991 14.5522 18.9242 15.0025 18.7356 15.4695C18.6189 15.7643 18.5193 15.9199 18.347 16.0923C18.0766 16.3576 17.732 16.5341 17.359 16.5982C15.025 16.774 13.043 16.8122 10.7936 16.7761ZM14.3678 11.6612C13.0693 10.966 11.826 10.3214 10.555 9.65412V13.6462C11.8925 12.9178 13.3024 12.2506 14.3734 11.6557L14.3678 11.6612Z" fill="#C48312"/>
</svg>
