<svg width="37" height="31" viewBox="0 0 37 31" fill="none" xmlns="http://www.w3.org/2000/svg">
<path d="M8.87075 0.208003C5.92675 0.208003 3.71875 1.104 2.24675 2.896C0.83875 4.688 0.13475 6.768 0.13475 9.136C0.13475 12.976 1.19075 16.848 3.30275 20.752C5.41475 24.72 8.00675 28.048 11.0788 30.736L16.1668 26.896C12.1348 22.672 9.83075 18.96 9.25475 15.76C11.5588 15.76 13.4148 15.056 14.8228 13.648C16.2948 12.304 17.0308 10.64 17.0308 8.656C17.0308 6.288 16.3268 4.272 14.9188 2.608C13.5108 1.008 11.4948 0.208003 8.87075 0.208003ZM28.9348 0.208003C25.9268 0.208003 23.6868 1.104 22.2148 2.896C20.8068 4.688 20.1028 6.768 20.1028 9.136C20.1028 12.976 21.1588 16.848 23.2708 20.752C25.3828 24.72 27.9748 28.048 31.0468 30.736L36.2308 26.896C32.1348 22.8 29.7988 19.088 29.2228 15.76C31.5268 15.76 33.3828 15.056 34.7908 13.648C36.2628 12.304 36.9988 10.64 36.9988 8.656C36.9988 6.288 36.2948 4.272 34.8868 2.608C33.4788 1.008 31.4948 0.208003 28.9348 0.208003Z" fill="#FFC359"/>
</svg>
