<svg width="37" height="31" viewBox="0 0 37 31" fill="none" xmlns="http://www.w3.org/2000/svg">
<path d="M28.1292 0.208003C31.0732 0.208003 33.2812 1.104 34.7532 2.896C36.1612 4.688 36.8652 6.768 36.8652 9.136C36.8652 12.976 35.8092 16.848 33.6972 20.752C31.5852 24.72 28.9932 28.048 25.9212 30.736L20.8332 26.896C24.8652 22.672 27.1692 18.96 27.7452 15.76C25.4412 15.76 23.5852 15.056 22.1772 13.648C20.7052 12.304 19.9692 10.64 19.9692 8.656C19.9692 6.288 20.6732 4.272 22.0812 2.608C23.4892 1.008 25.5052 0.208003 28.1292 0.208003ZM8.06525 0.208003C11.0732 0.208003 13.3132 1.104 14.7852 2.896C16.1932 4.688 16.8972 6.768 16.8972 9.136C16.8972 12.976 15.8412 16.848 13.7292 20.752C11.6172 24.72 9.02525 28.048 5.95325 30.736L0.769248 26.896C4.86525 22.8 7.20125 19.088 7.77725 15.76C5.47325 15.76 3.61725 15.056 2.20925 13.648C0.737249 12.304 0.00124931 10.64 0.00124931 8.656C0.00124931 6.288 0.705249 4.272 2.11325 2.608C3.52125 1.008 5.50525 0.208003 8.06525 0.208003Z" fill="#FFC359"/>
</svg>
