<svg width="65" height="65" viewBox="0 0 65 65" fill="none" xmlns="http://www.w3.org/2000/svg">
<path d="M34.2087 31.7892V31.3751V18.9873L34.1934 18.7322C34.1395 18.3264 33.9415 17.9532 33.6352 17.6808C33.3225 17.4028 32.9188 17.2492 32.5005 17.2491L34.2087 31.7892ZM34.2087 31.7892L34.5014 32.0821M34.2087 31.7892L34.5014 32.0821M34.5014 32.0821L41.811 39.3944L41.9919 39.5992C42.2134 39.8947 42.3334 40.2542 42.3334 40.6241C42.3334 40.9939 42.2134 41.3534 41.9919 41.6489L41.8316 41.8304L41.6502 41.9906C41.3547 42.2122 40.9951 42.3322 40.6253 42.3322C40.2546 42.3322 39.8942 42.2116 39.5983 41.989L39.3936 41.8104L31.3172 33.734L31.1275 33.516C30.9611 33.2907 30.8526 33.0279 30.8116 32.7508L30.792 32.4648V18.9873L30.8072 18.7322C30.8612 18.3264 31.0592 17.9532 31.3655 17.6808C31.6781 17.4028 32.0819 17.2492 32.5002 17.2491L34.5014 32.0821ZM4.43065 33.392L4.43078 33.4005L4.43106 33.4089C4.58947 38.2974 6.02187 43.0598 8.58646 47.2246C11.151 51.3894 14.7589 54.8122 19.0528 57.1541C23.3467 59.496 28.1778 60.6759 33.0679 60.5769C37.958 60.478 42.7374 59.1036 46.9331 56.5898C51.1287 54.0761 54.5951 50.5101 56.9891 46.245C59.383 41.9799 60.6216 37.1634 60.5821 32.2725C60.5426 27.3816 59.2264 22.5858 56.7638 18.3599C54.3013 14.134 50.7777 10.6245 46.542 8.17888C42.3396 5.75247 37.5802 4.45637 32.7278 4.41694C27.8754 4.37751 23.0956 5.59609 18.8544 7.95388C14.6131 10.3117 11.0552 13.7282 8.52741 17.8704C5.99965 22.0126 4.58833 26.7391 4.43106 31.5891L4.43078 31.5976L4.43065 31.6061L4.41711 32.4836L4.41687 32.4991L4.41711 32.5145L4.43065 33.392Z" fill="white" stroke="black" stroke-width="2"/>
</svg>
