<svg width="16" height="14" viewBox="0 0 16 14" fill="none" xmlns="http://www.w3.org/2000/svg">
<path d="M7.06774 0.369775C12.0483 0.461823 15.5376 5.10038 13.7484 9.24777L12.9826 11.0205C12.9492 11.0978 12.9447 11.1838 12.9697 11.2657C12.9947 11.3477 13.048 11.4212 13.1216 11.4752L14.8481 12.7434C14.9188 12.7953 14.9708 12.8652 14.997 12.9434C15.0231 13.0217 15.0222 13.1044 14.9942 13.1802C14.9662 13.256 14.9126 13.321 14.8408 13.3665C14.769 13.4119 14.6825 13.4354 14.5932 13.4337L7.85483 13.3092C6.8666 13.2912 5.88422 13.0969 4.96382 12.7373C4.04341 12.3777 3.20302 11.8599 2.49067 11.2134C1.77831 10.567 1.20795 9.80456 0.812168 8.96975C0.416387 8.13493 0.202947 7.24407 0.184039 6.34808C0.112 2.97457 3.06951 0.295881 6.79027 0.364647L7.06774 0.369775Z" fill="#FABF39"/>
</svg>
