<svg width="67" height="67" viewBox="0 0 67 67" fill="none" xmlns="http://www.w3.org/2000/svg">
<path d="M12.5625 7.375H54.4375C55.8133 7.375 57.1328 7.92154 58.1056 8.89438C59.0785 9.86723 59.625 11.1867 59.625 12.5625V41.0071V41.0087H58.625C58.6259 41.5587 58.5179 42.1034 58.3072 42.6115C58.0965 43.1195 57.7874 43.5808 57.3975 43.9688L12.5625 7.375ZM12.5625 7.375C11.1867 7.375 9.86723 7.92154 8.89438 8.89438C7.92154 9.86723 7.375 11.1867 7.375 12.5625V54.4375C7.375 55.8133 7.92154 57.1328 8.89438 58.1056C9.86723 59.0785 11.1867 59.625 12.5625 59.625H41.0071M12.5625 7.375L58.1038 44.6767C58.1035 44.677 58.1032 44.6773 58.1029 44.6776L44.6776 58.1029C44.6773 58.1032 44.677 58.1035 44.6767 58.1038C44.1958 58.5868 43.6241 58.9699 42.9945 59.2309C42.3645 59.4922 41.6891 59.6261 41.0071 59.625M41.0071 59.625L41.0087 58.625M41.0071 59.625H41.0087V58.625M41.0087 58.625C41.5587 58.6259 42.1034 58.5179 42.6115 58.3072C43.1195 58.0965 43.5808 57.7874 43.9688 57.3975L58.625 12.5625C58.625 11.4519 58.1838 10.3868 57.3985 9.60149C56.6132 8.81618 55.5481 8.375 54.4375 8.375H12.5625C11.4519 8.375 10.3868 8.81618 9.60149 9.60149C8.81618 10.3868 8.375 11.4519 8.375 12.5625V54.4375C8.375 55.5481 8.81618 56.6132 9.60149 57.3985C10.3868 58.1838 11.4519 58.625 12.5625 58.625H41.0087ZM24.3516 24.3516L23.6445 23.6445L24.3516 24.3516C24.5567 24.1465 24.8349 24.0312 25.125 24.0312H41.875C42.1651 24.0312 42.4433 24.1465 42.6484 24.3516C42.8535 24.5567 42.9688 24.8349 42.9688 25.125C42.9688 25.4151 42.8535 25.6933 42.6484 25.8984C42.4433 26.1035 42.1651 26.2188 41.875 26.2188H25.125C24.8349 26.2188 24.5567 26.1035 24.3516 25.8984C24.1465 25.6933 24.0312 25.4151 24.0312 25.125C24.0312 24.8349 24.1465 24.5567 24.3516 24.3516ZM33.5 42.9688H25.125C24.8349 42.9688 24.5567 42.8535 24.3516 42.6484C24.1465 42.4433 24.0312 42.1651 24.0312 41.875C24.0312 41.5849 24.1465 41.3067 24.3516 41.1016C24.5567 40.8965 24.8349 40.7812 25.125 40.7812H33.5C33.7901 40.7812 34.0683 40.8965 34.2734 41.1016C34.4785 41.3067 34.5938 41.5849 34.5938 41.875C34.5938 42.1651 34.4785 42.4433 34.2734 42.6484C34.0683 42.8535 33.7901 42.9688 33.5 42.9688ZM25.125 34.5938C24.8349 34.5938 24.5567 34.4785 24.3516 34.2734C24.1465 34.0683 24.0312 33.7901 24.0312 33.5C24.0312 33.2099 24.1465 32.9317 24.3516 32.7266C24.5567 32.5215 24.8349 32.4062 25.125 32.4062H41.875C42.1651 32.4062 42.4433 32.5215 42.6484 32.7266C42.8535 32.9317 42.9688 33.2099 42.9688 33.5C42.9688 33.7901 42.8535 34.0683 42.6484 34.2734C42.4433 34.4785 42.1651 34.5938 41.875 34.5938H25.125ZM51.1592 42.875L42.875 51.1574V42.875H51.1592Z" fill="#F4AA3D" stroke="black" stroke-width="2"/>
</svg>
