<svg width="16" height="14" viewBox="0 0 16 14" fill="none" xmlns="http://www.w3.org/2000/svg">
<path d="M4.26061 0.112277C4.93966 -0.00342496 5.63603 0.0347422 6.29838 0.223965C6.96072 0.413187 7.57216 0.748641 8.08761 1.2056L8.116 1.23092L8.14209 1.2079C8.63404 0.776169 9.21241 0.45431 9.8386 0.263794C10.4648 0.0732774 11.1244 0.0184844 11.7734 0.10307L11.9622 0.130691C12.7803 0.271947 13.545 0.63182 14.1753 1.1722C14.8056 1.71258 15.278 2.41335 15.5425 3.2003C15.807 3.98726 15.8538 4.8311 15.6779 5.64247C15.502 6.45383 15.1099 7.20253 14.5432 7.80926L14.4051 7.9512L14.3683 7.98266L8.6523 13.6441C8.5204 13.7747 8.34564 13.853 8.16041 13.8646C7.97518 13.8761 7.79204 13.8202 7.64491 13.7071L7.57279 13.6441L1.82384 7.94967C1.21482 7.35709 0.781695 6.60751 0.572436 5.78394C0.363178 4.96037 0.385951 4.09496 0.638235 3.28353C0.890519 2.47211 1.36247 1.74635 2.00181 1.18663C2.64116 0.626901 3.42295 0.255058 4.26061 0.112277Z" fill="#E14986"/>
</svg>
