<!-- <svg width="15" height="14" viewBox="0 0 15 14" fill="none" xmlns="http://www.w3.org/2000/svg">
<path d="M14.77 1.70218C14.8049 1.60693 14.8082 1.50282 14.7795 1.40201C14.7508 1.3012 14.6912 1.20786 14.6078 1.1329C14.5244 1.05795 14.4206 1.00447 14.3084 0.978738C14.1963 0.953001 14.0806 0.956064 13.9747 0.987567L0.934901 4.90251C0.822055 4.93628 0.725662 5.00084 0.658475 5.08766C0.591289 5.17449 0.556476 5.27947 0.558641 5.38873C0.560806 5.49798 0.599848 5.60636 0.670602 5.69953C0.741355 5.79269 0.840486 5.86625 0.954878 5.91047L6.35193 7.98796L9.70429 4.7579L10.5828 5.54733L7.13804 8.86731L9.30796 13.4161C9.35712 13.519 9.4389 13.6082 9.54248 13.6718C9.64607 13.7355 9.76657 13.7706 9.88806 13.7725C10.0095 13.7745 10.1263 13.7432 10.2228 13.6828C10.3194 13.6224 10.3912 13.5358 10.4288 13.4343L14.77 1.70218Z" fill="#5624A7"/>
</svg> -->

<svg width="19" height="19" viewBox="0 0 19 19" fill="none" xmlns="http://www.w3.org/2000/svg">
<path d="M15.5142 1.24059L15.514 1.24068L1.58132 6.1167L1.58091 6.11684C0.251585 6.58338 0.174697 8.43642 1.46339 9.00985L1.46357 9.00993L6.75683 11.3628L7.0706 11.5022L7.31343 11.2595L10.6172 7.95654C10.6389 7.9381 10.6666 7.92814 10.6952 7.92865C10.7255 7.92918 10.7545 7.94149 10.776 7.96296C10.7975 7.98444 10.8098 8.01342 10.8103 8.04378C10.8108 8.07236 10.8008 8.10008 10.7824 8.12177L7.47948 11.4255L7.23671 11.6683L7.37618 11.9821L9.72894 17.2752C9.72896 17.2753 9.72899 17.2753 9.72901 17.2754C10.3015 18.5642 12.1557 18.4883 12.6221 17.1579L12.6222 17.1576L17.4983 3.22495L17.4983 3.22472C17.9286 1.99334 16.7456 0.810339 15.5142 1.24059Z" fill="#5624A7" stroke="black"/>
</svg>
