<svg width="21" height="20" viewBox="0 0 21 20" fill="none" xmlns="http://www.w3.org/2000/svg">
<path d="M9.81916 16.2839L9.81844 16.2832C7.6895 14.3527 5.96267 12.7838 4.76223 11.3151C3.56728 9.85317 2.94629 8.55183 2.94629 7.16494C2.94629 4.89874 4.71339 3.13867 6.97255 3.13867C8.25335 3.13867 9.4909 3.7375 10.2964 4.67606L10.6759 5.11814L11.0553 4.67606C11.8608 3.7375 13.0984 3.13867 14.3792 3.13867C16.6383 3.13867 18.4054 4.89874 18.4054 7.16494C18.4054 8.55183 17.7844 9.85317 16.5895 11.3151C15.3891 12.7838 13.6622 14.3527 11.5333 16.2832L11.5326 16.2839L10.6759 17.0638L9.81916 16.2839Z" fill="#E14986" stroke="black"/>
</svg>
