<svg width="22" height="19" viewBox="0 0 22 19" fill="none" xmlns="http://www.w3.org/2000/svg">
<path d="M5.48324 18.11C3.79658 18.11 2.53158 17.5967 1.68824 16.57C0.881576 15.5433 0.478242 14.3517 0.478242 12.995C0.478242 10.795 1.08324 8.57667 2.29324 6.34C3.50324 4.06666 4.98824 2.16 6.74824 0.619999L9.66324 2.82C7.35324 5.24 6.03324 7.36667 5.70324 9.2C7.02324 9.2 8.08658 9.60333 8.89324 10.41C9.73658 11.18 10.1582 12.1333 10.1582 13.27C10.1582 14.6267 9.75491 15.7817 8.94824 16.735C8.14158 17.6517 6.98658 18.11 5.48324 18.11ZM16.9782 18.11C15.2549 18.11 13.9716 17.5967 13.1282 16.57C12.3216 15.5433 11.9182 14.3517 11.9182 12.995C11.9182 10.795 12.5232 8.57667 13.7332 6.34C14.9432 4.06666 16.4282 2.16 18.1882 0.619999L21.1582 2.82C18.8116 5.16666 17.4732 7.29333 17.1432 9.2C18.4632 9.2 19.5266 9.60333 20.3332 10.41C21.1766 11.18 21.5982 12.1333 21.5982 13.27C21.5982 14.6267 21.1949 15.7817 20.3882 16.735C19.5816 17.6517 18.4449 18.11 16.9782 18.11Z" fill="#FFC359"/>
</svg>
