<svg width="18" height="18" viewBox="0 0 18 18" fill="none" xmlns="http://www.w3.org/2000/svg">
<path fill-rule="evenodd" clip-rule="evenodd" d="M14.2978 14.1341C15.7061 12.6989 16.5746 10.7322 16.5746 8.56267C16.5746 4.16911 13.0129 0.607422 8.61932 0.607422C4.22575 0.607422 0.664062 4.16911 0.664063 8.56267C0.664063 12.9353 4.19183 16.4839 8.55646 16.5177L8.56444 16.5193H16.5746L14.2978 14.1341Z" fill="#FABF39"/>
<path d="M14.2978 14.1341L13.9409 13.7839L13.602 14.1293L13.9361 14.4793L14.2978 14.1341ZM8.55646 16.5177L8.65844 16.0282L8.60991 16.0181L8.56033 16.0177L8.55646 16.5177ZM8.56444 16.5193L8.46246 17.0088L8.51291 17.0193H8.56444V16.5193ZM16.5746 16.5193V17.0193H17.7431L16.9363 16.1741L16.5746 16.5193ZM16.0746 8.56267C16.0746 10.596 15.2612 12.4384 13.9409 13.7839L14.6547 14.4843C16.151 12.9594 17.0746 10.8684 17.0746 8.56267H16.0746ZM8.61932 1.10742C12.7367 1.10742 16.0746 4.44525 16.0746 8.56267H17.0746C17.0746 3.89297 13.289 0.107422 8.61932 0.107422V1.10742ZM1.16406 8.56267C1.16406 4.44525 4.50189 1.10742 8.61932 1.10742V0.107422C3.94961 0.107422 0.164063 3.89297 0.164063 8.56267H1.16406ZM8.56033 16.0177C4.47011 15.986 1.16406 12.6604 1.16406 8.56267H0.164063C0.164063 13.2101 3.91355 16.9818 8.55259 17.0177L8.56033 16.0177ZM8.45447 17.0072L8.46246 17.0088L8.66643 16.0299L8.65844 16.0282L8.45447 17.0072ZM8.56444 17.0193H16.5746V16.0193H8.56444V17.0193ZM16.9363 16.1741L14.6595 13.7889L13.9361 14.4793L16.2129 16.8646L16.9363 16.1741Z" fill="black"/>
</svg>
