<svg width="19" height="19" viewBox="0 0 19 19" fill="none" xmlns="http://www.w3.org/2000/svg">
<path d="M15.5142 1.24059L15.514 1.24068L1.58132 6.1167L1.58091 6.11684C0.251585 6.58338 0.174697 8.43642 1.46339 9.00985L1.46357 9.00993L6.75683 11.3628L7.0706 11.5022L7.31343 11.2595L10.6172 7.95654C10.6389 7.9381 10.6666 7.92814 10.6952 7.92865C10.7255 7.92918 10.7545 7.94149 10.776 7.96296C10.7975 7.98444 10.8098 8.01342 10.8103 8.04378C10.8108 8.07236 10.8008 8.10008 10.7824 8.12177L7.47948 11.4255L7.23671 11.6683L7.37618 11.9821L9.72894 17.2752C9.72896 17.2753 9.72899 17.2753 9.72901 17.2754C10.3015 18.5642 12.1557 18.4883 12.6221 17.1579L12.6222 17.1576L17.4983 3.22495L17.4983 3.22472C17.9286 1.99334 16.7456 0.810339 15.5142 1.24059Z" fill="#5624A7" stroke="black"/>
</svg>
