<svg width="47" height="49" viewBox="0 0 47 49" fill="none" xmlns="http://www.w3.org/2000/svg">
<path d="M40.5319 16.0352L40.5305 16.0338L31.4302 6.73787C31.4302 6.73783 31.4301 6.73779 31.4301 6.73775C30.9809 6.27903 30.5068 6.15259 30.0194 6.18154C29.48 6.21358 28.9071 6.44596 28.4565 6.75077L40.5319 16.0352ZM40.5319 16.0352C41.3648 16.8838 41.1954 18.1243 40.5236 19.1559L40.523 19.1567M40.5319 16.0352L40.523 19.1567M40.523 19.1567C40.1936 19.6634 39.7664 20.0926 39.27 20.4187C38.7971 20.7263 38.2883 20.8996 37.8117 20.8772C37.4235 20.8487 37.0365 20.8059 36.6513 20.7488C36.6511 20.7488 36.6508 20.7487 36.6505 20.7487L36.52 20.7291L36.5145 20.7283M40.523 19.1567L36.5145 20.7283M36.5145 20.7283C36.0152 20.6551 35.5132 20.6022 35.0097 20.5696L34.9992 20.5689M36.5145 20.7283L34.9992 20.5689M34.9992 20.5689L34.9886 20.5684M34.9992 20.5689L34.9886 20.5684M34.9886 20.5684C34.4088 20.539 33.9255 20.5691 33.5224 20.6575C33.142 20.741 32.7099 20.9036 32.3699 21.2396L32.3611 21.2483M34.9886 20.5684L32.3611 21.2483M32.3611 21.2483L32.3524 21.2572M32.3611 21.2483L32.3524 21.2572M32.3524 21.2572L27.4763 26.239C27.4763 26.2391 27.4762 26.2391 27.4761 26.2392C27.0291 26.6959 26.7533 27.3779 26.5811 28.1695L26.5808 28.1709M32.3524 21.2572L26.5808 28.1709M26.5808 28.1709C26.4073 28.9716 26.342 29.8965 26.3257 30.8343L26.3257 30.8366M26.5808 28.1709L26.3257 30.8366M26.3257 30.8366C26.3113 31.7407 26.3419 32.6566 26.3731 33.5036L26.3748 33.5857L26.375 33.5961M26.3257 30.8366L26.375 33.5961M26.375 33.5961L26.3753 33.6065M26.375 33.5961L26.3753 33.6065M26.3753 33.6065C26.4055 34.4746 26.4306 35.2588 26.3949 35.85L26.3753 33.6065ZM20.4294 38.481L20.4301 38.4817C21.3405 39.4127 22.7733 39.4247 24.0261 38.8581C25.2728 38.2922 26.3138 37.1637 26.3949 35.85L20.4294 38.481ZM20.4294 38.481L16.0232 33.981L14.9514 32.8864L14.9504 32.8874L13.9454 31.861L9.5398 27.3617C9.53959 27.3615 9.53939 27.3613 9.53918 27.3611C9.53917 27.361 9.53915 27.361 9.53913 27.361C8.61062 26.4108 8.6011 24.9056 9.16525 23.6088L9.16587 23.6074C9.72911 22.309 10.8373 21.272 12.0755 21.1914M20.4294 38.481L12.0755 21.1914M12.0755 21.1914C12.6512 21.1552 13.4147 21.1806 14.2665 21.2114L14.2774 21.2118L14.2882 21.2121L14.3695 21.2138L14.4217 21.2157C15.2306 21.2448 16.1135 21.2766 16.9835 21.2622L16.9859 21.2622C17.9068 21.2455 18.8194 21.1786 19.6118 20.9996L19.6133 20.9992C20.4045 20.8197 21.0795 20.53 21.528 20.0719L26.4043 15.0919C26.747 14.7419 26.9033 14.2969 26.9818 13.9232C27.0666 13.5198 27.0952 13.0334 27.0656 12.4468L27.0652 12.4381L27.0646 12.4294C27.033 11.9204 26.9818 11.4129 26.9111 10.908L26.8945 10.7797L26.8933 10.7704L26.892 10.7612C26.8355 10.3644 26.7933 9.96558 26.7652 9.56559C26.7404 9.05326 26.9189 8.51628 27.2231 8.02673C27.5312 7.53144 27.9669 7.08288 28.4564 6.75083L12.0755 21.1914Z" fill="#F4AA3D" stroke="black" stroke-width="3"/>
</svg>
