<svg width="26" height="31" viewBox="0 0 26 31" fill="none" xmlns="http://www.w3.org/2000/svg">
<path d="M14.9032 0.144451C14.9652 0.155841 15.0272 0.164332 15.0897 0.172823C15.2373 0.192911 15.3835 0.214863 15.5328 0.237437C15.567 0.242614 15.567 0.242614 15.6019 0.247999C15.7134 0.265188 15.8174 0.286104 15.9233 0.320275C15.9729 0.330423 16.0227 0.339949 16.0725 0.348854C16.21 0.374741 16.3434 0.406634 16.4789 0.442461C16.5422 0.459236 16.6058 0.475182 16.6697 0.490714C16.8347 0.530684 16.9957 0.57086 17.1518 0.631746C17.2191 0.655977 17.2872 0.674408 17.3566 0.693047C17.5279 0.739643 17.6895 0.795352 17.8479 0.869078C17.925 0.904905 18.0013 0.934106 18.0821 0.959785C18.2469 1.01197 18.4035 1.08011 18.5596 1.14866C18.5743 1.15508 18.589 1.1615 18.6041 1.16812C18.836 1.26981 19.0633 1.38143 19.2883 1.49533C19.3462 1.52433 19.4045 1.55249 19.4628 1.58086C19.5985 1.64755 19.7291 1.71962 19.86 1.79417C19.8841 1.80763 19.9082 1.8213 19.9328 1.83518C20.1387 1.9526 20.3368 2.07748 20.5343 2.20588C20.571 2.2299 20.6075 2.25372 20.6442 2.27753C20.7303 2.33345 20.8162 2.38936 20.9014 2.44549C20.9321 2.46558 20.9634 2.48525 20.9946 2.50451C21.0332 2.52833 21.0706 2.55338 21.1078 2.57865V2.62007C21.1206 2.62545 21.1335 2.63084 21.1468 2.63622C21.2056 2.66439 21.2559 2.69732 21.3087 2.73397C21.3362 2.75282 21.3362 2.75282 21.3642 2.77228C21.378 2.78347 21.392 2.79486 21.4062 2.80645V2.84787C21.4189 2.85284 21.4313 2.85781 21.4443 2.86299C21.5107 2.89551 21.5646 2.93527 21.623 2.97855C21.6441 2.99429 21.6654 3.01003 21.6872 3.02639C21.8094 3.12165 21.9164 3.22872 22.0224 3.33703C22.0876 3.40185 22.1556 3.45632 22.2316 3.51037C22.2578 3.53564 22.283 3.56152 22.3076 3.58803C22.3645 3.64809 22.4231 3.70483 22.4855 3.76013C22.6517 3.90841 22.6517 3.90841 22.7137 3.98586V4.02728H22.7596C22.8285 4.09894 22.8285 4.09894 22.8285 4.15154C22.8512 4.15837 22.874 4.16521 22.8974 4.17225C22.9412 4.2147 22.9412 4.2147 22.9906 4.27062C23.0181 4.30168 23.0181 4.30168 23.0462 4.33358L23.104 4.40005C23.1221 4.42097 23.1403 4.44189 23.1589 4.46342C23.2174 4.53177 23.2757 4.60052 23.3336 4.66928C23.3451 4.68295 23.3566 4.69661 23.3683 4.71049C23.7471 5.15989 23.7471 5.15989 23.7471 5.22823H23.793C23.8199 5.26095 23.8199 5.26095 23.8497 5.30713C23.8607 5.32432 23.8717 5.3413 23.8832 5.3587C23.8952 5.37713 23.9071 5.39556 23.9193 5.41461C23.9441 5.45293 23.9691 5.49103 23.9941 5.52914C24.0065 5.5484 24.0191 5.56745 24.032 5.58712C24.0834 5.6652 24.1367 5.74182 24.1904 5.81907C24.3488 6.04688 24.4889 6.27675 24.6151 6.51905C24.6574 6.60106 24.7017 6.68162 24.7472 6.76135C24.8732 6.98709 24.9905 7.21696 25.0823 7.45719C25.1014 7.50462 25.1232 7.54977 25.1466 7.59533C25.2426 7.78606 25.3117 7.98674 25.3785 8.18762C25.3999 8.24975 25.423 8.31126 25.4467 8.37276C25.4928 8.4964 25.5275 8.62128 25.5615 8.74761C25.5824 8.82568 25.6063 8.90293 25.6304 8.97955C25.6754 9.12949 25.7075 9.28191 25.738 9.43309C25.7417 9.45111 25.7452 9.46892 25.7491 9.48735C25.7537 9.51137 25.7537 9.51137 25.7585 9.53602C25.7665 9.57702 25.7665 9.57702 25.7911 9.61699C25.7986 9.65406 25.8051 9.69113 25.811 9.72841C25.817 9.76507 25.817 9.76506 25.8232 9.80255C25.8255 9.81601 25.8276 9.82947 25.8299 9.84335C25.8372 9.88767 25.845 9.93178 25.8528 9.97589C25.9488 10.5185 25.9887 11.0569 25.997 11.6078C25.9975 11.6422 25.9982 11.6768 25.9988 11.7111C26.0009 11.835 26 11.9597 25.9977 12.0818C25.9972 12.103 25.9972 12.103 25.9968 12.1243C25.9949 12.226 25.9929 12.3277 25.9904 12.4287C25.9894 12.4633 25.9887 12.4977 25.9881 12.5321C25.9837 12.7332 25.9697 12.9297 25.9394 13.1285C25.9272 13.2093 25.9206 13.2888 25.916 13.3708C25.9114 13.4487 25.904 13.5183 25.8829 13.5945C25.8788 13.6371 25.8756 13.68 25.8728 13.7227C25.8652 13.82 25.8505 13.9101 25.8246 14.0043C25.8131 14.0534 25.809 14.1008 25.8053 14.1509C25.7915 14.3123 25.7479 14.4699 25.7098 14.6272C25.6839 14.7366 25.662 14.8468 25.6437 14.9586C25.6193 15.1009 25.5826 15.2361 25.5401 15.3749C25.513 15.4652 25.4912 15.5565 25.4697 15.6482C25.4384 15.7789 25.4005 15.905 25.3549 16.0334C25.3282 16.1125 25.3062 16.1923 25.2846 16.2716C25.2573 16.3722 25.2281 16.471 25.1903 16.5677C25.1655 16.6328 25.1434 16.6984 25.1209 16.7639C25.0699 16.9125 25.016 17.06 24.9616 17.207C24.954 17.2282 24.9462 17.2491 24.9382 17.2708C24.8863 17.411 24.8328 17.5504 24.768 17.685C24.7377 17.749 24.7129 17.8128 24.6891 17.8791C24.6514 17.9727 24.6112 18.0644 24.5685 18.1566C24.5265 18.2464 24.4866 18.3372 24.448 18.4279C24.3867 18.573 24.322 18.7137 24.2473 18.8545C24.1984 18.9471 24.1534 19.0407 24.1096 19.1361C24.0308 19.3055 23.9473 19.4696 23.8502 19.6311C23.7813 19.7454 23.7188 19.861 23.6578 19.979C23.5143 20.2544 23.3593 20.5237 23.1871 20.7846C23.1506 20.8405 23.1159 20.8973 23.082 20.9542C23.0209 21.0561 22.9564 21.1559 22.8914 21.2566C22.8563 21.3113 22.8232 21.3665 22.7906 21.4223C22.7135 21.5515 22.6258 21.6749 22.5381 21.7971C22.4805 21.8783 22.4251 21.9597 22.3728 22.0435C22.3021 22.1525 22.2238 22.2568 22.1478 22.3645C22.0656 22.4797 21.9905 22.5965 21.9187 22.7166C21.8824 22.7754 21.8415 22.8293 21.7963 22.8829C21.7426 22.9475 21.6902 23.0121 21.6413 23.0796C21.5394 23.2194 21.4306 23.3551 21.3222 23.4918C21.2809 23.5446 21.2396 23.5974 21.1985 23.6504C21.1801 23.6738 21.1801 23.6738 21.1615 23.6976C21.1321 23.7361 21.1041 23.7753 21.0763 23.8148C21.0637 23.831 21.0508 23.8471 21.0377 23.8639H20.9918C20.9863 23.8784 20.9808 23.8931 20.9753 23.908C20.9406 23.9782 20.8956 24.0302 20.8426 24.0905C20.7436 24.2031 20.6504 24.3183 20.5602 24.4363C20.5368 24.467 20.5115 24.4966 20.4863 24.5258H20.4404C20.4339 24.538 20.4277 24.5502 20.4211 24.5626C20.3956 24.6068 20.3678 24.6432 20.3341 24.6824C20.2574 24.7726 20.1851 24.8652 20.1128 24.9578C20.0997 24.9723 20.0866 24.9868 20.073 25.0017H20.0271C20.0214 25.0129 20.0156 25.0239 20.0099 25.0354C19.9741 25.0965 19.9344 25.1529 19.8894 25.2088H19.8434L19.8219 25.2477C19.806 25.2761 19.7902 25.3047 19.7746 25.333H19.7287C19.7229 25.3442 19.7172 25.3552 19.7114 25.3668C19.6756 25.4279 19.6359 25.4842 19.5909 25.5401H19.545C19.5388 25.5524 19.5326 25.5644 19.5264 25.577C19.4986 25.6236 19.4688 25.6582 19.43 25.6975C19.4169 25.7112 19.4036 25.7247 19.39 25.7387C19.3762 25.7526 19.3625 25.7665 19.3485 25.781C19.3209 25.8087 19.2938 25.8367 19.2665 25.8647C19.2543 25.8769 19.2424 25.8891 19.2298 25.9017C19.1985 25.9334 19.1985 25.9334 19.1777 25.975H19.1317C19.126 25.9866 19.1205 25.9984 19.1147 26.0105C19.0803 26.067 19.0383 26.1088 18.9896 26.1562C18.971 26.1745 18.9524 26.1929 18.9334 26.2115C18.9065 26.238 18.9065 26.2381 18.8792 26.265C18.8523 26.2925 18.8255 26.3201 18.7988 26.3478C18.7389 26.4099 18.6778 26.4708 18.6165 26.5317C18.5293 26.6185 18.4476 26.7084 18.3686 26.8009C18.3342 26.8392 18.3013 26.8749 18.2602 26.9072H18.2143L18.1914 26.9693H18.1454C18.1399 26.9807 18.1346 26.9923 18.1291 27.0039C18.0917 27.0648 18.0444 27.1099 17.9918 27.1609C17.8771 27.2729 17.7632 27.3845 17.6567 27.5046C17.6222 27.5436 17.5894 27.5796 17.5476 27.6121H17.5017V27.6535C17.47 27.6873 17.47 27.6873 17.4328 27.7157H17.3869L17.3639 27.7778H17.318L17.2951 27.8399H17.2491C17.2441 27.8511 17.239 27.8625 17.234 27.8739C17.1924 27.9398 17.1362 27.9892 17.0769 28.0418C17.0655 28.0524 17.054 28.063 17.0423 28.0737C16.9564 28.1506 16.9564 28.1506 16.9048 28.1506L16.8818 28.2127H16.8359C16.8297 28.226 16.8235 28.2392 16.8171 28.2529C16.79 28.2955 16.79 28.2955 16.7211 28.3162L16.6981 28.3784H16.6522V28.4198C16.6217 28.4469 16.6217 28.4469 16.5776 28.4794C16.4908 28.5457 16.4105 28.6161 16.3296 28.6886C16.238 28.7725 16.1448 28.8526 16.045 28.9288C16.0039 28.9603 16.0039 28.9603 15.9534 29.0084C15.9162 29.0407 15.9162 29.0407 15.8703 29.0407L15.8473 29.1028H15.8014V29.1442C15.7692 29.1734 15.7692 29.1734 15.7238 29.2076C15.6255 29.2828 15.5307 29.3608 15.4368 29.4395C15.3886 29.4752 15.3886 29.4752 15.3427 29.4752V29.5166C15.3137 29.5437 15.3137 29.5437 15.2708 29.5762C15.246 29.5953 15.246 29.5953 15.2205 29.6147C15.19 29.6379 15.19 29.6379 15.159 29.6615C15.1193 29.6922 15.0798 29.7226 15.0403 29.7533C15.0123 29.775 14.9841 29.7968 14.956 29.8183C14.8651 29.8883 14.7756 29.9593 14.6874 30.0316C14.6541 30.0546 14.6541 30.0546 14.6082 30.0546L14.5853 30.1167C14.5483 30.1466 14.5483 30.1466 14.4992 30.1789C14.4076 30.2412 14.3194 30.3058 14.2329 30.3731C14.2074 30.3926 14.1821 30.4121 14.1566 30.4315C14.144 30.4413 14.1314 30.4508 14.1185 30.4607C14.0588 30.5063 13.9989 30.5518 13.9388 30.597C13.9185 30.6123 13.8983 30.6274 13.8775 30.6432C13.8283 30.6759 13.8283 30.6759 13.7824 30.6759V30.7173C13.5505 30.9265 13.3186 30.9948 12.9995 30.999C12.9763 30.9994 12.9531 30.9996 12.929 31C12.7144 30.9973 12.5456 30.9401 12.3666 30.8333C12.3457 30.8209 12.3248 30.8084 12.3034 30.7956C12.2839 30.7838 12.2646 30.7718 12.2446 30.7596C12.2277 30.7494 12.2104 30.7393 12.193 30.7287C12.1556 30.7057 12.1195 30.6811 12.0839 30.656V30.6146C12.0709 30.6092 12.0578 30.6038 12.0442 30.5982C11.9882 30.5713 11.9425 30.5402 11.8929 30.5046C11.8275 30.4576 11.7614 30.4127 11.6923 30.37C11.67 30.3551 11.6477 30.3402 11.6248 30.3247V30.2832C11.611 30.2779 11.5972 30.2723 11.5832 30.2665C11.5318 30.2414 11.5019 30.217 11.4627 30.1785C11.3424 30.0666 11.2078 29.9672 11.0655 29.8761C11.0529 29.8668 11.04 29.8575 11.0272 29.8479V29.8065C11.0088 29.7999 11.0088 29.7999 10.99 29.793C10.9151 29.7549 10.8566 29.703 10.7946 29.6499C10.711 29.575 10.711 29.575 10.6139 29.5166V29.4752C10.6001 29.4698 10.5866 29.4642 10.5726 29.4586C10.5202 29.4329 10.4881 29.4068 10.4475 29.3677C10.3476 29.2751 10.2406 29.1908 10.1306 29.1088C10.1159 29.0978 10.1012 29.0869 10.0861 29.0755C10.0661 29.0608 10.0661 29.0608 10.0459 29.0458C10.0172 29.0198 10.0172 29.0198 10.0172 28.9783C10.0044 28.9736 9.9915 28.9688 9.97841 28.964C9.91092 28.9297 9.86569 28.8862 9.81196 28.8361C9.75365 28.7814 9.6974 28.7311 9.63105 28.6845C9.61452 28.672 9.59799 28.6598 9.581 28.647V28.6056C9.55827 28.5987 9.53554 28.5919 9.51213 28.5849V28.5434C9.4894 28.5366 9.46667 28.5298 9.44325 28.5227V28.4813H9.39733V28.4399C9.37874 28.4333 9.37874 28.4333 9.35968 28.4264C9.28598 28.3885 9.23043 28.3368 9.17096 28.2827C9.15834 28.2713 9.14571 28.2599 9.13262 28.2483C9.10622 28.2245 9.07982 28.2005 9.05319 28.1765C9.01278 28.1396 8.97191 28.1029 8.93105 28.0665C8.90533 28.0431 8.87962 28.0199 8.85391 27.9967C8.84151 27.9857 8.82934 27.9748 8.81671 27.9634C8.73154 27.8855 8.73154 27.8855 8.73154 27.8393C8.70881 27.8325 8.68608 27.8256 8.66266 27.8186V27.7772H8.61674C8.57932 27.7488 8.57932 27.7488 8.54787 27.7151V27.6736H8.50195C8.46958 27.644 8.46958 27.644 8.4317 27.6024C8.35112 27.5164 8.2641 27.4384 8.17456 27.3601C8.13508 27.321 8.13508 27.321 8.13508 27.2795H8.08916C8.05105 27.2462 8.05105 27.2462 8.0088 27.2019C7.9948 27.1876 7.98079 27.1731 7.96633 27.1582C7.92845 27.1139 7.92845 27.1139 7.9048 27.0683C7.88414 27.0238 7.88414 27.0238 7.81366 27.0103V26.9689H7.76774C7.72894 26.9349 7.72894 26.9349 7.68601 26.89C7.67154 26.8753 7.65731 26.8606 7.64285 26.8457C7.60703 26.8032 7.60703 26.8032 7.58407 26.7411H7.53816C7.49821 26.6982 7.46056 26.6551 7.42336 26.6104C7.32097 26.4897 7.21329 26.3764 7.09735 26.2666C7.05603 26.2229 7.05603 26.2229 7.05603 26.1815H7.01011C6.97866 26.1494 6.94858 26.1159 6.91965 26.0819C6.85675 26.0076 6.85675 26.0076 6.78603 25.9392C6.75757 25.9123 6.75757 25.9123 6.75757 25.8709H6.71165C6.68088 25.8396 6.68088 25.8396 6.64415 25.7945C6.56242 25.6969 6.4761 25.6037 6.38702 25.5107C6.20541 25.3188 6.20541 25.3188 6.20541 25.2705H6.1595C6.12827 25.2367 6.09889 25.2013 6.07042 25.1657C5.98708 25.0626 5.90098 24.9621 5.81328 24.8634L5.74234 24.7838C5.72581 24.7652 5.72581 24.7652 5.70882 24.7461C5.64408 24.6734 5.58071 24.5997 5.51781 24.5266C5.49026 24.4945 5.49026 24.4945 5.46225 24.4616C5.44296 24.4388 5.42368 24.416 5.40439 24.3932C5.37776 24.362 5.37776 24.362 5.35067 24.3301C5.31118 24.2781 5.31118 24.2781 5.31118 24.2367H5.26526C5.17343 24.1246 5.17343 24.1246 5.17343 24.071H5.12751C5.09698 24.0354 5.09698 24.0354 5.06277 23.9869C5.01823 23.9242 4.97277 23.8631 4.92364 23.803C4.87497 23.7397 4.87497 23.7397 4.87497 23.6982H4.82905C4.79301 23.6535 4.75995 23.609 4.72712 23.5624C4.63391 23.4329 4.53633 23.3077 4.43325 23.1855C4.38343 23.1254 4.33774 23.0656 4.2971 23.0001C4.25762 22.9322 4.25762 22.9322 4.20366 22.8761C4.16349 22.8295 4.16349 22.8295 4.16349 22.7673H4.11757C4.08084 22.7197 4.04732 22.6721 4.01426 22.6224C3.99336 22.5917 3.97247 22.5609 3.95158 22.5302C3.94079 22.5143 3.93023 22.4985 3.91921 22.4824C3.88156 22.4267 3.84344 22.3716 3.80487 22.3163C3.77641 22.2755 3.74817 22.2345 3.71993 22.1935C3.67677 22.1311 3.63337 22.0692 3.58975 22.0075C3.42583 21.7756 3.27752 21.5353 3.13517 21.293C3.04334 21.1356 2.94623 20.9824 2.84131 20.8312C2.7683 20.7246 2.70424 20.6158 2.64295 20.504C2.59014 20.4073 2.53458 20.3122 2.47787 20.2182C2.39178 20.0734 2.31257 19.9262 2.23681 19.7771C2.19939 19.7044 2.16128 19.6336 2.11651 19.5638C2.08207 19.5097 2.0559 19.4606 2.03225 19.4025C1.99529 19.3157 1.95167 19.2341 1.9046 19.1519C1.83871 19.0361 1.78315 18.9179 1.73103 18.7977C1.70302 18.7331 1.6741 18.6704 1.63782 18.6089C1.58548 18.5188 1.54851 18.4233 1.50971 18.3272C1.46632 18.2208 1.41949 18.116 1.37082 18.0124C1.31503 17.8921 1.2659 17.7722 1.22205 17.6479C1.20299 17.5976 1.18095 17.551 1.15569 17.5032C1.10335 17.4017 1.0735 17.2961 1.0409 17.1884C1.02116 17.1281 0.998888 17.072 0.972027 17.0142C0.924962 16.9128 0.89282 16.8094 0.860449 16.7036C0.825552 16.5911 0.785144 16.4799 0.744737 16.3681C0.710299 16.2716 0.68252 16.1757 0.66048 16.0761C0.654051 16.0396 0.654052 16.0396 0.627649 16.0191C0.617088 15.9775 0.606757 15.9359 0.596884 15.8943C0.578977 15.8216 0.558774 15.7495 0.53857 15.6768C0.402886 15.1901 0.292914 14.6993 0.20108 14.2023C0.193504 14.1621 0.185468 14.1219 0.177662 14.0818C0.150112 13.9422 0.132204 13.8022 0.115904 13.6614C0.108787 13.5998 0.10167 13.5398 0.087895 13.4791C0.0732016 13.4114 0.0704472 13.3437 0.0670034 13.2747C0.0617229 13.1778 0.0552937 13.0811 0.0431257 12.9848C0.000422871 12.6451 0.000423655 12.3034 0.000882825 11.9617C0.00111241 11.8942 0.000882376 11.8269 0.000423206 11.7594C-0.00187264 11.399 0.0043257 11.0387 0.0401409 10.6784C0.0415185 10.6637 0.0431256 10.6489 0.0445031 10.634C0.0594261 10.4864 0.0777929 10.342 0.113379 10.1971C0.130597 10.1231 0.133353 10.0484 0.137944 9.9734C0.146439 9.90444 0.161821 9.83921 0.179269 9.77169C0.200391 9.68782 0.218069 9.60312 0.236436 9.51904C0.265593 9.38484 0.297047 9.25188 0.336306 9.11934C0.35054 9.06695 0.362019 9.01497 0.373269 8.96195C0.396916 8.85302 0.430665 8.74864 0.467398 8.64302C0.516529 8.50013 0.51653 8.50013 0.559004 8.35516C0.585406 8.2572 0.619844 8.16194 0.6552 8.06523C0.662317 8.04638 0.669434 8.02733 0.676551 8.00765C0.72706 7.87325 0.783307 7.74257 0.844836 7.61003C0.891671 7.51063 0.934146 7.41018 0.975241 7.30767C1.02001 7.19812 1.06983 7.09229 1.12998 6.98874C1.15478 6.94567 1.17659 6.90239 1.19771 6.85786C1.26245 6.72387 1.3373 6.59485 1.4103 6.46438C1.43785 6.41468 1.46472 6.36456 1.49181 6.31465C1.5391 6.22953 1.59213 6.14856 1.64724 6.06821C1.68213 6.01581 1.7145 5.96259 1.74619 5.90874C1.82631 5.77599 1.91218 5.6478 1.99873 5.51733C2.00677 5.50553 2.01457 5.49372 2.02284 5.48171C2.13212 5.32121 2.2453 5.16693 2.37869 5.02196C2.42231 4.97661 2.42231 4.97661 2.44137 4.91386H2.48729C2.49578 4.89729 2.49578 4.89729 2.50451 4.88031C2.54009 4.81921 2.58142 4.7633 2.62504 4.70676C2.63996 4.6875 2.65488 4.66803 2.67027 4.64815C2.68657 4.62744 2.70287 4.60653 2.71963 4.5852C2.73547 4.56511 2.75108 4.54502 2.76715 4.52452C2.78093 4.5094 2.79447 4.49449 2.80871 4.47896H2.85462C2.86312 4.46239 2.86312 4.46239 2.87184 4.44541C2.90743 4.38411 2.94715 4.32778 2.99237 4.27186H3.03829C3.0438 4.26047 3.04931 4.24908 3.05528 4.23728C3.09041 4.17888 3.13311 4.13145 3.18017 4.0803C3.20795 4.05027 3.20795 4.05027 3.23596 4.01983C3.29543 3.95645 3.35558 3.8937 3.41688 3.83199C3.45315 3.79492 3.45315 3.79492 3.48759 3.74957C3.49838 3.73735 3.50917 3.72534 3.52042 3.7127H3.56634V3.67128C3.5909 3.64768 3.61593 3.62427 3.64187 3.6017C3.67286 3.57478 3.70317 3.54723 3.73301 3.51948C3.75138 3.5025 3.76975 3.48552 3.78857 3.46812C3.80625 3.45176 3.82393 3.4354 3.84207 3.41863C3.88775 3.38135 3.88776 3.38135 3.93367 3.38135V3.33993C3.96811 3.30928 3.96811 3.30928 4.0154 3.27387C4.09691 3.21195 4.17152 3.1465 4.24476 3.07671C4.27805 3.05 4.27805 3.05 4.32397 3.05V3.00858C4.35749 2.97731 4.35749 2.97731 4.40134 2.94397C4.4158 2.93278 4.43026 2.9216 4.44496 2.91C4.48468 2.88432 4.48468 2.88432 4.53059 2.88432V2.8429C4.57858 2.80583 4.62656 2.77125 4.67684 2.73687C4.70645 2.71637 4.73584 2.69587 4.76523 2.67536C4.77992 2.66522 4.79461 2.65507 4.80977 2.64471C4.88714 2.59045 4.96267 2.53392 5.0382 2.47779C5.0816 2.44942 5.0816 2.44942 5.12751 2.44942V2.408C5.16034 2.38253 5.16034 2.38253 5.20626 2.35416C5.22256 2.34401 5.23886 2.33386 5.25585 2.32351C5.27307 2.31295 5.29052 2.30238 5.3082 2.29162C5.32542 2.28085 5.34263 2.27028 5.36008 2.2591C5.48865 2.1802 5.48865 2.1802 5.54077 2.1802V2.13878C5.57406 2.11476 5.57406 2.11476 5.62043 2.08866C5.63742 2.07893 5.65418 2.0692 5.67163 2.05925C5.68954 2.04931 5.70745 2.03917 5.72581 2.02881C5.76048 2.00914 5.79515 1.98926 5.83004 1.96958C5.84703 1.95985 5.86425 1.94991 5.8817 1.93997C5.92693 1.91346 5.97055 1.88571 6.01417 1.85713C6.07731 1.81571 6.14228 1.77988 6.2107 1.74571C6.25546 1.72314 6.29954 1.69974 6.34385 1.67634C6.35947 1.66805 6.37508 1.65977 6.39138 1.65107C6.40745 1.64237 6.42375 1.63388 6.44028 1.62498C6.4575 1.61586 6.47472 1.60675 6.49263 1.59743C6.56655 1.55808 6.64071 1.51874 6.71394 1.47835C6.86868 1.39427 7.02848 1.32407 7.19148 1.25469C7.30191 1.2083 7.40936 1.15943 7.5152 1.10641C7.61736 1.05567 7.71884 1.01322 7.82743 0.976146C7.88024 0.957714 7.93143 0.937419 7.98286 0.916088C8.07745 0.877569 8.17388 0.845676 8.27214 0.815233C8.32747 0.79618 8.37958 0.775678 8.43308 0.753104C8.56509 0.699674 8.70169 0.662189 8.83944 0.62367C8.88995 0.60938 8.94046 0.595091 8.9912 0.580801C9.01324 0.574588 9.03528 0.568375 9.05824 0.561955C9.11839 0.543938 9.1767 0.523436 9.23548 0.501898C9.26578 0.495271 9.29655 0.489058 9.32731 0.48388C9.41157 0.467727 9.49215 0.44681 9.57526 0.422994C9.78832 0.362522 10.0069 0.319032 10.2227 0.274093C10.2411 0.270365 10.2594 0.26643 10.2783 0.262495C10.3761 0.242614 10.4734 0.225218 10.5721 0.211964C10.6102 0.206787 10.6102 0.206787 10.649 0.201609C10.6747 0.198296 10.7005 0.194775 10.7271 0.191255C10.8697 0.171995 11.0118 0.152528 11.1541 0.127883C11.2687 0.108416 11.3823 0.0995114 11.4985 0.0928843C11.5545 0.0908134 11.5545 0.0908134 11.6004 0.0669974C11.6326 0.0634768 11.6649 0.0609916 11.6973 0.0589207C11.7276 0.0570568 11.7276 0.0570568 11.7584 0.055193C11.7912 0.0533291 11.7912 0.0533291 11.825 0.0514653C11.8477 0.0500156 11.8704 0.048773 11.8938 0.0473233C12.8833 -0.0106633 13.9211 -0.0485618 14.9014 0.139688L14.9032 0.144451ZM10.8396 7.4135C10.8031 7.42882 10.7668 7.44415 10.7303 7.45927C10.6917 7.47542 10.6529 7.49178 10.6141 7.50793C10.5962 7.5156 10.5781 7.52305 10.5595 7.53092C10.3588 7.61583 10.1807 7.72642 9.99701 7.83949C9.97795 7.8513 9.9589 7.86289 9.93938 7.87491C9.79934 7.96002 9.79934 7.96002 9.66847 8.0557V8.09712H9.62256V8.13854C9.60281 8.14662 9.60281 8.14662 9.58261 8.15469C9.5259 8.18244 9.48159 8.21413 9.43315 8.25244C9.41685 8.26507 9.40055 8.27771 9.38402 8.29075C9.34177 8.32202 9.34177 8.32202 9.34705 8.36634C9.31285 8.3767 9.31285 8.3767 9.27818 8.38705V8.42847H9.23226C9.19622 8.45995 9.19622 8.45995 9.15902 8.50095C9.08762 8.57717 9.01462 8.65151 8.94023 8.72462C8.90602 8.75734 8.90602 8.75734 8.91084 8.80042H8.86493C8.82153 8.8497 8.78113 8.89899 8.74141 8.95056C8.72924 8.9663 8.7173 8.98183 8.70468 8.99798C8.56417 9.18188 8.43836 9.37283 8.31438 9.5675C8.29969 9.59028 8.28476 9.61306 8.26961 9.63646C8.20165 9.74436 8.15046 9.85184 8.10592 9.96988C8.08686 10.0185 8.06482 10.0639 8.04026 10.1105C7.91169 10.3673 7.85062 10.6427 7.7946 10.9182C7.78542 10.9557 7.78542 10.9557 7.76246 10.9971C7.75764 11.025 7.75396 11.0532 7.75098 11.0814C7.74914 11.0983 7.74708 11.1151 7.74524 11.1325C7.74226 11.159 7.74226 11.159 7.7395 11.1862C7.7356 11.2207 7.7317 11.2553 7.72802 11.2897C7.72618 11.3069 7.72412 11.3239 7.72228 11.3415C7.717 11.3854 7.71057 11.4289 7.70392 11.4726C7.68968 11.5732 7.68922 11.6737 7.68922 11.7749V11.8358C7.69037 11.9773 7.70346 12.1133 7.72779 12.2521C7.7395 12.3231 7.74593 12.3931 7.75098 12.4654C7.75947 12.5737 7.7783 12.6725 7.80838 12.7781C7.8148 12.8023 7.821 12.8266 7.82766 12.8516C7.90388 13.1395 7.9948 13.4191 8.13071 13.6883C8.13691 13.7013 8.14334 13.7142 8.15 13.7274C8.25767 13.9469 8.38188 14.152 8.51963 14.357C8.54121 14.3891 8.56164 14.4218 8.58208 14.4547C8.59218 14.4684 8.60205 14.4823 8.61261 14.4964H8.65853C8.66358 14.5104 8.66863 14.5245 8.67368 14.539C8.7134 14.6177 8.76781 14.6782 8.82773 14.7449C8.84449 14.7637 8.84449 14.7637 8.86125 14.7828C8.88306 14.8072 8.90464 14.8317 8.92668 14.8559C8.95446 14.8869 8.98133 14.9188 9.00796 14.9507C9.0215 14.9648 9.03482 14.9789 9.04882 14.9934H9.09474C9.10094 15.0058 9.10691 15.018 9.11334 15.0307C9.14066 15.0764 9.16821 15.1063 9.20884 15.1427C9.22239 15.1547 9.23571 15.1669 9.24948 15.1794C9.26372 15.1918 9.27795 15.2044 9.29264 15.2173C9.30734 15.2303 9.3218 15.2434 9.33695 15.2568C9.43682 15.3452 9.53807 15.4306 9.6446 15.5115C9.66227 15.5254 9.67972 15.5393 9.69809 15.5536C9.88222 15.6952 10.0815 15.8104 10.2881 15.9264C10.3122 15.94 10.3366 15.9539 10.3614 15.968C10.5172 16.0533 10.6782 16.1202 10.8458 16.1834C10.9096 16.2078 10.9723 16.2331 11.035 16.2598C11.2358 16.3405 11.4505 16.3985 11.664 16.4435C11.69 16.4505 11.69 16.4505 11.7166 16.4576C12.201 16.586 12.7015 16.5967 13.202 16.5884C13.228 16.5882 13.228 16.5882 13.2546 16.588C13.6288 16.5839 14.049 16.5536 14.3956 16.4228C14.4491 16.4087 14.5026 16.395 14.5563 16.3813C14.9007 16.2836 15.2221 16.1577 15.5436 16.0086C15.5741 15.9947 15.6046 15.981 15.6354 15.9672V15.9257C15.6519 15.9201 15.6687 15.9146 15.6859 15.9088C15.8705 15.8386 16.0326 15.7215 16.191 15.6147C16.2061 15.6045 16.2213 15.5942 16.2369 15.5836C16.3127 15.532 16.3873 15.479 16.4603 15.4246C16.4736 15.4146 16.4869 15.4047 16.5007 15.3943C16.5349 15.3687 16.5349 15.3687 16.5296 15.326C16.5478 15.3196 16.5478 15.3196 16.5666 15.3131C16.6446 15.2726 16.702 15.2179 16.7649 15.1603C16.7776 15.1491 16.7904 15.1377 16.8035 15.1261C16.8738 15.0708 16.8738 15.0708 16.897 14.9946H16.9429C16.9849 14.9505 17.0244 14.9062 17.0634 14.86C17.0747 14.8468 17.0861 14.8335 17.0978 14.8196C17.1304 14.7815 17.1628 14.7432 17.1954 14.7047C17.2097 14.6881 17.2239 14.6716 17.2386 14.6544C17.38 14.5061 17.38 14.5061 17.448 14.3313H17.4939C17.7039 13.9917 17.8911 13.6479 18.0219 13.2751L18.0577 13.1807C18.1383 12.9612 18.1891 12.7375 18.2285 12.5097C18.2334 12.4828 18.2382 12.4561 18.243 12.4283C18.3521 11.747 18.2926 10.9745 18.0215 10.3366C18.0001 10.284 17.9824 10.2317 17.9657 10.1778C17.8091 9.69734 17.4881 9.19203 17.1254 8.81098H17.0795C17.0735 8.79938 17.0675 8.78778 17.0616 8.77577C17.0303 8.72275 16.9938 8.6774 16.9532 8.62977C16.9392 8.6132 16.9252 8.59663 16.9107 8.57965C16.8919 8.56101 16.8919 8.56101 16.8728 8.54175H16.8269L16.804 8.47962H16.7581C16.7528 8.46761 16.7475 8.45581 16.7422 8.44338C16.7041 8.38457 16.6573 8.35537 16.5973 8.31395C16.559 8.27957 16.5207 8.24499 16.4826 8.2104C16.2688 8.03416 16.0372 7.88733 15.7961 7.74237C15.7522 7.71544 15.71 7.68748 15.6678 7.6587C15.575 7.59864 15.474 7.55722 15.3693 7.51456C15.3321 7.49903 15.2947 7.4835 15.2575 7.46796C15.2394 7.4603 15.2212 7.45285 15.2026 7.44518C15.1521 7.42365 15.1025 7.40107 15.0527 7.37808C14.9797 7.34495 14.9067 7.31927 14.8284 7.29711C14.7531 7.27557 14.6796 7.25321 14.6059 7.22732C13.4282 6.82555 11.9657 6.93324 10.8407 7.42261L10.8396 7.4135Z" fill="#15575B"/>
</svg>
