<svg width="33" height="32" viewBox="0 0 33 32" fill="none" xmlns="http://www.w3.org/2000/svg">
<path d="M6.57549 0.630165C7.16053 0.609844 7.59482 0.695154 8.04485 1.05269C8.13756 1.13317 8.21632 1.21627 8.28562 1.31426V1.3545C8.3079 1.36114 8.33018 1.36778 8.35313 1.37462C8.39386 1.42673 8.42131 1.48568 8.45169 1.54323C8.46429 1.56556 8.46429 1.56556 8.47711 1.5883C8.8664 2.32269 8.68166 3.2442 8.69066 3.98262H24.5544L24.5769 2.17179C24.6919 1.72713 24.8627 1.26637 25.297 0.984686H25.342C25.3476 0.972413 25.3533 0.96014 25.3591 0.947464C25.3915 0.897163 25.4165 0.882475 25.473 0.855111C25.4991 0.842435 25.4991 0.842435 25.5258 0.829558C25.9354 0.641232 26.3652 0.537813 26.8197 0.666583C26.9549 0.708031 27.0852 0.760747 27.209 0.823723V0.863964C27.2319 0.870805 27.2319 0.870805 27.2553 0.877847C27.3885 0.930965 27.4826 1.00119 27.5681 1.10521C27.5886 1.12311 27.6091 1.14082 27.63 1.15933C27.6806 1.20581 27.6806 1.20581 27.6806 1.24605C27.7029 1.25269 27.7252 1.25933 27.7481 1.26617C28.1262 1.67461 28.1599 2.20378 28.1554 2.70478C28.1545 2.78385 28.1538 2.86272 28.1534 2.9422C28.1534 2.96252 28.1532 2.98284 28.1532 3.00397C28.1525 3.32992 28.1655 3.65587 28.1766 3.98182C28.1984 3.98162 28.1984 3.98162 28.2209 3.98162C28.5787 3.97981 28.9342 3.9784 29.292 3.97759C29.4646 3.97719 29.6385 3.97659 29.8095 3.97578C29.9603 3.97498 30.111 3.97437 30.2618 3.97417C30.3412 3.97417 30.4209 3.97397 30.5003 3.97337C30.9301 3.97015 31.3194 3.97679 31.7087 4.1629C31.73 4.17276 31.7514 4.18262 31.7735 4.19288C31.9065 4.25787 32.0255 4.33252 32.1403 4.42024C32.1529 4.4297 32.1657 4.43915 32.1787 4.44901C32.2368 4.49388 32.2687 4.52004 32.2935 4.58623C32.3232 4.59992 32.3533 4.6134 32.3835 4.62647C32.4731 4.70454 32.5473 4.79045 32.6085 4.88804C32.6182 4.90011 32.6279 4.91218 32.6378 4.92446C32.8673 5.21218 32.9955 5.57032 32.9933 5.92243V5.97273C32.9935 6.02846 32.9933 6.0844 32.9933 6.14013C32.9933 6.18077 32.9935 6.22121 32.9935 6.26186V6.59787C32.9935 6.7196 32.9937 6.84133 32.9937 6.96205C32.994 7.17532 32.994 7.3886 32.994 7.60188C32.994 7.83125 32.994 8.06062 32.9942 8.28798V8.33184V8.5083C32.9946 9.20446 32.9949 9.90264 32.9949 10.6008C32.9949 10.9469 32.9951 11.295 32.9951 11.641L32.9958 14.981V15.1406V15.4605V15.8347V15.942C32.9958 17.0888 32.9962 18.2357 32.9967 19.3826C32.9971 20.2075 32.9973 21.0324 32.9976 21.8574V21.9087V23.0254V23.4257V23.5251C32.9976 24.0523 32.9978 24.5815 32.9982 25.1106C32.9985 25.6418 32.9987 26.175 32.9985 26.7062V26.9275V26.9712C32.9982 27.1985 32.9985 27.4279 32.9987 27.6553C32.9989 27.8806 32.9989 28.1039 32.9987 28.3273C32.9987 28.4474 32.9987 28.5667 32.9989 28.6874C32.9991 28.7965 32.9991 28.9047 32.9989 29.0154C32.9987 29.0546 32.9989 29.0939 32.9989 29.1331C32.9998 29.3363 32.9935 29.5214 32.9229 29.7166C32.9157 29.7411 32.9087 29.7657 32.9013 29.791C32.8617 29.915 32.8153 30.0144 32.7303 30.117C32.6987 30.157 32.6758 30.1959 32.6528 30.2399C32.6054 30.3288 32.541 30.4031 32.4728 30.4793C32.4562 30.4993 32.4395 30.5192 32.4222 30.5397C32.4091 30.553 32.3963 30.5663 32.3828 30.5799H32.3378C32.329 30.5979 32.329 30.5979 32.3203 30.6162C32.2906 30.664 32.2606 30.6908 32.2141 30.7258C32.1936 30.7415 32.1936 30.7415 32.1727 30.7576C32.1353 30.7812 32.1353 30.7812 32.0903 30.7812L32.0678 30.8415C32.0154 30.8767 32.0154 30.8767 31.9497 30.9131C31.9283 30.9252 31.9067 30.9373 31.8846 30.9498C31.8264 30.9793 31.7703 31.0019 31.7078 31.0226C31.6306 31.052 31.5539 31.0813 31.4782 31.1143C31.2532 31.1997 30.9945 31.1902 30.7537 31.1918C30.7168 31.1922 30.6801 31.1926 30.6432 31.193C30.5424 31.194 30.4418 31.1948 30.3417 31.1954C30.2769 31.196 30.2118 31.1964 30.147 31.197C29.04 31.2067 27.9306 31.2065 26.8168 31.2063H26.1687H26.121H25.9279C25.3362 31.2065 24.7444 31.2065 24.1503 31.2065C23.581 31.2063 23.0117 31.2063 22.4424 31.2063H22.3342C22.1893 31.2063 22.0439 31.2063 21.8999 31.2065H20.6848H20.629C20.0439 31.2065 19.4589 31.2065 18.8739 31.2063H18.8167H17.8964H14.2286H13.306H13.2486C12.6636 31.2065 12.0785 31.2065 11.4935 31.2065H11.4377C11.0349 31.2065 10.6299 31.2065 10.2271 31.2063H9.7928H9.68501C9.11572 31.2063 8.54417 31.2063 7.97487 31.2065C7.38533 31.2065 6.79578 31.2065 6.20623 31.2063H6.01542H5.96816H5.1896C4.96233 31.2065 4.73506 31.2063 4.50779 31.2063H4.12076C3.65047 31.2065 3.18244 31.2057 2.71215 31.1982C2.67074 31.1976 2.62934 31.197 2.58816 31.1966C2.16963 31.1918 1.8051 31.1262 1.44957 30.923C1.42279 30.9087 1.42279 30.9087 1.39557 30.8942C1.37892 30.8856 1.36249 30.8767 1.34561 30.8677C1.32356 30.856 1.32356 30.856 1.30106 30.8441C1.29071 30.8369 1.28036 30.8298 1.26956 30.8224V30.7822C1.25336 30.7775 1.23715 30.7731 1.22028 30.7683C0.851248 30.6142 0.578976 30.0983 0.443965 29.7804C0.299728 29.4041 0.298603 29.0118 0.299053 28.6194V28.5021V28.1802V27.8301C0.298828 27.6128 0.299053 27.3955 0.299053 27.1762V26.5585V26.5164V26.347C0.298828 25.8219 0.298828 25.2967 0.298828 24.7696V24.7225V24.6752C0.299053 24.2004 0.299053 23.7255 0.299053 23.2507V23.1551C0.299053 23.0274 0.299053 22.8996 0.298828 22.7708V21.6984V21.6491C0.298828 21.13 0.298828 20.6109 0.299053 20.0938V20.0427V19.2238V15.9844V15.1655V15.1146C0.298828 14.5975 0.298828 14.0784 0.298828 13.5613V13.512C0.298828 13.1559 0.298828 12.7978 0.299053 12.4416V12.0593V11.964C0.299053 11.4891 0.299053 11.0143 0.298828 10.5394V10.4924V10.4453C0.298828 9.92216 0.298828 9.39701 0.299053 8.87389V8.70487V8.66302V8.04734C0.298828 7.81797 0.298828 7.59061 0.299053 7.36325V7.01919V6.70531V6.59284C0.298378 6.04355 0.344057 5.56066 0.616329 5.06168H0.661333C0.664933 5.04478 0.664933 5.04478 0.668758 5.02747C0.713087 4.89126 0.82312 4.76188 0.932029 4.65927H0.977033C0.982208 4.648 0.987159 4.63694 0.992559 4.62527C1.03036 4.56551 1.07807 4.52366 1.13455 4.47819C1.1485 4.46652 1.16245 4.45505 1.17685 4.44298C1.39939 4.27095 1.69439 4.11904 1.98466 4.06471C2.03619 4.05586 2.03619 4.05586 2.08705 4.03473C2.26594 3.97457 2.48083 3.99148 2.66759 3.99208H2.7468C2.83253 3.99208 2.91804 3.99208 3.00332 3.99228C3.06295 3.99228 3.12258 3.99248 3.18221 3.99248C3.32285 3.99248 3.46348 3.99268 3.603 3.99288C3.76321 3.99308 3.92252 3.99308 4.08453 3.99329C4.41306 3.99349 4.74159 3.99389 5.07236 3.99429C5.07214 3.9621 5.07214 3.9621 5.07191 3.9293C5.07056 3.72609 5.06944 3.52287 5.06876 3.31764C5.06854 3.21302 5.06809 3.10839 5.06719 3.00377C5.06651 2.90256 5.06606 2.80055 5.06606 2.69995C5.06584 2.66152 5.06561 2.62329 5.06516 2.58486C5.06246 2.29513 5.07619 2.01143 5.20467 1.74182C5.21345 1.72331 5.21345 1.72331 5.22245 1.70419C5.35499 1.42854 5.53973 1.19917 5.7985 1.00601C5.83968 0.975029 5.83968 0.975029 5.8795 0.93519C5.93576 0.888109 5.99066 0.862757 6.06019 0.83318C6.09417 0.818492 6.09417 0.818492 6.12882 0.803402C6.15155 0.793744 6.1745 0.784086 6.19791 0.774026C6.22063 0.763563 6.24313 0.753101 6.26654 0.742236C6.32864 0.715476 6.3876 0.696563 6.45398 0.679662C6.47355 0.674631 6.49313 0.669601 6.51338 0.66437C6.52823 0.660748 6.54286 0.657127 6.55793 0.653304V0.633183L6.57549 0.630165ZM5.02286 6.14315C5.01408 6.15763 5.00531 6.17212 4.99608 6.18721C4.95175 6.24858 4.90135 6.29345 4.84285 6.34435C4.74564 6.43972 4.68398 6.5536 4.61783 6.66628C4.61063 6.67835 4.60343 6.69062 4.596 6.7031C4.15947 7.4395 4.09196 8.24432 4.34848 9.03706C4.50307 9.4777 4.76251 9.86401 5.13604 10.1839C5.1545 10.2014 5.17317 10.2187 5.1923 10.2366C5.30706 10.3399 5.30706 10.3399 5.45107 10.3851V10.4254C5.508 10.4646 5.5719 10.495 5.63378 10.5272C5.65111 10.5364 5.66821 10.5457 5.68576 10.5553C5.78005 10.6048 5.85723 10.6388 5.96929 10.6467V10.6869C6.00866 10.6972 6.04804 10.7071 6.08742 10.7171C6.10925 10.7227 6.1313 10.7284 6.1538 10.734C6.22063 10.7503 6.22063 10.7503 6.30681 10.7473L6.32932 10.7875C6.51608 10.8338 6.71185 10.834 6.90311 10.8328C6.94137 10.833 6.94136 10.833 6.98029 10.8332C7.53609 10.8322 8.02888 10.638 8.45866 10.3302C8.47509 10.3185 8.49129 10.3069 8.50817 10.2948C8.52324 10.2837 8.53832 10.2727 8.55385 10.2614C8.57432 10.2463 8.57432 10.2463 8.59525 10.2312C8.6299 10.2059 8.6299 10.2059 8.62473 10.1642C8.63868 10.1592 8.65263 10.1541 8.66703 10.1491C8.71788 10.1276 8.71788 10.1276 8.73724 10.0837C8.76559 10.033 8.79416 10.0274 8.84974 10.0032L8.87225 9.94288L8.93975 9.88252V9.84228H8.98476C9.4933 9.22056 9.66656 8.39764 9.54505 7.64916C9.46652 7.22059 9.30203 6.77996 9.00726 6.42785C8.99218 6.40874 8.97688 6.38982 8.96135 6.37011C8.87112 6.24979 8.87112 6.24979 8.75974 6.14677H8.69223C8.66545 6.19466 8.6668 6.22363 8.6668 6.27695C8.66658 6.29586 8.66658 6.31477 8.66658 6.33429V6.39727C8.66635 6.4192 8.66635 6.44113 8.66635 6.46367C8.66613 6.51135 8.6659 6.55904 8.6659 6.60692C8.66568 6.68258 8.66545 6.75823 8.665 6.83428C8.66388 7.04957 8.66275 7.26486 8.6623 7.48015C8.66208 7.61194 8.6614 7.74372 8.6605 7.87451C8.66028 7.9244 8.66028 7.9745 8.66028 8.0244C8.6605 8.28798 8.6587 8.53144 8.55722 8.78093C8.54732 8.80588 8.53742 8.83083 8.52707 8.85658C8.46586 9.00728 8.38643 9.13022 8.2863 9.26301C8.27662 9.27951 8.26672 9.29621 8.25682 9.31331C8.21249 9.37186 8.16186 9.40989 8.10111 9.45456C8.03315 9.50526 7.9724 9.5622 7.91232 9.62015C7.88127 9.6453 7.88127 9.6453 7.81376 9.66542C7.80408 9.67447 7.79418 9.68373 7.78428 9.69319C7.70035 9.76542 7.58469 9.79661 7.47601 9.83141C7.44271 9.84248 7.41008 9.85435 7.37768 9.86703C7.02215 9.98433 6.57661 9.95133 6.23458 9.81632C6.14908 9.77669 6.07234 9.73001 5.99606 9.6785C5.94588 9.64429 5.94588 9.64429 5.88985 9.61713C5.82302 9.57931 5.77465 9.53544 5.72042 9.48434C5.70241 9.46784 5.68441 9.45154 5.66574 9.43464C5.53073 9.30667 5.42722 9.1771 5.33721 9.02217C5.32686 9.00426 5.31651 8.98616 5.30571 8.96765C5.1653 8.70809 5.10949 8.44452 5.10747 8.15881C5.10724 8.13708 5.10702 8.11555 5.10679 8.09321C5.10612 8.02219 5.10567 7.95117 5.10499 7.87994C5.10454 7.83064 5.10409 7.78115 5.10364 7.73185C5.10252 7.60187 5.10139 7.4723 5.10027 7.34152C5.09914 7.20892 5.09779 7.07593 5.09667 6.94313C5.09419 6.68358 5.09194 6.42403 5.08969 6.16246C5.06741 6.15582 5.04514 6.14918 5.02218 6.14234L5.02286 6.14315ZM24.5094 6.14315C24.2979 6.35844 24.2979 6.35844 24.1292 6.59988C24.099 6.65461 24.0682 6.70893 24.0364 6.76286C23.9041 6.99022 23.8231 7.21556 23.7574 7.46506C23.7437 7.51073 23.7437 7.51073 23.7212 7.53085C23.6589 7.86284 23.6652 8.20287 23.6944 8.53687C23.696 8.55618 23.6976 8.5753 23.6991 8.59522C23.7113 8.71815 23.7403 8.82459 23.7887 8.93928C23.802 8.97388 23.8153 9.00849 23.8283 9.0431C23.9536 9.40325 23.9536 9.40325 24.1816 9.71311C24.225 9.75254 24.25 9.79842 24.2797 9.84671C24.3251 9.91351 24.3821 9.97085 24.4395 10.0296C24.4509 10.0417 24.4624 10.0537 24.4743 10.0662C24.5405 10.1348 24.608 10.1914 24.6883 10.2471C24.7061 10.2634 24.7239 10.2795 24.7421 10.2964C24.8083 10.3541 24.8771 10.4 24.9541 10.4459C24.9687 10.4545 24.9833 10.4632 24.9982 10.472C25.2389 10.6115 25.518 10.7075 25.7902 10.7819C25.8073 10.7867 25.8247 10.7916 25.8422 10.7966C26.0166 10.8342 26.191 10.8334 26.3688 10.8336C26.3935 10.8338 26.4185 10.834 26.4439 10.8342C27.191 10.8354 27.7535 10.4982 28.2688 10.0455C28.3152 10.0081 28.3152 10.0081 28.3102 9.9636H28.3552C28.4135 9.90043 28.4621 9.83061 28.5127 9.7624C28.5258 9.7453 28.5391 9.72799 28.5526 9.71029C28.7067 9.50305 28.8248 9.27971 28.8946 9.03827C28.902 9.01533 28.9092 8.99239 28.9169 8.96885C29.0044 8.69119 29.0384 8.41957 29.0366 8.13185C29.0366 8.11012 29.0366 8.11012 29.0364 8.08798C29.0341 7.69966 28.9963 7.30329 28.8046 6.94515L28.7596 6.92503C28.7519 6.89163 28.7445 6.85802 28.7371 6.82442C28.6435 6.62121 28.5121 6.44616 28.359 6.27313C28.3329 6.24335 28.308 6.21276 28.283 6.18218C28.2623 6.16146 28.2623 6.16146 28.2411 6.14053H28.1736C28.1475 6.18741 28.1482 6.21458 28.148 6.26669C28.148 6.2848 28.1478 6.3027 28.1478 6.32141C28.1475 6.34133 28.1475 6.36105 28.1475 6.38157C28.1475 6.4025 28.1473 6.42322 28.1473 6.44475C28.1471 6.49043 28.1469 6.5359 28.1466 6.58137C28.1464 6.6536 28.146 6.72583 28.1455 6.79867C28.1442 7.0039 28.1428 7.20913 28.1421 7.41435C28.1417 7.54011 28.1408 7.66586 28.1399 7.7906C28.1394 7.83829 28.1394 7.88597 28.1392 7.93366C28.1385 8.40448 28.0899 8.84713 27.7702 9.23947C27.7605 9.25154 27.7508 9.26362 27.7409 9.27609C27.713 9.3105 27.6847 9.3449 27.6563 9.37911C27.6424 9.39621 27.6282 9.41331 27.6138 9.43102C27.5528 9.49359 27.4846 9.54309 27.4115 9.59419C27.3982 9.60385 27.3847 9.61371 27.3708 9.62377C27.2891 9.68111 27.2184 9.71733 27.1165 9.74127V9.78152C27.101 9.78534 27.0857 9.78936 27.0697 9.79339C27.0494 9.79862 27.0292 9.80385 27.0083 9.80928C26.988 9.81431 26.968 9.81954 26.9473 9.82477C26.887 9.84087 26.887 9.84087 26.824 9.88212C26.6802 9.91029 26.5359 9.90586 26.3897 9.90606C26.3629 9.90626 26.3364 9.90646 26.3089 9.90666C25.8769 9.90747 25.5146 9.75878 25.2063 9.48816C25.1753 9.45858 25.1442 9.42881 25.1136 9.39883C25.0994 9.38555 25.0855 9.37247 25.0711 9.35879C24.9394 9.23102 24.8258 9.08515 24.7763 8.91614H24.7313C24.7286 8.90226 24.7257 8.88837 24.7227 8.87409C24.7072 8.8095 24.6861 8.74773 24.6638 8.68475C24.6242 8.57329 24.5938 8.47148 24.5927 8.35478C24.5925 8.33526 24.5922 8.31595 24.592 8.29583C24.5918 8.26424 24.5918 8.26424 24.5916 8.23205C24.5913 8.20951 24.5911 8.18718 24.5909 8.16424C24.5902 8.0902 24.5898 8.01636 24.5891 7.94292C24.5886 7.89181 24.5882 7.8405 24.5877 7.7892C24.5866 7.66807 24.5857 7.54775 24.5846 7.42502C24.5835 7.28699 24.5823 7.14937 24.581 7.01054C24.5785 6.72684 24.576 6.44314 24.5738 6.15945C24.5515 6.15281 24.5292 6.14617 24.5063 6.13933L24.5094 6.14315ZM29.0548 8.05458V8.21555H29.0773V8.05458H29.0548ZM3.31272 11.9378C3.2927 11.9384 3.27267 11.939 3.25219 11.9396C2.99567 11.9507 2.77065 12.0109 2.57939 12.171L2.55689 12.2314C2.53461 12.2414 2.53461 12.2414 2.51188 12.2515L2.48938 12.3119C2.46688 12.3722 2.46688 12.3722 2.42187 12.3923L2.44438 12.4326H2.39937C2.30982 12.7304 2.32219 13.0362 2.32309 13.342C2.32332 13.4225 2.32287 13.503 2.32287 13.5835C2.32242 13.7243 2.32242 13.8651 2.32264 14.006C2.32287 14.2152 2.32264 14.4245 2.32242 14.6358C2.32197 15.01 2.32197 15.3842 2.32197 15.7585C2.32219 16.0864 2.32219 16.4144 2.32197 16.7403V16.8723C2.32197 16.9385 2.32197 17.0047 2.32174 17.0711C2.32152 17.6868 2.32152 18.3025 2.32174 18.9182V18.9884V19.5538C2.32219 20.2902 2.32197 21.0246 2.32129 21.767C2.32084 22.594 2.32039 23.4189 2.32062 24.2418V24.5054V24.5712C2.32084 24.8992 2.32062 25.2271 2.32039 25.5531C2.31994 25.9253 2.31994 26.2975 2.32039 26.6698C2.32062 26.879 2.32062 27.0862 2.32017 27.2955C2.31994 27.4347 2.31994 27.5732 2.32039 27.714C2.32062 27.7933 2.32062 27.8726 2.32017 27.9514C2.31994 28.0237 2.31994 28.0959 2.32039 28.1687C2.32062 28.2067 2.32039 28.2446 2.31994 28.2824C2.32242 28.552 2.38452 28.8136 2.59896 29.0128C2.77605 29.1603 2.94549 29.218 3.18626 29.218C3.20179 29.2182 3.21754 29.2182 3.23352 29.2182C3.28572 29.2182 3.33815 29.2182 3.39035 29.218C3.42838 29.218 3.46641 29.218 3.50444 29.2182C3.6093 29.2182 3.71415 29.2182 3.81946 29.218H4.16149H4.76004C5.05706 29.2178 5.35409 29.2178 5.65111 29.2178C6.15065 29.218 6.65019 29.2178 7.14973 29.2178C7.64477 29.2176 8.13981 29.2176 8.63485 29.2174H8.68143H9.10221H10.1485H10.1967C10.9708 29.2174 11.7426 29.2172 12.5144 29.2172C12.7822 29.217 13.0499 29.217 13.32 29.217H13.3704C14.1444 29.2168 14.9162 29.2168 15.688 29.2168C15.7382 29.2166 15.7884 29.2166 15.8386 29.2166H16.8377C17.4992 29.2166 18.1608 29.2166 18.8246 29.2164H18.9193C20.8635 29.2162 22.8121 29.216 25.2198 29.2156C25.2263 29.2031 25.2326 29.1908 25.2394 29.178C25.2695 29.1273 25.3096 29.0951 25.3548 29.0546V29.0144C25.3679 29.0098 25.3807 29.0053 25.3942 29.0005C25.461 28.9657 25.4923 28.9315 25.5348 28.8735C25.5432 28.8206 25.5463 28.7764 25.545 28.7236C25.545 28.7015 25.545 28.7015 25.5452 28.679C25.545 28.6305 25.5443 28.582 25.5436 28.5337C25.5434 28.4999 25.5434 28.4663 25.5432 28.4325C25.5429 28.344 25.542 28.2556 25.5409 28.1669C25.54 28.0766 25.5398 27.9862 25.5393 27.8953C25.5382 27.718 25.5366 27.5412 25.5348 27.3641C25.4727 27.3456 25.4376 27.3418 25.3737 27.3424C25.3548 27.3424 25.3362 27.3426 25.3168 27.3428C25.2966 27.343 25.2763 27.3432 25.2556 27.3434C25.2128 27.3438 25.1703 27.344 25.1276 27.3442C25.0603 27.3446 24.993 27.3452 24.9257 27.346C24.8609 27.3466 24.7959 27.3468 24.7311 27.3472C24.7108 27.3474 24.6906 27.3478 24.6696 27.348C24.6417 27.3482 24.6417 27.3482 24.6129 27.3482C24.5965 27.3484 24.5801 27.3486 24.563 27.3486C24.5223 27.344 24.5223 27.344 24.4773 27.3037C24.4716 27.251 24.4716 27.251 24.4716 27.183C24.4716 27.1573 24.4714 27.1315 24.4714 27.105C24.4716 27.0762 24.4716 27.0474 24.4719 27.0188C24.4719 26.9887 24.4716 26.9585 24.4716 26.9285C24.4716 26.8466 24.4716 26.7647 24.4719 26.683C24.4721 26.5975 24.4721 26.5118 24.4721 26.4255C24.4721 26.2818 24.4723 26.1378 24.4725 25.9949C24.473 25.8287 24.4732 25.6629 24.473 25.4959C24.473 25.3364 24.4732 25.176 24.4734 25.0171V24.8118C24.4734 24.7318 24.4737 24.6517 24.4739 24.5724V24.4839C24.4739 24.4438 24.4741 24.4038 24.4743 24.3638V24.2955C24.4773 24.2454 24.4773 24.2454 24.4998 24.2253C24.5418 24.2237 24.5841 24.2237 24.6262 24.2241C24.6667 24.2243 24.6667 24.2243 24.7081 24.2247C24.7376 24.2249 24.7671 24.2251 24.7975 24.2253H24.9831C25.081 24.2251 25.1791 24.2253 25.2779 24.2263C25.3571 24.2273 25.4361 24.2273 25.5164 24.2267C25.5609 24.2265 25.6057 24.2273 25.6505 24.2283C25.7999 24.2302 25.7999 24.2302 25.9228 24.1642C25.9601 24.1157 25.9601 24.1157 25.9871 24.065C26.0101 24.0241 26.0101 24.0241 26.0551 24.004C26.0616 23.9845 26.0681 23.965 26.0749 23.9449C26.1001 23.8833 26.1001 23.8833 26.1408 23.862C26.157 23.8557 26.1734 23.8495 26.1901 23.843C26.2279 23.8096 26.2653 23.7762 26.3026 23.7424C26.3429 23.7108 26.3836 23.6799 26.425 23.6495C26.4453 23.6342 26.4657 23.6189 26.4867 23.6034C26.5506 23.561 26.6131 23.5312 26.6851 23.501C26.7034 23.4925 26.7216 23.4839 26.7405 23.4752C26.9192 23.3925 27.0983 23.341 27.2918 23.2998V23.2596H27.3476C27.7954 23.2602 28.2454 23.26 28.6932 23.2589C28.9101 23.2585 29.1275 23.2583 29.3435 23.2587C29.5325 23.2589 29.7215 23.2587 29.9105 23.2581C30.0107 23.2577 30.1108 23.2575 30.2098 23.2581C30.3041 23.2585 30.3984 23.2581 30.4933 23.2575C30.5278 23.2573 30.5624 23.2573 30.5969 23.2577C30.7751 23.2648 30.7751 23.2648 30.9366 23.2125C30.9713 23.1791 30.9713 23.1791 30.9951 23.1398C31.026 23.0986 31.026 23.0986 31.0651 23.0698C31.1468 23.0087 31.1862 22.9503 31.1981 22.8565C31.2055 22.7487 31.2037 22.6413 31.2026 22.5326C31.2026 22.4905 31.2028 22.4485 31.203 22.4064C31.2035 22.2908 31.2028 22.1751 31.2022 22.0604C31.2015 21.9356 31.2017 21.8109 31.2019 21.6861C31.2022 21.4708 31.2017 21.2535 31.2008 21.0383C31.1999 20.8109 31.1995 20.5856 31.1992 20.3582V20.3153V20.1C31.199 19.593 31.1979 19.086 31.1965 18.5789C31.1952 18.086 31.1943 17.5931 31.1938 17.1021V17.0562C31.1936 16.919 31.1936 16.7826 31.1934 16.6438C31.1929 16.1045 31.192 15.5633 31.1913 15.0241C31.1911 14.9816 31.1911 14.939 31.1911 14.8963C31.1904 14.5442 31.1898 14.1921 31.1889 13.842C31.1887 13.7438 31.1884 13.6458 31.1882 13.5483C31.1882 13.4356 31.1877 13.3229 31.1875 13.2102C31.1873 13.1694 31.1873 13.1285 31.1871 13.0877C31.1871 13.0322 31.1868 12.9766 31.1866 12.9211V12.8732C31.185 12.5835 31.1121 12.332 30.8783 12.1167C30.5813 11.8913 30.1808 11.9314 29.8163 11.9318H29.6797H29.3039H28.8944C28.6558 11.9316 28.4173 11.9316 28.1788 11.9318H27.4092H27.3602H27.1624C26.5481 11.9316 25.9338 11.9316 25.3195 11.9316H25.2644H25.2092C24.6534 11.9318 24.0977 11.9318 23.5441 11.9318H23.4325C23.2831 11.9318 23.1332 11.9318 22.9847 11.9316H21.7314H21.6738C21.0685 11.9316 20.4609 11.9316 19.8556 11.9318H19.796H18.8374H15.0346H14.0783H14.0189C13.4136 11.9316 12.8083 11.9316 12.203 11.9316H12.1454C11.7268 11.9316 11.3105 11.9316 10.892 11.9318H10.4442H10.3326C9.77907 11.9318 9.22327 11.9318 8.66748 11.9316H8.61258H8.55767C7.94562 11.9316 7.33357 11.9316 6.71927 11.9318H6.52171H6.47265H5.70759C5.45557 11.9316 5.20355 11.9318 4.95378 11.9318H4.551C3.92995 11.93 3.92995 11.93 3.3089 11.942L3.31272 11.9378ZM31.1025 25.2173C31.0946 25.2261 31.0867 25.235 31.0784 25.244C30.9456 25.3915 30.8129 25.5378 30.6711 25.6786C30.627 25.7235 30.5858 25.77 30.5446 25.8169C30.476 25.8947 30.4033 25.9682 30.328 26.0402C30.1947 26.1684 30.0714 26.3038 29.9499 26.4406C29.9339 26.4585 29.918 26.4764 29.9015 26.4949C29.8876 26.5108 29.8734 26.5269 29.859 26.5434C29.8253 26.5798 29.7904 26.6126 29.7526 26.6458C29.729 26.6696 29.7056 26.6935 29.6824 26.7174C29.6223 26.7792 29.5613 26.8398 29.4994 26.8997C29.4049 26.9931 29.3181 27.0909 29.2317 27.1915C29.1698 27.2635 29.1036 27.3265 29.0316 27.3909C28.9826 27.4424 28.9353 27.4951 28.8881 27.548C28.8005 27.6454 28.7125 27.7418 28.6203 27.8357C28.5546 27.9033 28.4923 27.9734 28.4297 28.043C28.38 28.0955 28.38 28.0955 28.3262 28.1428C28.2402 28.2208 28.1671 28.3074 28.0922 28.3943C28.0805 28.4076 28.069 28.4206 28.0571 28.4341C28.0467 28.446 28.0364 28.4579 28.0258 28.4701C27.9977 28.4985 27.9977 28.4985 27.9527 28.5186L27.9302 28.579C27.8933 28.613 27.8557 28.6464 27.8177 28.6796C27.7762 28.7212 27.7364 28.7639 27.6966 28.8065C27.675 28.8297 27.6532 28.853 27.6316 28.8762C27.6158 28.8929 27.6158 28.8929 27.5998 28.9098C27.5492 28.9633 27.4972 29.0158 27.445 29.0683C27.3717 29.1367 27.3717 29.1367 27.3451 29.2228C27.7569 29.2238 28.1687 29.2244 28.5782 29.2248C28.7693 29.225 28.9607 29.2254 29.152 29.2258C29.3183 29.2262 29.485 29.2264 29.6516 29.2267C29.7398 29.2267 29.828 29.2269 29.9171 29.2271C30.0001 29.2275 30.0831 29.2275 30.1668 29.2275C30.2116 29.2275 30.2566 29.2277 30.3016 29.2279C30.3284 29.2279 30.3552 29.2277 30.3831 29.2277C30.4063 29.2277 30.4294 29.2277 30.4535 29.2279C30.6592 29.2124 30.836 29.0967 30.9688 28.9623C31.2096 28.7067 31.1747 28.3768 31.1738 28.0609V27.9681C31.1738 27.8848 31.1738 27.8017 31.1736 27.7186C31.1736 27.6313 31.1734 27.5442 31.1734 27.4571C31.1734 27.2921 31.1731 27.1271 31.1729 26.9621C31.1727 26.7744 31.1727 26.5859 31.1724 26.3987C31.1722 26.0124 31.1718 25.6261 31.1713 25.2398C31.149 25.2332 31.1268 25.2265 31.1038 25.2197L31.1025 25.2173Z" fill="#15575B"/>
<path d="M24.8171 13.9748H24.8766C24.9104 13.9748 24.9104 13.9748 24.9447 13.9746C24.9694 13.9746 24.9944 13.9748 25.0199 13.975C25.0458 13.9748 25.0719 13.9748 25.0987 13.9748C25.17 13.9748 25.2415 13.9748 25.3137 13.975C25.3882 13.9752 25.463 13.9752 25.5367 13.9752C25.6621 13.9752 25.7879 13.9754 25.9125 13.9756C26.0576 13.976 26.2019 13.976 26.3486 13.976C26.4881 13.976 26.628 13.9762 26.7666 13.9764H26.9449C27.0279 13.9764 27.1107 13.9766 27.1941 13.9768H27.2692C27.3028 13.977 27.3028 13.977 27.3373 13.9772H27.3966C27.4432 13.9798 27.4432 13.9798 27.4834 14V17.1178C26.975 17.1409 26.975 17.1409 26.7821 17.1401H26.7148C26.6434 17.1401 26.5721 17.1399 26.5018 17.1399C26.4513 17.1397 26.4011 17.1397 26.3508 17.1397C26.22 17.1397 26.0896 17.1395 25.959 17.1393C25.8249 17.1391 25.6917 17.1389 25.557 17.1389C25.2958 17.1387 25.0325 17.1383 24.7713 17.1379C24.7289 17.0683 24.7261 17.0136 24.7261 16.9327C24.7259 16.9072 24.7259 16.8814 24.7257 16.8551C24.7259 16.8267 24.7259 16.7984 24.7259 16.7702C24.7259 16.7402 24.7259 16.7105 24.7257 16.6805C24.7255 16.5994 24.7257 16.5184 24.7257 16.4371C24.7259 16.3522 24.7257 16.2675 24.7257 16.1836C24.7257 16.0414 24.7257 15.898 24.7259 15.7572C24.7261 15.5925 24.7261 15.4273 24.7259 15.2624C24.7257 15.121 24.7257 14.9788 24.7257 14.8379C24.7259 14.7535 24.7259 14.669 24.7257 14.5845C24.7255 14.5052 24.7257 14.4258 24.7259 14.3471V14.2596C24.7257 14.2198 24.7259 14.1802 24.7261 14.1406V14.073C24.7327 14.0044 24.7484 13.9831 24.8179 13.9756L24.8171 13.9748Z" fill="#15575B"/>
<path d="M24.8738 18.9022C24.8963 18.9022 24.9188 18.902 24.9418 18.902H25.0169C25.0427 18.902 25.0688 18.9018 25.0955 18.9018C25.1669 18.9016 25.2381 18.9016 25.3101 18.9016C25.3695 18.9016 25.4291 18.9014 25.4885 18.9014C25.6287 18.9012 25.7693 18.9012 25.9097 18.9012C26.0546 18.9012 26.1986 18.901 26.345 18.9006C26.4694 18.9004 26.5938 18.9002 26.7181 18.9002C26.7924 18.9004 26.8666 18.9002 26.9408 18.9C27.0237 18.8998 27.1063 18.8998 27.1896 18.9C27.2142 18.9 27.2391 18.8998 27.2646 18.8996C27.2871 18.8998 27.3093 18.8998 27.3326 18.9C27.352 18.9 27.3717 18.9 27.392 18.8998C27.4383 18.9048 27.4383 18.9048 27.4784 18.9452C27.4834 18.9986 27.4834 18.9986 27.4832 19.0675C27.4834 19.1068 27.4834 19.1068 27.4834 19.1466C27.4834 19.1757 27.4832 19.2048 27.483 19.2339V19.3253C27.483 19.4082 27.4828 19.491 27.4826 19.5739C27.4822 19.6604 27.4822 19.7472 27.4822 19.8327C27.482 19.9966 27.4818 20.1601 27.4814 20.3239C27.481 20.5107 27.4806 20.6979 27.4804 20.8838C27.48 21.2679 27.4794 21.652 27.4784 22.0361C27.1695 22.0567 26.8626 22.0599 26.5517 22.0605C26.5264 22.0605 26.5011 22.0605 26.4752 22.0607C26.3557 22.0609 26.2365 22.0611 26.1161 22.0611C25.9787 22.0613 25.8413 22.0615 25.7049 22.0622C25.5852 22.0628 25.4662 22.063 25.3458 22.063C25.2951 22.063 25.2443 22.0632 25.1936 22.0634C25.123 22.0638 25.0526 22.0638 24.983 22.0636C24.9619 22.0638 24.9408 22.064 24.9192 22.0642C24.8907 22.064 24.8907 22.064 24.8614 22.0638C24.8447 22.0638 24.8281 22.0638 24.811 22.064C24.7978 22.0613 24.7846 22.0589 24.7707 22.0563C24.7236 21.9851 24.7258 21.9562 24.7258 21.8717C24.7258 21.8459 24.7258 21.82 24.7256 21.7931C24.7258 21.7644 24.726 21.7355 24.7262 21.7068V21.616C24.7262 21.5337 24.7264 21.4515 24.7266 21.3694C24.7268 21.2833 24.7268 21.1974 24.727 21.1106C24.727 20.9479 24.7274 20.7852 24.7278 20.6214C24.7282 20.4361 24.7284 20.2515 24.7286 20.0655C24.729 19.6835 24.7298 19.3034 24.7306 18.9214C24.7822 18.8955 24.8189 18.8985 24.8766 18.8985L24.8738 18.9022Z" fill="#15575B"/>
<path d="M12.2217 24.174H12.2897C12.3154 24.174 12.341 24.1738 12.3674 24.1738C12.3959 24.1738 12.4241 24.174 12.4532 24.1742C12.4978 24.174 12.4978 24.174 12.5432 24.174C12.6248 24.174 12.7064 24.174 12.7883 24.1742C12.8736 24.1744 12.959 24.1744 13.045 24.1744C13.1884 24.1744 13.3318 24.1746 13.4752 24.1748C13.6407 24.1752 13.8059 24.1752 13.9724 24.1752C14.1315 24.1752 14.2915 24.1754 14.4511 24.1756H14.6546C14.7494 24.1756 14.844 24.1758 14.9391 24.176H15.0246C15.0632 24.1762 15.0632 24.1762 15.1026 24.1764H15.1706C15.2237 24.179 15.2237 24.179 15.27 24.1991V27.3119C14.8329 27.3241 14.4004 27.3353 13.9634 27.3359C13.9377 27.3359 13.9122 27.3361 13.8859 27.3361C13.7518 27.3366 13.6176 27.3366 13.4835 27.3368C13.3454 27.3368 13.2083 27.3374 13.0695 27.338C12.9624 27.3384 12.8556 27.3384 12.7481 27.3384C12.697 27.3386 12.6458 27.3386 12.595 27.339C12.5244 27.3392 12.4539 27.3392 12.3834 27.3392C12.3623 27.3392 12.3413 27.3394 12.3198 27.3396C12.262 27.3394 12.262 27.3394 12.1708 27.3319C12.1165 27.2612 12.1188 27.2325 12.1186 27.1488C12.1186 27.1231 12.1183 27.0974 12.1183 27.0709C12.1183 27.0423 12.1183 27.0138 12.1186 26.9853C12.1186 26.9552 12.1183 26.9253 12.1183 26.8951C12.1181 26.8136 12.1181 26.7321 12.1183 26.6501V26.3951C12.1181 26.2519 12.1183 26.1079 12.1186 25.9653C12.1188 25.7997 12.1186 25.634 12.1183 25.4673C12.1181 25.3251 12.1181 25.1821 12.1183 25.0416V24.7865C12.1181 24.7066 12.1181 24.6269 12.1186 24.5476C12.1186 24.5182 12.1186 24.4889 12.1183 24.4596C12.1183 24.4196 12.1186 24.3797 12.1186 24.3397C12.1186 24.3172 12.1188 24.2949 12.1188 24.2718C12.1262 24.2033 12.144 24.1817 12.224 24.1742L12.2217 24.174Z" fill="#15575B"/>
<path d="M12.2204 13.9748H12.2884C12.3141 13.9748 12.3398 13.9746 12.3661 13.9746C12.3946 13.9746 12.4228 13.9748 12.452 13.975C12.4966 13.9748 12.4966 13.9748 12.542 13.9748C12.6236 13.9748 12.7053 13.9748 12.7872 13.975C12.8726 13.9752 12.958 13.9752 13.044 13.9752C13.1875 13.9752 13.3309 13.9754 13.4744 13.9756C13.64 13.976 13.8052 13.976 13.9718 13.976C14.131 13.976 14.2911 13.9762 14.4507 13.9764H14.6543C14.7492 13.9764 14.8438 13.9766 14.9389 13.9768H15.0245C15.0632 13.977 15.0632 13.977 15.1025 13.9772H15.1705C15.2237 13.9798 15.2237 13.9798 15.27 13.9999V17.1126C14.6846 17.1357 14.6846 17.1357 14.4648 17.1359C14.4396 17.1359 14.4144 17.1361 14.3883 17.1363C14.3071 17.1365 14.2261 17.1367 14.1453 17.1367C14.1173 17.1367 14.0891 17.1369 14.0602 17.1369C13.9126 17.1373 13.764 17.1373 13.6183 17.1375C13.4658 17.1375 13.3129 17.1381 13.1602 17.1387C13.0426 17.1391 12.9242 17.1391 12.8085 17.1391C12.752 17.1393 12.6958 17.1393 12.6396 17.1397C12.5614 17.1399 12.4834 17.1399 12.4059 17.1399C12.3826 17.1399 12.3594 17.1401 12.3354 17.1403C12.3037 17.1401 12.3037 17.1401 12.2713 17.1401H12.2155C12.2007 17.1377 12.1861 17.1353 12.1709 17.1327C12.1165 17.062 12.1188 17.0333 12.1186 16.9496C12.1186 16.9239 12.1183 16.8982 12.1183 16.8716C12.1183 16.8431 12.1183 16.8146 12.1186 16.7861C12.1186 16.756 12.1183 16.7261 12.1183 16.6959C12.1181 16.6144 12.1181 16.5329 12.1183 16.4509V16.1959C12.1181 16.0527 12.1183 15.9087 12.1186 15.7661C12.1188 15.6005 12.1186 15.4348 12.1183 15.2681C12.1181 15.1259 12.1181 14.9829 12.1183 14.8424V14.5873C12.1181 14.5074 12.1181 14.4277 12.1186 14.3483C12.1186 14.319 12.1186 14.2897 12.1183 14.2604C12.1183 14.2204 12.1186 14.1805 12.1186 14.1405C12.1186 14.118 12.1188 14.0957 12.1188 14.0726C12.1262 14.0041 12.144 13.9824 12.2241 13.975L12.2204 13.9748Z" fill="#15575B"/>
<path d="M18.5239 13.9748H18.5919C18.6176 13.9748 18.6433 13.9746 18.6696 13.9746C18.6981 13.9746 18.7263 13.9748 18.7555 13.975C18.8001 13.9748 18.8001 13.9748 18.8455 13.9748C18.9272 13.9748 19.0088 13.9748 19.0907 13.975C19.1761 13.9752 19.2615 13.9752 19.3476 13.9752C19.491 13.9752 19.6345 13.9754 19.7779 13.9756C19.9436 13.976 20.1088 13.976 20.2754 13.976C20.4346 13.976 20.5947 13.9762 20.7544 13.9764H20.958C21.0529 13.9764 21.1475 13.9766 21.2426 13.9768H21.3282C21.3669 13.977 21.3669 13.977 21.4062 13.9772H21.4742C21.5274 13.9798 21.5274 13.9798 21.5737 13.9999V17.1126C21.34 17.1351 21.34 17.1351 21.2313 17.1355C21.1945 17.1357 21.1945 17.1357 21.157 17.1359H21.0774C21.0353 17.1361 21.0353 17.1361 20.992 17.1363C20.9154 17.1365 20.8388 17.1365 20.7622 17.1367C20.7144 17.1367 20.6665 17.1369 20.6186 17.1369C20.4686 17.1371 20.3178 17.1373 20.1697 17.1375C19.9966 17.1375 19.8226 17.1379 19.6514 17.1385C19.5174 17.1389 19.383 17.1391 19.2488 17.1391C19.1687 17.1391 19.0889 17.1393 19.0081 17.1397C18.9193 17.1401 18.8304 17.1399 18.7421 17.1399C18.7154 17.1399 18.6888 17.1401 18.6615 17.1403C18.6254 17.1401 18.6254 17.1401 18.5884 17.1401H18.5248C18.5081 17.1377 18.4917 17.1353 18.4746 17.1327C18.4202 17.062 18.4225 17.0333 18.4223 16.9496C18.4223 16.9239 18.422 16.8982 18.422 16.8716C18.422 16.8431 18.422 16.8146 18.4223 16.7861C18.4223 16.756 18.422 16.7261 18.422 16.6959C18.4218 16.6144 18.4218 16.5329 18.422 16.4509V16.1959C18.4218 16.0527 18.422 15.9087 18.4223 15.7661C18.4225 15.6005 18.4223 15.4348 18.422 15.2681C18.4218 15.1259 18.4218 14.9829 18.422 14.8424V14.5873C18.4218 14.5074 18.4218 14.4277 18.4223 14.3483C18.4223 14.319 18.4223 14.2897 18.422 14.2604C18.422 14.2204 18.4223 14.1805 18.4223 14.1405C18.4223 14.118 18.4225 14.0957 18.4225 14.0726C18.4299 14.0041 18.4477 13.9824 18.5278 13.975L18.5239 13.9748Z" fill="#15575B"/>
<path d="M5.91741 13.9748H5.98544C6.01112 13.9748 6.0368 13.9746 6.06318 13.9746C6.09164 13.9746 6.11987 13.9748 6.14903 13.975C6.19368 13.9748 6.19368 13.9748 6.23903 13.9748C6.32071 13.9748 6.40239 13.9748 6.4843 13.975C6.56968 13.9752 6.65506 13.9752 6.74113 13.9752C6.88459 13.9752 7.02805 13.9754 7.1715 13.9756C7.33717 13.976 7.50238 13.976 7.66898 13.976C7.82817 13.976 7.98828 13.9762 8.14794 13.9764H8.35155C8.44642 13.9764 8.54106 13.9766 8.63615 13.9768H8.72177C8.76041 13.977 8.76041 13.977 8.79974 13.9772H8.86777C8.92099 13.9798 8.92099 13.9798 8.96726 13.9999V17.1126C8.73357 17.1351 8.73357 17.1351 8.62482 17.1355C8.58803 17.1357 8.58803 17.1357 8.55054 17.1359H8.47095C8.42884 17.1361 8.42884 17.1361 8.38557 17.1363C8.30898 17.1365 8.23239 17.1365 8.1558 17.1367C8.10791 17.1367 8.06001 17.1369 8.01212 17.1369C7.86218 17.1371 7.71132 17.1373 7.56323 17.1375C7.39016 17.1375 7.21616 17.1379 7.04494 17.1385C6.91097 17.1389 6.77653 17.1391 6.64233 17.1391C6.56227 17.1391 6.48245 17.1393 6.40169 17.1397C6.31284 17.1401 6.22399 17.1399 6.13561 17.1399C6.109 17.1399 6.08239 17.1401 6.05508 17.1403C6.01899 17.1401 6.01899 17.1401 5.98197 17.1401H5.91834C5.90168 17.1377 5.88525 17.1353 5.86813 17.1327C5.81375 17.062 5.81607 17.0333 5.81583 16.9496C5.81583 16.9239 5.8156 16.8982 5.8156 16.8716C5.8156 16.8431 5.8156 16.8146 5.81583 16.7861C5.81583 16.756 5.8156 16.7261 5.8156 16.6959C5.81537 16.6144 5.81537 16.5329 5.8156 16.4509V16.1959C5.81537 16.0527 5.8156 15.9087 5.81583 15.7661C5.81607 15.6005 5.81583 15.4348 5.8156 15.2681C5.81537 15.1259 5.81537 14.9829 5.8156 14.8424V14.5873C5.81537 14.5074 5.81537 14.4277 5.81583 14.3483C5.81583 14.319 5.81583 14.2897 5.8156 14.2604C5.8156 14.2204 5.81583 14.1805 5.81583 14.1405C5.81583 14.118 5.81607 14.0957 5.81607 14.0726C5.82347 14.0041 5.84129 13.9824 5.92134 13.975L5.91741 13.9748Z" fill="#15575B"/>
<path d="M18.5938 24.1741C18.6195 24.1741 18.6452 24.1739 18.6718 24.1739C18.7 24.1739 18.7282 24.1741 18.7574 24.1741C18.7872 24.1741 18.8169 24.1739 18.8476 24.1739H19.0929C19.1783 24.1741 19.2637 24.1739 19.3498 24.1739C19.493 24.1739 19.6367 24.1739 19.7802 24.1741C19.9461 24.1741 20.1111 24.1741 20.2777 24.1739H20.7034H20.958C21.0526 24.1739 21.1472 24.1739 21.2426 24.1741C21.2708 24.1741 21.2993 24.1739 21.3284 24.1739C21.3541 24.1739 21.3798 24.1741 21.4062 24.1741H21.4742C21.5274 24.1768 21.5274 24.1768 21.5737 24.1968V27.3118C21.1248 27.3237 20.6759 27.3351 20.227 27.3359C20.2018 27.3359 20.1768 27.3361 20.1511 27.3361C20.0199 27.3363 19.8896 27.3365 19.7577 27.3368C19.6226 27.3368 19.487 27.3374 19.3528 27.338C19.248 27.3382 19.1434 27.3384 19.0381 27.3384C18.9881 27.3384 18.9383 27.3386 18.8884 27.3388C18.8194 27.3392 18.7505 27.3392 18.6817 27.339C18.6611 27.3392 18.6408 27.3394 18.6195 27.3396C18.563 27.3392 18.563 27.3392 18.4739 27.3319C18.4193 27.2608 18.4219 27.2318 18.4221 27.1476C18.4221 27.1217 18.4221 27.0956 18.4219 27.0689C18.4221 27.0401 18.4223 27.0114 18.4223 26.9824C18.4226 26.9521 18.4223 26.922 18.4223 26.8916C18.4223 26.8092 18.4226 26.7268 18.423 26.6444C18.4233 26.5584 18.4233 26.4724 18.4233 26.3872C18.4235 26.2242 18.424 26.0616 18.4244 25.8988C18.4249 25.7133 18.4251 25.527 18.4253 25.3422C18.4258 24.9603 18.4267 24.5785 18.4277 24.1966C18.4869 24.1709 18.5288 24.1739 18.5952 24.1739L18.5938 24.1741Z" fill="#15575B"/>
<path d="M5.91764 24.174H5.98566C6.01134 24.174 6.03702 24.1738 6.0634 24.1738C6.09185 24.1738 6.12008 24.174 6.14923 24.1742C6.19389 24.174 6.19389 24.174 6.23923 24.174C6.32091 24.174 6.40258 24.174 6.48448 24.1742C6.56985 24.1744 6.65523 24.1744 6.7413 24.1744C6.88474 24.1744 7.02819 24.1746 7.17164 24.1748C7.33729 24.1752 7.50249 24.1752 7.66907 24.1752C7.82825 24.1752 7.98836 24.1754 8.148 24.1756H8.3516C8.44646 24.1756 8.54109 24.1758 8.63618 24.176H8.72178C8.76042 24.1762 8.76042 24.1762 8.79975 24.1764H8.86778C8.92099 24.179 8.92099 24.179 8.96726 24.1991V27.3119C8.51841 27.3237 8.06957 27.3353 7.62072 27.3359C7.59573 27.3359 7.57074 27.3361 7.54483 27.3361C7.41388 27.3366 7.28339 27.3366 7.15151 27.3368C7.01639 27.3368 6.88081 27.3374 6.74662 27.338C6.64181 27.3384 6.537 27.3384 6.43196 27.3384C6.38222 27.3386 6.33224 27.3386 6.2825 27.339C6.21355 27.3392 6.1446 27.3392 6.07566 27.3392C6.0553 27.3392 6.03471 27.3394 6.01365 27.3396C5.9572 27.3394 5.9572 27.3394 5.86812 27.3319C5.81375 27.2612 5.81607 27.2325 5.81583 27.1488C5.81583 27.1231 5.8156 27.0974 5.8156 27.0709C5.8156 27.0423 5.8156 27.0138 5.81583 26.9853C5.81583 26.9552 5.8156 26.9253 5.8156 26.8951C5.81537 26.8136 5.81537 26.7321 5.8156 26.6501V26.3951C5.81537 26.2519 5.8156 26.1079 5.81583 25.9653C5.81607 25.7997 5.81583 25.634 5.8156 25.4673C5.81537 25.3251 5.81537 25.1821 5.8156 25.0416V24.7865C5.81537 24.7066 5.81537 24.6269 5.81583 24.5476C5.81583 24.5182 5.81583 24.4889 5.8156 24.4596C5.8156 24.4196 5.81583 24.3797 5.81583 24.3397C5.81583 24.3172 5.81607 24.2949 5.81607 24.2718C5.82347 24.2033 5.84128 24.1817 5.92134 24.1742L5.91764 24.174Z" fill="#15575B"/>
<path d="M12.2916 18.8989C12.3172 18.8987 12.3429 18.8987 12.3694 18.8985C12.4116 18.8987 12.4116 18.8987 12.4548 18.8989C12.4846 18.8987 12.5141 18.8987 12.5448 18.8985C12.6263 18.8985 12.7076 18.8985 12.7895 18.8987C12.8747 18.8987 12.9599 18.8987 13.0457 18.8985C13.1886 18.8985 13.332 18.8985 13.4751 18.8987C13.6406 18.8989 13.8052 18.8989 13.9714 18.8987C14.1133 18.8985 14.2553 18.8985 14.3961 18.8985C14.481 18.8987 14.5657 18.8987 14.65 18.8985C14.7444 18.8983 14.8388 18.8985 14.9339 18.8989C14.9621 18.8987 14.9905 18.8987 15.0195 18.8985C15.0452 18.8987 15.0708 18.8987 15.0971 18.8989H15.165C15.2181 18.904 15.2181 18.904 15.2642 18.9445C15.27 18.9979 15.27 18.9979 15.2698 19.0669C15.27 19.1061 15.27 19.1061 15.27 19.146C15.2698 19.1752 15.2698 19.2043 15.2695 19.2334V19.3249C15.2695 19.4079 15.2693 19.4909 15.2688 19.5738C15.2686 19.6604 15.2686 19.7473 15.2686 19.8329C15.2684 19.997 15.2682 20.1607 15.2677 20.3246C15.267 20.5116 15.2668 20.699 15.2665 20.8852C15.2661 21.2697 15.2654 21.6542 15.2642 22.0387C15.0595 22.0534 14.8557 22.0619 14.6502 22.0619C14.6232 22.0619 14.5962 22.0621 14.5685 22.0621C14.4806 22.0624 14.3926 22.0624 14.3054 22.0624C14.2594 22.0624 14.2135 22.0626 14.1676 22.0626C14.0238 22.0628 13.879 22.0628 13.7359 22.0628C13.5875 22.0628 13.4405 22.063 13.2904 22.0634C13.1628 22.0636 13.0342 22.0636 12.9072 22.0636C12.8313 22.0636 12.7551 22.0638 12.6789 22.064C12.5945 22.0642 12.5098 22.064 12.425 22.064C12.3999 22.064 12.3747 22.0642 12.3486 22.0642C12.3258 22.0642 12.3029 22.0642 12.2792 22.064H12.2187C12.1707 22.0589 12.1707 22.0589 12.1245 22.0184C12.1187 21.9656 12.1187 21.9656 12.1187 21.8972C12.1185 21.8713 12.1185 21.8454 12.1183 21.8187C12.1183 21.79 12.1185 21.761 12.1185 21.7323C12.1185 21.7019 12.1185 21.6718 12.1183 21.6414C12.118 21.5593 12.1183 21.4769 12.1183 21.3945C12.1185 21.3087 12.1183 21.2227 12.1183 21.1375C12.1183 20.993 12.1183 20.8481 12.1185 20.7045C12.1187 20.5373 12.1187 20.3705 12.1185 20.2026C12.1183 20.0593 12.1183 19.9152 12.1183 19.7736C12.1185 19.688 12.1185 19.6024 12.1183 19.5166C12.118 19.436 12.1183 19.3557 12.1185 19.2757V19.1869C12.1183 19.1464 12.1185 19.1061 12.1187 19.0659V18.9975C12.1298 18.8961 12.191 18.8989 12.2916 18.8989Z" fill="#15575B"/>
<path d="M5.91898 18.8986H5.98697C6.01264 18.8986 6.03831 18.8984 6.06467 18.8984C6.09312 18.8984 6.12133 18.8986 6.15047 18.8988C6.19511 18.8986 6.19511 18.8986 6.24043 18.8986C6.32207 18.8986 6.40371 18.8986 6.48557 18.8988C6.57091 18.899 6.65625 18.899 6.74228 18.899C6.88566 18.899 7.02904 18.8992 7.17243 18.8994C7.33801 18.8999 7.50313 18.8999 7.66964 18.8999C7.82875 18.8999 7.98879 18.9001 8.14836 18.9003H8.35187C8.44669 18.9003 8.54128 18.9005 8.63632 18.9007H8.72189C8.76051 18.9009 8.76051 18.9009 8.79983 18.9011H8.86782C8.92101 18.9037 8.92101 18.9037 8.96726 18.9239V22.0387C8.73716 22.0504 8.51167 22.0619 8.28272 22.0617C8.25636 22.0619 8.22999 22.0619 8.20271 22.0619C8.11737 22.0622 8.0318 22.0624 7.946 22.0624C7.88611 22.0624 7.82621 22.0624 7.76608 22.0626H7.39143C7.24712 22.0626 7.10235 22.0628 6.95897 22.0632C6.81952 22.0634 6.67914 22.0636 6.54038 22.0636C6.48118 22.0636 6.42221 22.0636 6.363 22.0638C6.28067 22.064 6.19858 22.064 6.11555 22.0638C6.09104 22.064 6.06652 22.064 6.04109 22.0642C6.00778 22.064 6.00778 22.064 5.97379 22.064H5.91482C5.8681 22.0589 5.8681 22.0589 5.82185 22.0185C5.81607 21.9655 5.81607 21.9655 5.81583 21.8971C5.81583 21.8712 5.8156 21.8453 5.8156 21.8188C5.8156 21.7899 5.8156 21.7612 5.81583 21.7323C5.81583 21.7021 5.8156 21.6718 5.8156 21.6417C5.81537 21.5593 5.81537 21.477 5.8156 21.3949V21.136C5.81537 20.9918 5.8156 20.8468 5.81583 20.7032C5.81607 20.5361 5.81583 20.3695 5.8156 20.2016C5.81537 20.0584 5.81537 19.9144 5.8156 19.7728V19.5159C5.81537 19.4354 5.81537 19.3549 5.81583 19.2752C5.81583 19.2457 5.81583 19.216 5.8156 19.1865C5.8156 19.1462 5.81583 19.106 5.81583 19.0657C5.81583 19.0431 5.81607 19.0204 5.81607 18.9971C5.82347 18.9282 5.84127 18.9063 5.92129 18.8988L5.91898 18.8986Z" fill="#15575B"/>
<path d="M18.9023 18.8986C18.9307 18.8986 18.9589 18.8986 18.9883 18.8984C19.0656 18.8984 19.143 18.8984 19.2196 18.8986C19.3006 18.8986 19.3817 18.8986 19.4625 18.8984C19.5985 18.8984 19.7354 18.8984 19.8695 18.8986H20.3414C20.4767 18.8984 20.612 18.8984 20.7461 18.8984C20.8269 18.8986 20.9076 18.8986 20.989 18.8984C21.0787 18.8984 21.1685 18.8984 21.2573 18.8986C21.2841 18.8986 21.311 18.8986 21.3385 18.8984C21.375 18.8986 21.375 18.8986 21.4123 18.8986H21.4768C21.5274 18.9013 21.5274 18.9013 21.5737 18.9215V22.0387C21.3436 22.0504 21.1181 22.0619 20.8891 22.0617C20.8627 22.0619 20.8363 22.0619 20.8093 22.0619C20.7237 22.0621 20.6381 22.0624 20.5525 22.0624C20.4924 22.0624 20.4325 22.0624 20.3724 22.0626C20.2477 22.0626 20.1226 22.0628 19.9977 22.0626C19.8533 22.0626 19.7086 22.0628 19.5652 22.0632C19.4257 22.0636 19.2853 22.0636 19.1465 22.0636C19.0875 22.0636 19.0283 22.0636 18.9691 22.0638C18.887 22.064 18.8047 22.064 18.7216 22.0638C18.6971 22.064 18.6726 22.064 18.6474 22.0642C18.6138 22.064 18.6138 22.064 18.5798 22.064H18.5211C18.4741 22.0589 18.4741 22.0589 18.4279 22.0184C18.4221 21.9654 18.4221 21.9654 18.4221 21.897C18.4221 21.8709 18.4221 21.845 18.4219 21.8184C18.4221 21.7895 18.4221 21.7606 18.4223 21.7318C18.4223 21.7014 18.4221 21.6711 18.4221 21.6409C18.4221 21.5585 18.4221 21.4762 18.4223 21.394C18.4226 21.3078 18.4226 21.2217 18.4226 21.1349C18.4226 20.9904 18.4228 20.8454 18.423 20.7017C18.4235 20.5345 18.4237 20.3678 18.4237 20.1997C18.4235 20.0392 18.4237 19.8779 18.424 19.718V19.5115C18.424 19.431 18.4242 19.3504 18.4244 19.2707C18.4244 19.2409 18.4247 19.2114 18.4244 19.1816C18.4244 19.1413 18.4247 19.1011 18.4249 19.0608V18.9922C18.4279 18.9418 18.4279 18.9418 18.451 18.9215C18.5993 18.8958 18.7471 18.8984 18.8974 18.8986H18.9023Z" fill="#15575B"/>
</svg>
