<svg width="44" height="44" viewBox="0 0 44 44" fill="none" xmlns="http://www.w3.org/2000/svg">
<path d="M10.4579 6.80102L7.87287 4.19768C1.83203 10.1982 1.83203 14.5468 1.83203 20.166H3.66536L5.4987 20.0505C5.4987 14.6825 5.4987 11.7253 10.4579 6.80102ZM36.1227 4.19768L33.5414 6.80102C38.4987 11.7253 38.4987 14.6825 38.4987 20.166L42.1654 20.0505C42.1654 14.5468 42.1654 10.1982 36.1227 4.19768ZM21.9987 40.3327C23.1341 40.3341 24.2417 39.9818 25.1676 39.3246C26.0935 38.6675 26.7917 37.7383 27.165 36.666H16.8324C17.2057 37.7383 17.9039 38.6675 18.8298 39.3246C19.7557 39.9818 20.8633 40.3341 21.9987 40.3327ZM34.832 26.7404V18.3327C34.832 12.4348 30.8262 7.46652 25.3995 5.97235C24.8624 4.61935 23.5497 3.66602 21.9987 3.66602C20.4477 3.66602 19.135 4.61935 18.5979 5.97235C13.1694 7.46652 9.16537 12.4348 9.16537 18.3327V26.7404L6.03586 29.8698C5.69202 30.2136 5.4988 30.6798 5.4987 31.166V32.9993C5.4987 33.4856 5.69185 33.9519 6.03567 34.2957C6.37949 34.6395 6.8458 34.8327 7.33203 34.8327H36.6654C37.1516 34.8327 37.6179 34.6395 37.9617 34.2957C38.3055 33.9519 38.4987 33.4856 38.4987 32.9993V31.166C38.4986 30.6798 38.3054 30.2136 37.9615 29.8698L34.832 26.7404Z" fill="#FBFBFB"/>
</svg>
