<svg width="353" height="73" viewBox="0 0 353 73" fill="none" xmlns="http://www.w3.org/2000/svg">
<path d="M15.4101 35.3569C17.671 34.6351 19.7649 34.4425 21.6919 34.779C23.6108 35.0902 25.4054 35.8889 27.0757 37.1752L25.1715 40.6803C23.7358 39.5151 22.3068 38.8096 20.8847 38.5638C19.4799 38.2845 17.9519 38.4084 16.3006 38.9356C15.0813 39.3248 14.1305 39.8103 13.4485 40.392C12.7664 40.9736 12.324 41.6047 12.1214 42.2852C11.9361 42.9322 11.9529 43.5987 12.1718 44.2846C12.4233 45.0721 12.909 45.6728 13.629 46.0868C14.3744 46.4927 15.5492 46.6215 17.1534 46.4732L22.6245 45.9863C25.2335 45.7412 27.2205 46.0026 28.5854 46.7706C29.9502 47.5385 30.9003 48.7608 31.4356 50.4374C31.9303 51.9871 31.941 53.4673 31.4676 54.8781C30.9942 56.2888 30.1055 57.5383 28.8013 58.6265C27.5225 59.7066 25.8797 60.5669 23.8728 61.2076C22.0946 61.7753 20.4212 62.0576 18.8526 62.0545C17.284 62.0514 15.8406 61.8264 14.5222 61.3796C13.2038 60.9327 12.0395 60.3106 11.0292 59.5135L12.9488 55.7935C13.7661 56.5123 14.6948 57.0976 15.7348 57.5493C16.7667 57.9757 17.8769 58.2091 19.0655 58.2496C20.2795 58.2819 21.547 58.0872 22.868 57.6655C24.0365 57.2924 24.9954 56.8323 25.7445 56.2853C26.519 55.7301 27.037 55.1168 27.2986 54.4455C27.5774 53.7406 27.5952 53.0071 27.3519 52.245C27.1167 51.5083 26.6558 50.9416 25.9693 50.545C25.3083 50.1402 24.2559 50.0003 22.8122 50.1253L16.8854 50.6317C15.2558 50.7881 13.8483 50.7196 12.6629 50.4262C11.4775 50.1328 10.5056 49.6313 9.74724 48.9216C8.98072 48.1866 8.4231 47.2729 8.07437 46.1806C7.62021 44.758 7.5917 43.3534 7.98886 41.967C8.40331 40.547 9.23775 39.2589 10.4922 38.1026C11.7385 36.9209 13.3778 36.0057 15.4101 35.3569Z" fill="white"/>
<path d="M46.5411 26.8904C48.3754 26.4212 50.0339 26.341 51.5167 26.6498C53.0253 26.9521 54.3063 27.6015 55.3595 28.5983C56.4127 29.5951 57.154 30.9331 57.5836 32.6123C58.0065 34.2658 57.9987 35.7954 57.5601 37.2013C57.1149 38.5814 56.3032 39.7661 55.125 40.7556C53.9726 41.7386 52.4793 42.4646 50.645 42.9338L44.9484 44.391L47.387 53.9241L43.2405 54.9847L36.6981 29.4082L46.5411 26.8904ZM49.0743 39.5371C50.9085 39.0679 52.1561 38.3497 52.817 37.3824C53.4971 36.3826 53.6522 35.1594 53.2821 33.7127C52.9054 32.2401 52.182 31.2415 51.112 30.717C50.0612 30.16 48.6187 30.1162 46.7844 30.5854L41.7466 31.874L44.0365 40.8258L49.0743 39.5371Z" fill="white"/>
<path d="M71.9495 48.0133L66.916 22.0976L85.6853 18.4521L86.3869 22.0646L71.8191 24.894L73.2682 32.3546L84.6554 30.1429L85.3418 33.6769L73.9546 35.8886L75.4494 43.5848L90.5669 40.6485L91.2685 44.261L71.9495 48.0133Z" fill="white"/>
<path d="M121.784 32.915C121.465 34.5711 120.85 36.0241 119.94 37.2742C119.025 38.4978 117.891 39.4815 116.537 40.2253C115.183 40.9691 113.646 41.4545 111.928 41.6816C109.416 42.0134 107.164 41.7596 105.17 40.9201C103.176 40.0807 101.544 38.7228 100.274 36.8463C99.004 34.9698 98.1839 32.6304 97.8136 29.8281C97.4434 27.0258 97.6279 24.5537 98.367 22.4117C99.1062 20.2698 100.329 18.5346 102.037 17.2062C103.744 15.8778 105.84 15.0494 108.325 14.7211C110.044 14.4941 111.622 14.5277 113.059 14.8219C114.524 15.1127 115.807 15.6693 116.911 16.4918C118.015 17.3143 118.926 18.4044 119.643 19.7621L115.874 22.0758C115.139 20.5859 114.222 19.5504 113.123 18.9693C112.021 18.3618 110.663 18.1646 109.051 18.3776C107.438 18.5907 106.074 19.1609 104.959 20.0882C103.845 21.0156 103.04 22.2517 102.544 23.7965C102.076 25.3379 101.979 27.1528 102.255 29.2413C102.527 31.3034 103.079 33.0328 103.909 34.4294C104.735 35.7996 105.794 36.7895 107.085 37.3989C108.376 38.0084 109.854 38.2032 111.52 37.9831C113.133 37.7701 114.466 37.1769 115.521 36.2037C116.599 35.2005 117.279 33.833 117.561 32.1011L121.784 32.915Z" fill="white"/>
<path d="M134.388 12.3959L136.581 38.7047L132.316 39.0602L130.123 12.7514L134.388 12.3959Z" fill="white"/>
<path d="M171.265 36.9879L166.748 37.1501L163.981 30.3251L152.908 30.7229L150.638 37.7289L146.241 37.8869L155.247 11.1463L160.364 10.9625L171.265 36.9879ZM153.983 27.202L162.657 26.8904L157.897 14.7335L153.983 27.202Z" fill="white"/>
<path d="M184.22 33.4903L198.777 33.8068L198.697 37.4859L179.861 37.0765L180.435 10.6827L184.714 10.7757L184.22 33.4903Z" fill="white"/>
<path d="M247.061 19.0282L232.356 17.3535L231.487 24.9842L243.012 26.2968L242.596 29.9532L231.07 28.6405L229.785 39.9276L225.532 39.4432L228.52 13.2128L247.477 15.3719L247.061 19.0282Z" fill="white"/>
<path d="M269.336 18.4941C271.857 18.9393 273.942 19.8627 275.59 21.264C277.238 22.6654 278.384 24.4521 279.03 26.6241C279.675 28.7961 279.752 31.2739 279.26 34.0575C278.769 36.8411 277.848 39.1426 276.497 40.9621C275.147 42.7817 273.457 44.0674 271.429 44.8194C269.401 45.5714 267.126 45.7247 264.605 45.2794C262.11 44.8388 260.039 43.9178 258.391 42.5164C256.743 41.1151 255.596 39.3284 254.951 37.1564C254.305 34.9843 254.228 32.5065 254.72 29.7229C255.212 26.9394 256.133 24.6378 257.483 22.8183C258.834 20.9988 260.523 19.713 262.551 18.9611C264.58 18.2091 266.841 18.0534 269.336 18.4941ZM268.689 22.1573C267.061 21.8698 265.589 22.0024 264.272 22.5552C262.982 23.1127 261.895 24.0579 261.009 25.3909C260.124 26.7239 259.498 28.4276 259.132 30.5022C258.77 32.5505 258.774 34.3656 259.145 35.9475C259.52 37.5031 260.218 38.7637 261.239 39.7294C262.286 40.6996 263.624 41.3286 265.252 41.6161C266.906 41.9084 268.379 41.7757 269.668 41.2183C270.985 40.6655 272.085 39.7226 272.971 38.3896C273.861 37.0303 274.487 35.3265 274.849 33.2783C275.215 31.2037 275.211 29.3886 274.835 27.833C274.46 26.2773 273.749 25.0144 272.702 24.0441C271.681 23.0785 270.343 22.4496 268.689 22.1573Z" fill="white"/>
<path d="M303.695 25.7719C306.181 26.3828 308.2 27.4419 309.752 28.9491C311.304 30.4564 312.33 32.315 312.83 34.5249C313.331 36.7348 313.244 39.2123 312.569 41.9573C311.895 44.7023 310.823 46.9379 309.356 48.6642C307.888 50.3905 306.117 51.5617 304.044 52.178C301.97 52.7942 299.69 52.7969 297.204 52.1859C294.744 51.5813 292.738 50.5254 291.186 49.0182C289.634 47.511 288.608 45.6524 288.108 43.4424C287.608 41.2325 287.695 38.755 288.369 36.01C289.044 33.265 290.115 31.0294 291.583 29.3031C293.05 27.5769 294.821 26.4056 296.895 25.7894C298.968 25.1731 301.235 25.1673 303.695 25.7719ZM302.808 29.3844C301.202 28.9898 299.724 29.0248 298.374 29.4894C297.051 29.9604 295.903 30.8316 294.931 32.1032C293.96 33.3747 293.223 35.0334 292.72 37.0792C292.223 39.0991 292.108 40.9105 292.373 42.5134C292.644 44.0905 293.258 45.3945 294.212 46.4255C295.193 47.4629 296.486 48.1788 298.092 48.5734C299.723 48.9743 301.201 48.9393 302.525 48.4684C303.875 48.0038 305.036 47.1357 306.007 45.8641C306.985 44.5667 307.722 42.908 308.219 40.8881C308.721 38.8423 308.837 37.0309 308.566 35.4539C308.294 33.8769 307.668 32.5697 306.687 31.5323C305.732 30.5013 304.439 29.7853 302.808 29.3844Z" fill="white"/>
<path d="M335.796 35.1857C339.737 36.4316 342.456 38.4935 343.951 41.3715C345.48 44.232 345.605 47.6837 344.327 51.7265C343.049 55.7693 340.959 58.5344 338.055 60.0217C335.185 61.4917 331.78 61.6038 327.839 60.3579L318.952 57.5486L326.91 32.3765L335.796 35.1857ZM328.936 56.8872C331.606 57.7312 333.889 57.586 335.786 56.4516C337.716 55.2999 339.139 53.2747 340.056 50.3761C340.972 47.4775 340.967 45.0149 340.042 42.9883C339.15 40.9444 337.369 39.5004 334.699 38.6564L329.894 37.1373L324.13 55.368L328.936 56.8872Z" fill="white"/>
</svg>
