<svg width="183" height="183" viewBox="0 0 183 183" fill="none" xmlns="http://www.w3.org/2000/svg">
<path d="M121.448 30.4004H60.7504V151.796H121.448V30.4004Z" fill="#278B91"/>
<path d="M30.4015 60.7492V121.447L151.797 121.447L151.797 60.7492L30.4015 60.7492Z" fill="#278B91"/>
<path d="M60.6969 91.0461C60.6969 107.807 74.2845 121.395 91.0457 121.395C107.807 121.395 121.395 107.807 121.395 91.0461C121.395 74.2849 107.807 60.6973 91.0457 60.6973C74.2845 60.6973 60.6969 74.2849 60.6969 91.0461Z" fill="#EFC828"/>
<path d="M60.6969 91.0461C60.6969 107.807 74.2845 121.395 91.0457 121.395C91.0059 104.652 77.4403 91.0859 60.6969 91.0461Z" fill="#FFE887"/>
<path d="M91.0457 60.6973C91.0457 77.4585 104.633 91.0461 121.395 91.0461C121.355 74.3026 107.789 60.737 91.0457 60.6973Z" fill="#FFE887"/>
<path d="M91.0457 60.6973C91.0457 77.4581 77.4587 91.0455 60.698 91.0461C60.7377 74.303 74.3027 60.7376 91.0457 60.6973Z" fill="#FFE887"/>
<path d="M91.0457 121.395C107.807 121.395 121.395 107.807 121.395 91.0461C104.651 91.0859 91.0854 104.652 91.0457 121.395Z" fill="#FFE887"/>
<path d="M121.449 30.4546C121.449 13.6358 107.861 0.00146309 91.0988 0.000817672C91.1386 16.8018 104.705 30.4141 121.449 30.4546Z" fill="#FFE887"/>
<path d="M91.0988 60.6985C91.0988 43.995 104.639 30.454 121.343 30.4534C121.303 47.1393 107.785 60.6583 91.0988 60.6985Z" fill="#FFE887"/>
<path fill-rule="evenodd" clip-rule="evenodd" d="M91.0988 0.000817672L91.0988 60.6985C74.3376 60.6985 60.75 47.1106 60.75 30.3494C60.75 13.5882 74.3376 0.000816939 91.0988 0.000817672ZM91.0988 0.000817672C74.3376 0.000816939 60.75 13.5882 60.75 30.3494C77.4934 30.3096 91.0591 16.7442 91.0988 0.000817672ZM60.75 30.3494C77.4934 30.3891 91.0591 43.9551 91.0988 60.6985C74.3376 60.6985 60.75 47.1106 60.75 30.3494Z" fill="#EFC828"/>
<path fill-rule="evenodd" clip-rule="evenodd" d="M91.1 0.105142L91.1 60.8027C107.861 60.8027 121.449 47.2158 121.449 30.4546C121.449 13.6934 107.861 0.105143 91.1 0.105142ZM91.1 0.105142C107.861 0.105143 121.449 13.6934 121.449 30.4546C104.705 30.4148 91.1398 16.8486 91.1 0.105142ZM121.449 30.4546C104.705 30.4943 91.1398 44.0593 91.1 60.8027C107.861 60.8027 121.449 47.2158 121.449 30.4546Z" fill="#EFC828"/>
<path d="M60.8031 151.743C60.8031 168.561 74.3912 182.196 91.1531 182.196C91.1134 165.395 77.5474 151.783 60.8031 151.743Z" fill="#FFE887"/>
<path d="M91.1531 121.499C91.1531 138.202 77.6126 151.743 60.9092 151.744C60.9488 135.058 74.4674 121.539 91.1531 121.499Z" fill="#FFE887"/>
<path fill-rule="evenodd" clip-rule="evenodd" d="M91.1531 182.196L91.1531 121.499C107.914 121.499 121.502 135.087 121.502 151.848C121.502 168.609 107.914 182.196 91.1531 182.196ZM91.1531 182.196C107.914 182.196 121.502 168.609 121.502 151.848C104.759 151.888 91.1929 165.453 91.1531 182.196ZM121.502 151.848C104.759 151.808 91.1929 138.242 91.1531 121.499C107.914 121.499 121.502 135.087 121.502 151.848Z" fill="#EFC828"/>
<path fill-rule="evenodd" clip-rule="evenodd" d="M91.1519 182.092L91.1519 121.395C74.3907 121.395 60.8031 134.981 60.8031 151.743C60.8031 168.504 74.3907 182.092 91.1519 182.092ZM91.1519 182.092C74.3907 182.092 60.8031 168.504 60.8031 151.743C77.5465 151.782 91.1122 165.349 91.1519 182.092ZM60.8031 151.743C77.5465 151.703 91.1122 138.138 91.1519 121.395C74.3907 121.395 60.8031 134.981 60.8031 151.743Z" fill="#EFC828"/>
<path d="M30.3482 60.7503C47.1669 60.7503 60.8013 74.3384 60.8019 91.1004C44.0009 91.0607 30.3886 77.4946 30.3482 60.7503Z" fill="#FFE887"/>
<path d="M0.104234 91.1004C16.8078 91.1004 30.3487 77.5598 30.3493 60.8565C13.6634 60.896 0.144439 74.4146 0.104234 91.1004Z" fill="#FFE887"/>
<path fill-rule="evenodd" clip-rule="evenodd" d="M60.8019 91.1004L0.104234 91.1004C0.104235 107.862 13.6922 121.449 30.4534 121.449C47.2146 121.449 60.8019 107.862 60.8019 91.1004ZM60.8019 91.1004C60.8019 107.862 47.2146 121.449 30.4534 121.449C30.4931 104.706 44.0585 91.1401 60.8019 91.1004ZM30.4534 121.449C30.4136 104.706 16.8477 91.1401 0.104234 91.1004C0.104235 107.862 13.6922 121.449 30.4534 121.449Z" fill="#EFC828"/>
<path fill-rule="evenodd" clip-rule="evenodd" d="M60.6976 91.0992L-2.65328e-06 91.0992C-4.85125e-06 74.338 13.587 60.7504 30.3482 60.7503C47.1094 60.7503 60.6976 74.338 60.6976 91.0992ZM60.6976 91.0992C60.6976 74.338 47.1094 60.7503 30.3482 60.7503C30.3879 77.4938 43.9542 91.0594 60.6976 91.0992ZM30.3482 60.7503C30.3084 77.4938 16.7434 91.0594 -2.65328e-06 91.0992C-4.85125e-06 74.338 13.587 60.7504 30.3482 60.7503Z" fill="#EFC828"/>
<path d="M151.849 121.449C135.03 121.449 121.396 107.861 121.395 91.0989C138.196 91.1386 151.809 104.705 151.849 121.449Z" fill="#FFE887"/>
<path d="M182.093 91.0988C165.39 91.0988 151.849 104.639 151.848 121.343C168.534 121.303 182.053 107.785 182.093 91.0988Z" fill="#FFE887"/>
<path fill-rule="evenodd" clip-rule="evenodd" d="M121.395 91.0989L182.093 91.0988C182.093 74.3376 168.505 60.75 151.744 60.75C134.983 60.75 121.395 74.3377 121.395 91.0989ZM121.395 91.0989C121.395 74.3377 134.983 60.75 151.744 60.75C151.704 77.4934 138.139 91.0591 121.395 91.0989ZM151.744 60.75C151.784 77.4934 165.35 91.0591 182.093 91.0988C182.093 74.3376 168.505 60.75 151.744 60.75Z" fill="#EFC828"/>
<path fill-rule="evenodd" clip-rule="evenodd" d="M121.5 91.1L182.197 91.1C182.197 107.861 168.61 121.449 151.849 121.449C135.088 121.449 121.5 107.861 121.5 91.1ZM121.5 91.1C121.5 107.861 135.088 121.449 151.849 121.449C151.809 104.705 138.243 91.1398 121.5 91.1ZM151.849 121.449C151.889 104.705 165.454 91.1398 182.197 91.1C182.197 107.861 168.61 121.449 151.849 121.449Z" fill="#EFC828"/>
</svg>
