<svg width="64" height="65" viewBox="0 0 64 65" fill="none" xmlns="http://www.w3.org/2000/svg">
<path d="M32.0009 38.2988C29.7786 38.2988 27.8897 37.5211 26.3342 35.9655C24.7786 34.4099 24.0009 32.5211 24.0009 30.2988V14.2988C24.0009 12.0766 24.7786 10.1877 26.3342 8.63216C27.8897 7.07661 29.7786 6.29883 32.0009 6.29883C34.2231 6.29883 36.112 7.07661 37.6675 8.63216C39.2231 10.1877 40.0009 12.0766 40.0009 14.2988V30.2988C40.0009 32.5211 39.2231 34.4099 37.6675 35.9655C36.112 37.5211 34.2231 38.2988 32.0009 38.2988ZM29.3342 54.2988V48.7655C25.2453 48.1877 21.7457 46.4544 18.8355 43.5655C15.9253 40.6766 14.1582 37.1655 13.5342 33.0322C13.4453 32.2766 13.6453 31.6322 14.1342 31.0988C14.6231 30.5655 15.2453 30.2988 16.0009 30.2988C16.7564 30.2988 17.3902 30.5548 17.9022 31.0668C18.4142 31.5788 18.7582 32.2117 18.9342 32.9655C19.5564 36.0766 21.1013 38.6322 23.5689 40.6322C26.0364 42.6322 28.8471 43.6322 32.0009 43.6322C35.2009 43.6322 38.0231 42.6215 40.4675 40.6002C42.912 38.5788 44.4453 36.0339 45.0675 32.9655C45.2453 32.2099 45.5902 31.5771 46.1022 31.0668C46.6142 30.5566 47.2471 30.3006 48.0009 30.2988C48.7546 30.2971 49.3769 30.5637 49.8675 31.0988C50.3582 31.6339 50.5582 32.2784 50.4675 33.0322C49.8453 37.0766 48.0897 40.5655 45.2009 43.4988C42.312 46.4322 38.8008 48.1877 34.6675 48.7655V54.2988C34.6675 55.0544 34.4115 55.6882 33.8995 56.2002C33.3875 56.7122 32.7546 56.9673 32.0009 56.9655C31.2471 56.9637 30.6142 56.7077 30.1022 56.1975C29.5902 55.6873 29.3342 55.0544 29.3342 54.2988Z" fill="#15575B"/>
</svg>
