<svg width="61" height="61" viewBox="0 0 61 61" fill="none" xmlns="http://www.w3.org/2000/svg">
<path d="M30.4995 35.584C28.3814 35.584 26.5811 34.8427 25.0985 33.36C23.6158 31.8774 22.8745 30.077 22.8745 27.959V12.709C22.8745 10.5909 23.6158 8.79058 25.0985 7.30794C26.5811 5.8253 28.3814 5.08398 30.4995 5.08398C32.6176 5.08398 34.4179 5.8253 35.9005 7.30794C37.3832 8.79058 38.1245 10.5909 38.1245 12.709V27.959C38.1245 30.077 37.3832 31.8774 35.9005 33.36C34.4179 34.8427 32.6176 35.584 30.4995 35.584ZM27.9578 50.834V45.56C24.0606 45.0093 20.7251 43.3573 17.9513 40.6038C15.1775 37.8503 13.4932 34.5038 12.8985 30.5642C12.8137 29.8441 13.0044 29.2298 13.4703 28.7215C13.9363 28.2132 14.5294 27.959 15.2495 27.959C15.9696 27.959 16.5737 28.203 17.0617 28.691C17.5497 29.179 17.8776 29.7822 18.0453 30.5007C18.6384 33.4659 20.1109 35.9017 22.4628 37.8079C24.8146 39.7142 27.4936 40.6673 30.4995 40.6673C33.5495 40.6673 36.2394 39.704 38.5693 37.7774C40.8992 35.8509 42.3606 33.4253 42.9537 30.5007C43.1231 29.7805 43.4518 29.1773 43.9398 28.691C44.4278 28.2047 45.0311 27.9607 45.7495 27.959C46.4679 27.9573 47.061 28.2115 47.5287 28.7215C47.9963 29.2315 48.187 29.8457 48.1005 30.5642C47.5075 34.4191 45.8342 37.7444 43.0808 40.5402C40.3273 43.3361 36.9808 45.0093 33.0412 45.56V50.834C33.0412 51.5541 32.7972 52.1582 32.3092 52.6462C31.8212 53.1342 31.2179 53.3773 30.4995 53.3757C29.7811 53.374 29.1778 53.13 28.6898 52.6437C28.2018 52.1573 27.9578 51.5541 27.9578 50.834Z" fill="#F4AA3D"/>
</svg>
