<svg width="224" height="177" viewBox="0 0 224 177" fill="none" xmlns="http://www.w3.org/2000/svg">
<g filter="url(#filter0_iii_773_6065)">
<path d="M127.635 20.4232L129.429 31.9949C129.724 33.7215 130.772 35.1892 132.284 35.8978L142.627 40.6593C147.942 43.15 148.252 49.7511 142.633 52.8083L132.727 58.347C131.926 58.7838 131.242 59.4064 130.732 60.1625C130.222 60.9186 129.901 61.7861 129.796 62.6921L128.172 74.2975C127.414 80.3421 121.344 82.9752 117.228 78.8757L108.871 70.6087C108.302 70.0466 107.603 69.6327 106.837 69.403C106.071 69.1734 105.26 69.135 104.475 69.2914L92.9502 71.5987C87.2641 72.7369 83.305 67.2349 86.538 61.674L91.4693 51.3223C91.8798 50.5078 92.0888 49.6067 92.0786 48.6948C92.0684 47.7828 91.8394 46.8866 91.4109 46.0815L86.1163 35.6868C83.0539 30.0857 86.9424 24.8717 92.7509 25.7165L103.612 27.3063C105.267 27.5466 107.393 27.0566 108.576 25.7465L116.537 17.0977C120.571 12.7536 126.677 14.5832 127.637 20.4239" fill="url(#paint0_radial_773_6065)"/>
<path d="M127.635 20.4232L129.429 31.9949C129.724 33.7215 130.772 35.1892 132.284 35.8978L142.627 40.6593C147.942 43.15 148.252 49.7511 142.633 52.8083L132.727 58.347C131.926 58.7838 131.242 59.4064 130.732 60.1625C130.222 60.9186 129.901 61.7861 129.796 62.6921L128.172 74.2975C127.414 80.3421 121.344 82.9752 117.228 78.8757L108.871 70.6087C108.302 70.0466 107.603 69.6327 106.837 69.403C106.071 69.1734 105.26 69.135 104.475 69.2914L92.9502 71.5987C87.2641 72.7369 83.305 67.2349 86.538 61.674L91.4693 51.3223C91.8798 50.5078 92.0888 49.6067 92.0786 48.6948C92.0684 47.7828 91.8394 46.8866 91.4109 46.0815L86.1163 35.6868C83.0539 30.0857 86.9424 24.8717 92.7509 25.7165L103.612 27.3063C105.267 27.5466 107.393 27.0566 108.576 25.7465L116.537 17.0977C120.571 12.7536 126.677 14.5832 127.637 20.4239" fill="url(#paint1_radial_773_6065)"/>
</g>
<path d="M127.635 20.4232L129.429 31.9949C129.724 33.7215 130.772 35.1892 132.284 35.8978L142.627 40.6593C147.942 43.15 148.252 49.7511 142.633 52.8083L132.727 58.347C131.926 58.7838 131.242 59.4064 130.732 60.1625C130.222 60.9186 129.901 61.7861 129.796 62.6921L128.172 74.2975C127.414 80.3421 121.344 82.9752 117.228 78.8757L108.871 70.6087C108.302 70.0466 107.603 69.6327 106.837 69.403C106.071 69.1734 105.26 69.135 104.475 69.2914L92.9502 71.5987C87.2641 72.7369 83.305 67.2349 86.538 61.674L91.4693 51.3223C91.8798 50.5078 92.0888 49.6067 92.0786 48.6948C92.0684 47.7828 91.8394 46.8866 91.4109 46.0815L86.1163 35.6868C83.0539 30.0857 86.9424 24.8717 92.7509 25.7165L103.612 27.3063C105.267 27.5466 107.393 27.0566 108.576 25.7465L116.537 17.0977C120.571 12.7536 126.677 14.5832 127.637 20.4239" fill="url(#paint2_radial_773_6065)"/>
<path d="M127.635 20.4232L129.429 31.9949C129.724 33.7215 130.772 35.1892 132.284 35.8978L142.627 40.6593C147.942 43.15 148.252 49.7511 142.633 52.8083L132.727 58.347C131.926 58.7838 131.242 59.4064 130.732 60.1625C130.222 60.9186 129.901 61.7861 129.796 62.6921L128.172 74.2975C127.414 80.3421 121.344 82.9752 117.228 78.8757L108.871 70.6087C108.302 70.0466 107.603 69.6327 106.837 69.403C106.071 69.1734 105.26 69.135 104.475 69.2914L92.9502 71.5987C87.2641 72.7369 83.305 67.2349 86.538 61.674L91.4693 51.3223C91.8798 50.5078 92.0888 49.6067 92.0786 48.6948C92.0684 47.7828 91.8394 46.8866 91.4109 46.0815L86.1163 35.6868C83.0539 30.0857 86.9424 24.8717 92.7509 25.7165L103.612 27.3063C105.267 27.5466 107.393 27.0566 108.576 25.7465L116.537 17.0977C120.571 12.7536 126.677 14.5832 127.637 20.4239" fill="url(#paint3_radial_773_6065)"/>
<path d="M127.635 20.4232L129.429 31.9949C129.724 33.7215 130.772 35.1892 132.284 35.8978L142.627 40.6593C147.942 43.15 148.252 49.7511 142.633 52.8083L132.727 58.347C131.926 58.7838 131.242 59.4064 130.732 60.1625C130.222 60.9186 129.901 61.7861 129.796 62.6921L128.172 74.2975C127.414 80.3421 121.344 82.9752 117.228 78.8757L108.871 70.6087C108.302 70.0466 107.603 69.6327 106.837 69.403C106.071 69.1734 105.26 69.135 104.475 69.2914L92.9502 71.5987C87.2641 72.7369 83.305 67.2349 86.538 61.674L91.4693 51.3223C91.8798 50.5078 92.0888 49.6067 92.0786 48.6948C92.0684 47.7828 91.8394 46.8866 91.4109 46.0815L86.1163 35.6868C83.0539 30.0857 86.9424 24.8717 92.7509 25.7165L103.612 27.3063C105.267 27.5466 107.393 27.0566 108.576 25.7465L116.537 17.0977C120.571 12.7536 126.677 14.5832 127.637 20.4239" fill="url(#paint4_radial_773_6065)"/>
<path d="M127.635 20.4232L129.429 31.9949C129.724 33.7215 130.772 35.1892 132.284 35.8978L142.627 40.6593C147.942 43.15 148.252 49.7511 142.633 52.8083L132.727 58.347C131.926 58.7838 131.242 59.4064 130.732 60.1625C130.222 60.9186 129.901 61.7861 129.796 62.6921L128.172 74.2975C127.414 80.3421 121.344 82.9752 117.228 78.8757L108.871 70.6087C108.302 70.0466 107.603 69.6327 106.837 69.403C106.071 69.1734 105.26 69.135 104.475 69.2914L92.9502 71.5987C87.2641 72.7369 83.305 67.2349 86.538 61.674L91.4693 51.3223C91.8798 50.5078 92.0888 49.6067 92.0786 48.6948C92.0684 47.7828 91.8394 46.8866 91.4109 46.0815L86.1163 35.6868C83.0539 30.0857 86.9424 24.8717 92.7509 25.7165L103.612 27.3063C105.267 27.5466 107.393 27.0566 108.576 25.7465L116.537 17.0977C120.571 12.7536 126.677 14.5832 127.637 20.4239" fill="url(#paint5_radial_773_6065)"/>
<g filter="url(#filter1_iii_773_6065)">
<path d="M197.949 59.405L199.37 68.5736C199.603 69.9417 200.434 71.1046 201.632 71.6661L209.827 75.4388C214.038 77.4122 214.284 82.6425 209.832 85.0648L201.983 89.4534C201.349 89.7994 200.807 90.2927 200.402 90.8918C199.998 91.4909 199.744 92.1783 199.661 92.8961L198.374 102.091C197.773 106.881 192.964 108.967 189.702 105.719L183.081 99.1687C182.63 98.7234 182.077 98.3954 181.47 98.2134C180.862 98.0315 180.22 98.0011 179.598 98.125L170.467 99.9531C165.961 100.855 162.824 96.4955 165.386 92.0894L169.293 83.8874C169.618 83.2421 169.784 82.5281 169.776 81.8055C169.768 81.0829 169.586 80.3728 169.247 79.7349L165.052 71.4989C162.625 67.0609 165.706 62.9297 170.309 63.5991L178.914 64.8587C180.225 65.0491 181.91 64.6609 182.848 63.6228L189.155 56.7701C192.351 53.3281 197.189 54.7777 197.95 59.4055" fill="url(#paint6_radial_773_6065)"/>
<path d="M197.949 59.405L199.37 68.5736C199.603 69.9417 200.434 71.1046 201.632 71.6661L209.827 75.4388C214.038 77.4122 214.284 82.6425 209.832 85.0648L201.983 89.4534C201.349 89.7994 200.807 90.2927 200.402 90.8918C199.998 91.4909 199.744 92.1783 199.661 92.8961L198.374 102.091C197.773 106.881 192.964 108.967 189.702 105.719L183.081 99.1687C182.63 98.7234 182.077 98.3954 181.47 98.2134C180.862 98.0315 180.22 98.0011 179.598 98.125L170.467 99.9531C165.961 100.855 162.824 96.4955 165.386 92.0894L169.293 83.8874C169.618 83.2421 169.784 82.5281 169.776 81.8055C169.768 81.0829 169.586 80.3728 169.247 79.7349L165.052 71.4989C162.625 67.0609 165.706 62.9297 170.309 63.5991L178.914 64.8587C180.225 65.0491 181.91 64.6609 182.848 63.6228L189.155 56.7701C192.351 53.3281 197.189 54.7777 197.95 59.4055" fill="url(#paint7_radial_773_6065)"/>
</g>
<path d="M197.949 59.405L199.37 68.5736C199.603 69.9417 200.434 71.1046 201.632 71.6661L209.827 75.4388C214.038 77.4122 214.284 82.6425 209.832 85.0648L201.983 89.4534C201.349 89.7994 200.807 90.2927 200.402 90.8918C199.998 91.4909 199.744 92.1783 199.661 92.8961L198.374 102.091C197.773 106.881 192.964 108.967 189.702 105.719L183.081 99.1687C182.63 98.7234 182.077 98.3954 181.47 98.2134C180.862 98.0315 180.22 98.0011 179.598 98.125L170.467 99.9531C165.961 100.855 162.824 96.4955 165.386 92.0894L169.293 83.8874C169.618 83.2421 169.784 82.5281 169.776 81.8055C169.768 81.0829 169.586 80.3728 169.247 79.7349L165.052 71.4989C162.625 67.0609 165.706 62.9297 170.309 63.5991L178.914 64.8587C180.225 65.0491 181.91 64.6609 182.848 63.6228L189.155 56.7701C192.351 53.3281 197.189 54.7777 197.95 59.4055" fill="url(#paint8_radial_773_6065)"/>
<path d="M197.949 59.405L199.37 68.5736C199.603 69.9417 200.434 71.1046 201.632 71.6661L209.827 75.4388C214.038 77.4122 214.284 82.6425 209.832 85.0648L201.983 89.4534C201.349 89.7994 200.807 90.2927 200.402 90.8918C199.998 91.4909 199.744 92.1783 199.661 92.8961L198.374 102.091C197.773 106.881 192.964 108.967 189.702 105.719L183.081 99.1687C182.63 98.7234 182.077 98.3954 181.47 98.2134C180.862 98.0315 180.22 98.0011 179.598 98.125L170.467 99.9531C165.961 100.855 162.824 96.4955 165.386 92.0894L169.293 83.8874C169.618 83.2421 169.784 82.5281 169.776 81.8055C169.768 81.0829 169.586 80.3728 169.247 79.7349L165.052 71.4989C162.625 67.0609 165.706 62.9297 170.309 63.5991L178.914 64.8587C180.225 65.0491 181.91 64.6609 182.848 63.6228L189.155 56.7701C192.351 53.3281 197.189 54.7777 197.95 59.4055" fill="url(#paint9_radial_773_6065)"/>
<path d="M197.949 59.405L199.37 68.5736C199.603 69.9417 200.434 71.1046 201.632 71.6661L209.827 75.4388C214.038 77.4122 214.284 82.6425 209.832 85.0648L201.983 89.4534C201.349 89.7994 200.807 90.2927 200.402 90.8918C199.998 91.4909 199.744 92.1783 199.661 92.8961L198.374 102.091C197.773 106.881 192.964 108.967 189.702 105.719L183.081 99.1687C182.63 98.7234 182.077 98.3954 181.47 98.2134C180.862 98.0315 180.22 98.0011 179.598 98.125L170.467 99.9531C165.961 100.855 162.824 96.4955 165.386 92.0894L169.293 83.8874C169.618 83.2421 169.784 82.5281 169.776 81.8055C169.768 81.0829 169.586 80.3728 169.247 79.7349L165.052 71.4989C162.625 67.0609 165.706 62.9297 170.309 63.5991L178.914 64.8587C180.225 65.0491 181.91 64.6609 182.848 63.6228L189.155 56.7701C192.351 53.3281 197.189 54.7777 197.95 59.4055" fill="url(#paint10_radial_773_6065)"/>
<path d="M197.949 59.405L199.37 68.5736C199.603 69.9417 200.434 71.1046 201.632 71.6661L209.827 75.4388C214.038 77.4122 214.284 82.6425 209.832 85.0648L201.983 89.4534C201.349 89.7994 200.807 90.2927 200.402 90.8918C199.998 91.4909 199.744 92.1783 199.661 92.8961L198.374 102.091C197.773 106.881 192.964 108.967 189.702 105.719L183.081 99.1687C182.63 98.7234 182.077 98.3954 181.47 98.2134C180.862 98.0315 180.22 98.0011 179.598 98.125L170.467 99.9531C165.961 100.855 162.824 96.4955 165.386 92.0894L169.293 83.8874C169.618 83.2421 169.784 82.5281 169.776 81.8055C169.768 81.0829 169.586 80.3728 169.247 79.7349L165.052 71.4989C162.625 67.0609 165.706 62.9297 170.309 63.5991L178.914 64.8587C180.225 65.0491 181.91 64.6609 182.848 63.6228L189.155 56.7701C192.351 53.3281 197.189 54.7777 197.95 59.4055" fill="url(#paint11_radial_773_6065)"/>
<g filter="url(#filter2_iii_773_6065)">
<path d="M25.2077 59.405L23.7862 68.5736C23.5528 69.9417 22.7223 71.1046 21.5243 71.6661L13.3292 75.4388C9.11776 77.4122 8.87212 82.6425 13.324 85.0648L21.1733 89.4534C21.8077 89.7994 22.3497 90.2927 22.7538 90.8918C23.1579 91.4909 23.4123 92.1783 23.4955 92.8961L24.7824 102.091C25.383 106.881 30.1921 108.967 33.4539 105.719L40.0749 99.1687C40.526 98.7234 41.0794 98.3954 41.6867 98.2134C42.2939 98.0315 42.9365 98.0011 43.5582 98.125L52.6897 99.9531C57.195 100.855 60.332 96.4955 57.7703 92.0894L53.8631 83.8874C53.5378 83.2421 53.3723 82.5281 53.3803 81.8055C53.3884 81.0829 53.5698 80.3728 53.9094 79.7349L58.1045 71.4989C60.5309 67.0609 57.4499 62.9297 52.8477 63.5991L44.2421 64.8587C42.931 65.0491 41.2459 64.6609 40.3085 63.6228L34.0011 56.7701C30.8048 53.3281 25.9671 54.7777 25.206 59.4055" fill="url(#paint12_radial_773_6065)"/>
<path d="M25.2077 59.405L23.7862 68.5736C23.5528 69.9417 22.7223 71.1046 21.5243 71.6661L13.3292 75.4388C9.11776 77.4122 8.87212 82.6425 13.324 85.0648L21.1733 89.4534C21.8077 89.7994 22.3497 90.2927 22.7538 90.8918C23.1579 91.4909 23.4123 92.1783 23.4955 92.8961L24.7824 102.091C25.383 106.881 30.1921 108.967 33.4539 105.719L40.0749 99.1687C40.526 98.7234 41.0794 98.3954 41.6867 98.2134C42.2939 98.0315 42.9365 98.0011 43.5582 98.125L52.6897 99.9531C57.195 100.855 60.332 96.4955 57.7703 92.0894L53.8631 83.8874C53.5378 83.2421 53.3723 82.5281 53.3803 81.8055C53.3884 81.0829 53.5698 80.3728 53.9094 79.7349L58.1045 71.4989C60.5309 67.0609 57.4499 62.9297 52.8477 63.5991L44.2421 64.8587C42.931 65.0491 41.2459 64.6609 40.3085 63.6228L34.0011 56.7701C30.8048 53.3281 25.9671 54.7777 25.206 59.4055" fill="url(#paint13_radial_773_6065)"/>
</g>
<path d="M25.2077 59.405L23.7862 68.5736C23.5528 69.9417 22.7223 71.1046 21.5243 71.6661L13.3292 75.4388C9.11776 77.4122 8.87212 82.6425 13.324 85.0648L21.1733 89.4534C21.8077 89.7994 22.3497 90.2927 22.7538 90.8918C23.1579 91.4909 23.4123 92.1783 23.4955 92.8961L24.7824 102.091C25.383 106.881 30.1921 108.967 33.4539 105.719L40.0749 99.1687C40.526 98.7234 41.0794 98.3954 41.6867 98.2134C42.2939 98.0315 42.9365 98.0011 43.5582 98.125L52.6897 99.9531C57.195 100.855 60.332 96.4955 57.7703 92.0894L53.8631 83.8874C53.5378 83.2421 53.3723 82.5281 53.3803 81.8055C53.3884 81.0829 53.5698 80.3728 53.9094 79.7349L58.1045 71.4989C60.5309 67.0609 57.4499 62.9297 52.8477 63.5991L44.2421 64.8587C42.931 65.0491 41.2459 64.6609 40.3085 63.6228L34.0011 56.7701C30.8048 53.3281 25.9671 54.7777 25.206 59.4055" fill="url(#paint14_radial_773_6065)"/>
<path d="M25.2077 59.405L23.7862 68.5736C23.5528 69.9417 22.7223 71.1046 21.5243 71.6661L13.3292 75.4388C9.11776 77.4122 8.87212 82.6425 13.324 85.0648L21.1733 89.4534C21.8077 89.7994 22.3497 90.2927 22.7538 90.8918C23.1579 91.4909 23.4123 92.1783 23.4955 92.8961L24.7824 102.091C25.383 106.881 30.1921 108.967 33.4539 105.719L40.0749 99.1687C40.526 98.7234 41.0794 98.3954 41.6867 98.2134C42.2939 98.0315 42.9365 98.0011 43.5582 98.125L52.6897 99.9531C57.195 100.855 60.332 96.4955 57.7703 92.0894L53.8631 83.8874C53.5378 83.2421 53.3723 82.5281 53.3803 81.8055C53.3884 81.0829 53.5698 80.3728 53.9094 79.7349L58.1045 71.4989C60.5309 67.0609 57.4499 62.9297 52.8477 63.5991L44.2421 64.8587C42.931 65.0491 41.2459 64.6609 40.3085 63.6228L34.0011 56.7701C30.8048 53.3281 25.9671 54.7777 25.206 59.4055" fill="url(#paint15_radial_773_6065)"/>
<path d="M25.2077 59.405L23.7862 68.5736C23.5528 69.9417 22.7223 71.1046 21.5243 71.6661L13.3292 75.4388C9.11776 77.4122 8.87212 82.6425 13.324 85.0648L21.1733 89.4534C21.8077 89.7994 22.3497 90.2927 22.7538 90.8918C23.1579 91.4909 23.4123 92.1783 23.4955 92.8961L24.7824 102.091C25.383 106.881 30.1921 108.967 33.4539 105.719L40.0749 99.1687C40.526 98.7234 41.0794 98.3954 41.6867 98.2134C42.2939 98.0315 42.9365 98.0011 43.5582 98.125L52.6897 99.9531C57.195 100.855 60.332 96.4955 57.7703 92.0894L53.8631 83.8874C53.5378 83.2421 53.3723 82.5281 53.3803 81.8055C53.3884 81.0829 53.5698 80.3728 53.9094 79.7349L58.1045 71.4989C60.5309 67.0609 57.4499 62.9297 52.8477 63.5991L44.2421 64.8587C42.931 65.0491 41.2459 64.6609 40.3085 63.6228L34.0011 56.7701C30.8048 53.3281 25.9671 54.7777 25.206 59.4055" fill="url(#paint16_radial_773_6065)"/>
<path d="M25.2077 59.405L23.7862 68.5736C23.5528 69.9417 22.7223 71.1046 21.5243 71.6661L13.3292 75.4388C9.11776 77.4122 8.87212 82.6425 13.324 85.0648L21.1733 89.4534C21.8077 89.7994 22.3497 90.2927 22.7538 90.8918C23.1579 91.4909 23.4123 92.1783 23.4955 92.8961L24.7824 102.091C25.383 106.881 30.1921 108.967 33.4539 105.719L40.0749 99.1687C40.526 98.7234 41.0794 98.3954 41.6867 98.2134C42.2939 98.0315 42.9365 98.0011 43.5582 98.125L52.6897 99.9531C57.195 100.855 60.332 96.4955 57.7703 92.0894L53.8631 83.8874C53.5378 83.2421 53.3723 82.5281 53.3803 81.8055C53.3884 81.0829 53.5698 80.3728 53.9094 79.7349L58.1045 71.4989C60.5309 67.0609 57.4499 62.9297 52.8477 63.5991L44.2421 64.8587C42.931 65.0491 41.2459 64.6609 40.3085 63.6228L34.0011 56.7701C30.8048 53.3281 25.9671 54.7777 25.206 59.4055" fill="url(#paint17_radial_773_6065)"/>
<g filter="url(#filter3_f_773_6065)">
<ellipse cx="47.4653" cy="3.03175" rx="47.4653" ry="3.03175" transform="matrix(-0.999997 -0.00251779 -0.00251779 0.999997 159.43 120.131)" fill="#474B4B"/>
</g>
<defs>
<filter id="filter0_iii_773_6065" x="84.418" y="14.4512" width="63.0625" height="67.0273" filterUnits="userSpaceOnUse" color-interpolation-filters="sRGB">
<feFlood flood-opacity="0" result="BackgroundImageFix"/>
<feBlend mode="normal" in="SourceGraphic" in2="BackgroundImageFix" result="shape"/>
<feColorMatrix in="SourceAlpha" type="matrix" values="0 0 0 0 0 0 0 0 0 0 0 0 0 0 0 0 0 0 127 0" result="hardAlpha"/>
<feOffset dy="-0.25"/>
<feGaussianBlur stdDeviation="0.75"/>
<feComposite in2="hardAlpha" operator="arithmetic" k2="-1" k3="1"/>
<feColorMatrix type="matrix" values="0 0 0 0 0.772549 0 0 0 0 0.494118 0 0 0 0 0.282353 0 0 0 1 0"/>
<feBlend mode="normal" in2="shape" result="effect1_innerShadow_773_6065"/>
<feColorMatrix in="SourceAlpha" type="matrix" values="0 0 0 0 0 0 0 0 0 0 0 0 0 0 0 0 0 0 127 0" result="hardAlpha"/>
<feOffset dx="-0.625" dy="0.625"/>
<feGaussianBlur stdDeviation="0.375"/>
<feComposite in2="hardAlpha" operator="arithmetic" k2="-1" k3="1"/>
<feColorMatrix type="matrix" values="0 0 0 0 1 0 0 0 0 0.952941 0 0 0 0 0.286275 0 0 0 1 0"/>
<feBlend mode="normal" in2="effect1_innerShadow_773_6065" result="effect2_innerShadow_773_6065"/>
<feColorMatrix in="SourceAlpha" type="matrix" values="0 0 0 0 0 0 0 0 0 0 0 0 0 0 0 0 0 0 127 0" result="hardAlpha"/>
<feOffset dx="0.75" dy="-0.25"/>
<feGaussianBlur stdDeviation="0.375"/>
<feComposite in2="hardAlpha" operator="arithmetic" k2="-1" k3="1"/>
<feColorMatrix type="matrix" values="0 0 0 0 0.698039 0 0 0 0 0.537255 0 0 0 0 0.192157 0 0 0 1 0"/>
<feBlend mode="normal" in2="effect2_innerShadow_773_6065" result="effect3_innerShadow_773_6065"/>
</filter>
<filter id="filter1_iii_773_6065" x="163.576" y="54.6211" width="50.252" height="53.291" filterUnits="userSpaceOnUse" color-interpolation-filters="sRGB">
<feFlood flood-opacity="0" result="BackgroundImageFix"/>
<feBlend mode="normal" in="SourceGraphic" in2="BackgroundImageFix" result="shape"/>
<feColorMatrix in="SourceAlpha" type="matrix" values="0 0 0 0 0 0 0 0 0 0 0 0 0 0 0 0 0 0 127 0" result="hardAlpha"/>
<feOffset dy="-0.25"/>
<feGaussianBlur stdDeviation="0.75"/>
<feComposite in2="hardAlpha" operator="arithmetic" k2="-1" k3="1"/>
<feColorMatrix type="matrix" values="0 0 0 0 0.772549 0 0 0 0 0.494118 0 0 0 0 0.282353 0 0 0 1 0"/>
<feBlend mode="normal" in2="shape" result="effect1_innerShadow_773_6065"/>
<feColorMatrix in="SourceAlpha" type="matrix" values="0 0 0 0 0 0 0 0 0 0 0 0 0 0 0 0 0 0 127 0" result="hardAlpha"/>
<feOffset dx="-0.625" dy="0.625"/>
<feGaussianBlur stdDeviation="0.375"/>
<feComposite in2="hardAlpha" operator="arithmetic" k2="-1" k3="1"/>
<feColorMatrix type="matrix" values="0 0 0 0 1 0 0 0 0 0.952941 0 0 0 0 0.286275 0 0 0 1 0"/>
<feBlend mode="normal" in2="effect1_innerShadow_773_6065" result="effect2_innerShadow_773_6065"/>
<feColorMatrix in="SourceAlpha" type="matrix" values="0 0 0 0 0 0 0 0 0 0 0 0 0 0 0 0 0 0 127 0" result="hardAlpha"/>
<feOffset dx="0.75" dy="-0.25"/>
<feGaussianBlur stdDeviation="0.375"/>
<feComposite in2="hardAlpha" operator="arithmetic" k2="-1" k3="1"/>
<feColorMatrix type="matrix" values="0 0 0 0 0.698039 0 0 0 0 0.537255 0 0 0 0 0.192157 0 0 0 1 0"/>
<feBlend mode="normal" in2="effect2_innerShadow_773_6065" result="effect3_innerShadow_773_6065"/>
</filter>
<filter id="filter2_iii_773_6065" x="9.45312" y="54.6211" width="50.252" height="53.291" filterUnits="userSpaceOnUse" color-interpolation-filters="sRGB">
<feFlood flood-opacity="0" result="BackgroundImageFix"/>
<feBlend mode="normal" in="SourceGraphic" in2="BackgroundImageFix" result="shape"/>
<feColorMatrix in="SourceAlpha" type="matrix" values="0 0 0 0 0 0 0 0 0 0 0 0 0 0 0 0 0 0 127 0" result="hardAlpha"/>
<feOffset dy="-0.25"/>
<feGaussianBlur stdDeviation="0.75"/>
<feComposite in2="hardAlpha" operator="arithmetic" k2="-1" k3="1"/>
<feColorMatrix type="matrix" values="0 0 0 0 0.772549 0 0 0 0 0.494118 0 0 0 0 0.282353 0 0 0 1 0"/>
<feBlend mode="normal" in2="shape" result="effect1_innerShadow_773_6065"/>
<feColorMatrix in="SourceAlpha" type="matrix" values="0 0 0 0 0 0 0 0 0 0 0 0 0 0 0 0 0 0 127 0" result="hardAlpha"/>
<feOffset dx="-0.625" dy="0.625"/>
<feGaussianBlur stdDeviation="0.375"/>
<feComposite in2="hardAlpha" operator="arithmetic" k2="-1" k3="1"/>
<feColorMatrix type="matrix" values="0 0 0 0 1 0 0 0 0 0.952941 0 0 0 0 0.286275 0 0 0 1 0"/>
<feBlend mode="normal" in2="effect1_innerShadow_773_6065" result="effect2_innerShadow_773_6065"/>
<feColorMatrix in="SourceAlpha" type="matrix" values="0 0 0 0 0 0 0 0 0 0 0 0 0 0 0 0 0 0 127 0" result="hardAlpha"/>
<feOffset dx="0.75" dy="-0.25"/>
<feGaussianBlur stdDeviation="0.375"/>
<feComposite in2="hardAlpha" operator="arithmetic" k2="-1" k3="1"/>
<feColorMatrix type="matrix" values="0 0 0 0 0.698039 0 0 0 0 0.537255 0 0 0 0 0.192157 0 0 0 1 0"/>
<feBlend mode="normal" in2="effect2_innerShadow_773_6065" result="effect3_innerShadow_773_6065"/>
</filter>
<filter id="filter3_f_773_6065" x="14.4922" y="70.0098" width="194.93" height="106.068" filterUnits="userSpaceOnUse" color-interpolation-filters="sRGB">
<feFlood flood-opacity="0" result="BackgroundImageFix"/>
<feBlend mode="normal" in="SourceGraphic" in2="BackgroundImageFix" result="shape"/>
<feGaussianBlur stdDeviation="25" result="effect1_foregroundBlur_773_6065"/>
</filter>
<radialGradient id="paint0_radial_773_6065" cx="0" cy="0" r="1" gradientUnits="userSpaceOnUse" gradientTransform="translate(137.214 35.7736) rotate(149.62) scale(45.7114 45.2373)">
<stop stop-color="#FAC632"/>
<stop offset="1" stop-color="#F7C632"/>
</radialGradient>
<radialGradient id="paint1_radial_773_6065" cx="0" cy="0" r="1" gradientUnits="userSpaceOnUse" gradientTransform="translate(113.997 45.4838) rotate(106.681) scale(31.9101 31.9412)">
<stop stop-color="#DDBA38"/>
<stop offset="1" stop-color="#DDBA38" stop-opacity="0"/>
</radialGradient>
<radialGradient id="paint2_radial_773_6065" cx="0" cy="0" r="1" gradientUnits="userSpaceOnUse" gradientTransform="translate(98.1715 26.7318) rotate(90.7354) scale(5.18227 17.2946)">
<stop stop-color="#DDBA38"/>
<stop offset="1" stop-color="#DDBA38" stop-opacity="0"/>
</radialGradient>
<radialGradient id="paint3_radial_773_6065" cx="0" cy="0" r="1" gradientUnits="userSpaceOnUse" gradientTransform="translate(86.3066 26.6109) rotate(32.7635) scale(8.99348 9.00226)">
<stop stop-color="#B5953A"/>
<stop offset="1" stop-color="#B5953A" stop-opacity="0"/>
</radialGradient>
<radialGradient id="paint4_radial_773_6065" cx="0" cy="0" r="1" gradientUnits="userSpaceOnUse" gradientTransform="translate(88.5651 73.3608) rotate(-41.8154) scale(6.47048 6.4768)">
<stop stop-color="#C47E42"/>
<stop offset="1" stop-color="#C47E42" stop-opacity="0"/>
</radialGradient>
<radialGradient id="paint5_radial_773_6065" cx="0" cy="0" r="1" gradientUnits="userSpaceOnUse" gradientTransform="translate(149.715 45.9838) rotate(167.432) scale(5.0991 6.70471)">
<stop stop-color="#FFF246"/>
<stop offset="1" stop-color="#FFF246" stop-opacity="0"/>
</radialGradient>
<radialGradient id="paint6_radial_773_6065" cx="0" cy="0" r="1" gradientUnits="userSpaceOnUse" gradientTransform="translate(205.538 71.5676) rotate(149.62) scale(36.2187 35.8431)">
<stop stop-color="#FAC632"/>
<stop offset="1" stop-color="#F7C632"/>
</radialGradient>
<radialGradient id="paint7_radial_773_6065" cx="0" cy="0" r="1" gradientUnits="userSpaceOnUse" gradientTransform="translate(187.143 79.2614) rotate(106.681) scale(25.2835 25.3081)">
<stop stop-color="#DDBA38"/>
<stop offset="1" stop-color="#DDBA38" stop-opacity="0"/>
</radialGradient>
<radialGradient id="paint8_radial_773_6065" cx="0" cy="0" r="1" gradientUnits="userSpaceOnUse" gradientTransform="translate(174.604 64.4035) rotate(90.7354) scale(4.10609 13.7031)">
<stop stop-color="#DDBA38"/>
<stop offset="1" stop-color="#DDBA38" stop-opacity="0"/>
</radialGradient>
<radialGradient id="paint9_radial_773_6065" cx="0" cy="0" r="1" gradientUnits="userSpaceOnUse" gradientTransform="translate(165.203 64.3077) rotate(32.7635) scale(7.12585 7.13281)">
<stop stop-color="#B5953A"/>
<stop offset="1" stop-color="#B5953A" stop-opacity="0"/>
</radialGradient>
<radialGradient id="paint10_radial_773_6065" cx="0" cy="0" r="1" gradientUnits="userSpaceOnUse" gradientTransform="translate(166.992 101.349) rotate(-41.8154) scale(5.12679 5.1318)">
<stop stop-color="#C47E42"/>
<stop offset="1" stop-color="#C47E42" stop-opacity="0"/>
</radialGradient>
<radialGradient id="paint11_radial_773_6065" cx="0" cy="0" r="1" gradientUnits="userSpaceOnUse" gradientTransform="translate(215.443 79.6576) rotate(167.432) scale(4.04019 5.31238)">
<stop stop-color="#FFF246"/>
<stop offset="1" stop-color="#FFF246" stop-opacity="0"/>
</radialGradient>
<radialGradient id="paint12_radial_773_6065" cx="0" cy="0" r="1" gradientUnits="userSpaceOnUse" gradientTransform="translate(17.6179 71.5676) rotate(30.3803) scale(36.2187 35.8431)">
<stop stop-color="#FAC632"/>
<stop offset="1" stop-color="#F7C632"/>
</radialGradient>
<radialGradient id="paint13_radial_773_6065" cx="0" cy="0" r="1" gradientUnits="userSpaceOnUse" gradientTransform="translate(36.0134 79.2614) rotate(73.3193) scale(25.2835 25.3081)">
<stop stop-color="#DDBA38"/>
<stop offset="1" stop-color="#DDBA38" stop-opacity="0"/>
</radialGradient>
<radialGradient id="paint14_radial_773_6065" cx="0" cy="0" r="1" gradientUnits="userSpaceOnUse" gradientTransform="translate(48.5527 64.4035) rotate(89.2646) scale(4.10609 13.7031)">
<stop stop-color="#DDBA38"/>
<stop offset="1" stop-color="#DDBA38" stop-opacity="0"/>
</radialGradient>
<radialGradient id="paint15_radial_773_6065" cx="0" cy="0" r="1" gradientUnits="userSpaceOnUse" gradientTransform="translate(57.9536 64.3077) rotate(147.236) scale(7.12585 7.13281)">
<stop stop-color="#B5953A"/>
<stop offset="1" stop-color="#B5953A" stop-opacity="0"/>
</radialGradient>
<radialGradient id="paint16_radial_773_6065" cx="0" cy="0" r="1" gradientUnits="userSpaceOnUse" gradientTransform="translate(56.1642 101.349) rotate(-138.185) scale(5.12679 5.1318)">
<stop stop-color="#C47E42"/>
<stop offset="1" stop-color="#C47E42" stop-opacity="0"/>
</radialGradient>
<radialGradient id="paint17_radial_773_6065" cx="0" cy="0" r="1" gradientUnits="userSpaceOnUse" gradientTransform="translate(7.71327 79.6576) rotate(12.5683) scale(4.04019 5.31238)">
<stop stop-color="#FFF246"/>
<stop offset="1" stop-color="#FFF246" stop-opacity="0"/>
</radialGradient>
</defs>
</svg>
